%TF.GenerationSoftware,KiCad,Pcbnew,(5.1.9)-1*%
%TF.CreationDate,2021-02-19T15:09:25+09:00*%
%TF.ProjectId,ErgoDOX,4572676f-444f-4582-9e6b-696361645f70,rev?*%
%TF.SameCoordinates,Original*%
%TF.FileFunction,Paste,Top*%
%TF.FilePolarity,Positive*%
%FSLAX46Y46*%
G04 Gerber Fmt 4.6, Leading zero omitted, Abs format (unit mm)*
G04 Created by KiCad (PCBNEW (5.1.9)-1) date 2021-02-19 15:09:25*
%MOMM*%
%LPD*%
G01*
G04 APERTURE LIST*
%ADD10R,1.900000X0.600000*%
%ADD11C,0.150000*%
%ADD12R,1.100000X1.800000*%
G04 APERTURE END LIST*
%TO.C,R3*%
G36*
G01*
X182258025Y-53192066D02*
X182646934Y-53580975D01*
G75*
G02*
X182646934Y-53863817I-141421J-141421D01*
G01*
X182364091Y-54146660D01*
G75*
G02*
X182081249Y-54146660I-141421J141421D01*
G01*
X181692340Y-53757751D01*
G75*
G02*
X181692340Y-53474909I141421J141421D01*
G01*
X181975183Y-53192066D01*
G75*
G02*
X182258025Y-53192066I141421J-141421D01*
G01*
G37*
G36*
G01*
X183424751Y-52025340D02*
X183813660Y-52414249D01*
G75*
G02*
X183813660Y-52697091I-141421J-141421D01*
G01*
X183530817Y-52979934D01*
G75*
G02*
X183247975Y-52979934I-141421J141421D01*
G01*
X182859066Y-52591025D01*
G75*
G02*
X182859066Y-52308183I141421J141421D01*
G01*
X183141909Y-52025340D01*
G75*
G02*
X183424751Y-52025340I141421J-141421D01*
G01*
G37*
%TD*%
D10*
%TO.C,U1*%
X222801200Y-53670200D03*
X222801200Y-52400200D03*
X222801200Y-51130200D03*
X222801200Y-49860200D03*
X222801200Y-48590200D03*
X222801200Y-47320200D03*
X222801200Y-46050200D03*
X222801200Y-44780200D03*
X222801200Y-43510200D03*
X222801200Y-42240200D03*
X222801200Y-40970200D03*
X222801200Y-39700200D03*
X222801200Y-38430200D03*
X222801200Y-37160200D03*
X232011200Y-37160200D03*
X232011200Y-38430200D03*
X232011200Y-39700200D03*
X232011200Y-40970200D03*
X232011200Y-42240200D03*
X232011200Y-43510200D03*
X232011200Y-44780200D03*
X232011200Y-46050200D03*
X232011200Y-47320200D03*
X232011200Y-48590200D03*
X232011200Y-49860200D03*
X232011200Y-51130200D03*
X232011200Y-52400200D03*
X232011200Y-53670200D03*
%TD*%
%TO.C,C5*%
G36*
G01*
X166222800Y-40974200D02*
X166222800Y-41474200D01*
G75*
G02*
X165997800Y-41699200I-225000J0D01*
G01*
X165547800Y-41699200D01*
G75*
G02*
X165322800Y-41474200I0J225000D01*
G01*
X165322800Y-40974200D01*
G75*
G02*
X165547800Y-40749200I225000J0D01*
G01*
X165997800Y-40749200D01*
G75*
G02*
X166222800Y-40974200I0J-225000D01*
G01*
G37*
G36*
G01*
X167772800Y-40974200D02*
X167772800Y-41474200D01*
G75*
G02*
X167547800Y-41699200I-225000J0D01*
G01*
X167097800Y-41699200D01*
G75*
G02*
X166872800Y-41474200I0J225000D01*
G01*
X166872800Y-40974200D01*
G75*
G02*
X167097800Y-40749200I225000J0D01*
G01*
X167547800Y-40749200D01*
G75*
G02*
X167772800Y-40974200I0J-225000D01*
G01*
G37*
%TD*%
%TO.C,C4*%
G36*
G01*
X174442240Y-33854580D02*
X174442240Y-34354580D01*
G75*
G02*
X174217240Y-34579580I-225000J0D01*
G01*
X173767240Y-34579580D01*
G75*
G02*
X173542240Y-34354580I0J225000D01*
G01*
X173542240Y-33854580D01*
G75*
G02*
X173767240Y-33629580I225000J0D01*
G01*
X174217240Y-33629580D01*
G75*
G02*
X174442240Y-33854580I0J-225000D01*
G01*
G37*
G36*
G01*
X175992240Y-33854580D02*
X175992240Y-34354580D01*
G75*
G02*
X175767240Y-34579580I-225000J0D01*
G01*
X175317240Y-34579580D01*
G75*
G02*
X175092240Y-34354580I0J225000D01*
G01*
X175092240Y-33854580D01*
G75*
G02*
X175317240Y-33629580I225000J0D01*
G01*
X175767240Y-33629580D01*
G75*
G02*
X175992240Y-33854580I0J-225000D01*
G01*
G37*
%TD*%
%TO.C,C3*%
G36*
G01*
X186108033Y-53086187D02*
X186461587Y-52732633D01*
G75*
G02*
X186779785Y-52732633I159099J-159099D01*
G01*
X187097983Y-53050831D01*
G75*
G02*
X187097983Y-53369029I-159099J-159099D01*
G01*
X186744429Y-53722583D01*
G75*
G02*
X186426231Y-53722583I-159099J159099D01*
G01*
X186108033Y-53404385D01*
G75*
G02*
X186108033Y-53086187I159099J159099D01*
G01*
G37*
G36*
G01*
X185012017Y-51990171D02*
X185365571Y-51636617D01*
G75*
G02*
X185683769Y-51636617I159099J-159099D01*
G01*
X186001967Y-51954815D01*
G75*
G02*
X186001967Y-52273013I-159099J-159099D01*
G01*
X185648413Y-52626567D01*
G75*
G02*
X185330215Y-52626567I-159099J159099D01*
G01*
X185012017Y-52308369D01*
G75*
G02*
X185012017Y-51990171I159099J159099D01*
G01*
G37*
%TD*%
%TO.C,C2*%
G36*
G01*
X187581233Y-40792587D02*
X187934787Y-40439033D01*
G75*
G02*
X188252985Y-40439033I159099J-159099D01*
G01*
X188571183Y-40757231D01*
G75*
G02*
X188571183Y-41075429I-159099J-159099D01*
G01*
X188217629Y-41428983D01*
G75*
G02*
X187899431Y-41428983I-159099J159099D01*
G01*
X187581233Y-41110785D01*
G75*
G02*
X187581233Y-40792587I159099J159099D01*
G01*
G37*
G36*
G01*
X186485217Y-39696571D02*
X186838771Y-39343017D01*
G75*
G02*
X187156969Y-39343017I159099J-159099D01*
G01*
X187475167Y-39661215D01*
G75*
G02*
X187475167Y-39979413I-159099J-159099D01*
G01*
X187121613Y-40332967D01*
G75*
G02*
X186803415Y-40332967I-159099J159099D01*
G01*
X186485217Y-40014769D01*
G75*
G02*
X186485217Y-39696571I159099J159099D01*
G01*
G37*
%TD*%
%TO.C,Y1*%
G36*
G01*
X191622200Y-52428600D02*
X189022200Y-52428600D01*
G75*
G02*
X188922200Y-52328600I0J100000D01*
G01*
X188922200Y-52128600D01*
G75*
G02*
X189022200Y-52028600I100000J0D01*
G01*
X191622200Y-52028600D01*
G75*
G02*
X191722200Y-52128600I0J-100000D01*
G01*
X191722200Y-52328600D01*
G75*
G02*
X191622200Y-52428600I-100000J0D01*
G01*
G37*
G36*
G01*
X191622200Y-51228600D02*
X189022200Y-51228600D01*
G75*
G02*
X188922200Y-51128600I0J100000D01*
G01*
X188922200Y-50928600D01*
G75*
G02*
X189022200Y-50828600I100000J0D01*
G01*
X191622200Y-50828600D01*
G75*
G02*
X191722200Y-50928600I0J-100000D01*
G01*
X191722200Y-51128600D01*
G75*
G02*
X191622200Y-51228600I-100000J0D01*
G01*
G37*
G36*
G01*
X191622200Y-50028600D02*
X189022200Y-50028600D01*
G75*
G02*
X188922200Y-49928600I0J100000D01*
G01*
X188922200Y-49728600D01*
G75*
G02*
X189022200Y-49628600I100000J0D01*
G01*
X191622200Y-49628600D01*
G75*
G02*
X191722200Y-49728600I0J-100000D01*
G01*
X191722200Y-49928600D01*
G75*
G02*
X191622200Y-50028600I-100000J0D01*
G01*
G37*
%TD*%
D11*
%TO.C,U4*%
G36*
X171386876Y-43343704D02*
G01*
X170326216Y-42283044D01*
X170679770Y-41929490D01*
X171740430Y-42990150D01*
X171386876Y-43343704D01*
G37*
G36*
X171952561Y-42778019D02*
G01*
X170891901Y-41717359D01*
X171245455Y-41363805D01*
X172306115Y-42424465D01*
X171952561Y-42778019D01*
G37*
G36*
X172518247Y-42212333D02*
G01*
X171457587Y-41151673D01*
X171811141Y-40798119D01*
X172871801Y-41858779D01*
X172518247Y-42212333D01*
G37*
G36*
X173083932Y-41646648D02*
G01*
X172023272Y-40585988D01*
X172376826Y-40232434D01*
X173437486Y-41293094D01*
X173083932Y-41646648D01*
G37*
G36*
X173649618Y-41080962D02*
G01*
X172588958Y-40020302D01*
X172942512Y-39666748D01*
X174003172Y-40727408D01*
X173649618Y-41080962D01*
G37*
G36*
X174215303Y-40515277D02*
G01*
X173154643Y-39454617D01*
X173508197Y-39101063D01*
X174568857Y-40161723D01*
X174215303Y-40515277D01*
G37*
G36*
X174780988Y-39949592D02*
G01*
X173720328Y-38888932D01*
X174073882Y-38535378D01*
X175134542Y-39596038D01*
X174780988Y-39949592D01*
G37*
G36*
X175346674Y-39383906D02*
G01*
X174286014Y-38323246D01*
X174639568Y-37969692D01*
X175700228Y-39030352D01*
X175346674Y-39383906D01*
G37*
G36*
X175912359Y-38818221D02*
G01*
X174851699Y-37757561D01*
X175205253Y-37404007D01*
X176265913Y-38464667D01*
X175912359Y-38818221D01*
G37*
G36*
X176478045Y-38252535D02*
G01*
X175417385Y-37191875D01*
X175770939Y-36838321D01*
X176831599Y-37898981D01*
X176478045Y-38252535D01*
G37*
G36*
X177043730Y-37686850D02*
G01*
X175983070Y-36626190D01*
X176336624Y-36272636D01*
X177397284Y-37333296D01*
X177043730Y-37686850D01*
G37*
G36*
X179023630Y-37686850D02*
G01*
X178670076Y-37333296D01*
X179730736Y-36272636D01*
X180084290Y-36626190D01*
X179023630Y-37686850D01*
G37*
G36*
X179589315Y-38252535D02*
G01*
X179235761Y-37898981D01*
X180296421Y-36838321D01*
X180649975Y-37191875D01*
X179589315Y-38252535D01*
G37*
G36*
X180155001Y-38818221D02*
G01*
X179801447Y-38464667D01*
X180862107Y-37404007D01*
X181215661Y-37757561D01*
X180155001Y-38818221D01*
G37*
G36*
X180720686Y-39383906D02*
G01*
X180367132Y-39030352D01*
X181427792Y-37969692D01*
X181781346Y-38323246D01*
X180720686Y-39383906D01*
G37*
G36*
X181286372Y-39949592D02*
G01*
X180932818Y-39596038D01*
X181993478Y-38535378D01*
X182347032Y-38888932D01*
X181286372Y-39949592D01*
G37*
G36*
X181852057Y-40515277D02*
G01*
X181498503Y-40161723D01*
X182559163Y-39101063D01*
X182912717Y-39454617D01*
X181852057Y-40515277D01*
G37*
G36*
X182417742Y-41080962D02*
G01*
X182064188Y-40727408D01*
X183124848Y-39666748D01*
X183478402Y-40020302D01*
X182417742Y-41080962D01*
G37*
G36*
X182983428Y-41646648D02*
G01*
X182629874Y-41293094D01*
X183690534Y-40232434D01*
X184044088Y-40585988D01*
X182983428Y-41646648D01*
G37*
G36*
X183549113Y-42212333D02*
G01*
X183195559Y-41858779D01*
X184256219Y-40798119D01*
X184609773Y-41151673D01*
X183549113Y-42212333D01*
G37*
G36*
X184114799Y-42778019D02*
G01*
X183761245Y-42424465D01*
X184821905Y-41363805D01*
X185175459Y-41717359D01*
X184114799Y-42778019D01*
G37*
G36*
X184680484Y-43343704D02*
G01*
X184326930Y-42990150D01*
X185387590Y-41929490D01*
X185741144Y-42283044D01*
X184680484Y-43343704D01*
G37*
G36*
X185387590Y-46030710D02*
G01*
X184326930Y-44970050D01*
X184680484Y-44616496D01*
X185741144Y-45677156D01*
X185387590Y-46030710D01*
G37*
G36*
X184821905Y-46596395D02*
G01*
X183761245Y-45535735D01*
X184114799Y-45182181D01*
X185175459Y-46242841D01*
X184821905Y-46596395D01*
G37*
G36*
X184256219Y-47162081D02*
G01*
X183195559Y-46101421D01*
X183549113Y-45747867D01*
X184609773Y-46808527D01*
X184256219Y-47162081D01*
G37*
G36*
X183690534Y-47727766D02*
G01*
X182629874Y-46667106D01*
X182983428Y-46313552D01*
X184044088Y-47374212D01*
X183690534Y-47727766D01*
G37*
G36*
X183124848Y-48293452D02*
G01*
X182064188Y-47232792D01*
X182417742Y-46879238D01*
X183478402Y-47939898D01*
X183124848Y-48293452D01*
G37*
G36*
X182559163Y-48859137D02*
G01*
X181498503Y-47798477D01*
X181852057Y-47444923D01*
X182912717Y-48505583D01*
X182559163Y-48859137D01*
G37*
G36*
X181993478Y-49424822D02*
G01*
X180932818Y-48364162D01*
X181286372Y-48010608D01*
X182347032Y-49071268D01*
X181993478Y-49424822D01*
G37*
G36*
X181427792Y-49990508D02*
G01*
X180367132Y-48929848D01*
X180720686Y-48576294D01*
X181781346Y-49636954D01*
X181427792Y-49990508D01*
G37*
G36*
X180862107Y-50556193D02*
G01*
X179801447Y-49495533D01*
X180155001Y-49141979D01*
X181215661Y-50202639D01*
X180862107Y-50556193D01*
G37*
G36*
X180296421Y-51121879D02*
G01*
X179235761Y-50061219D01*
X179589315Y-49707665D01*
X180649975Y-50768325D01*
X180296421Y-51121879D01*
G37*
G36*
X179730736Y-51687564D02*
G01*
X178670076Y-50626904D01*
X179023630Y-50273350D01*
X180084290Y-51334010D01*
X179730736Y-51687564D01*
G37*
G36*
X176336624Y-51687564D02*
G01*
X175983070Y-51334010D01*
X177043730Y-50273350D01*
X177397284Y-50626904D01*
X176336624Y-51687564D01*
G37*
G36*
X175770939Y-51121879D02*
G01*
X175417385Y-50768325D01*
X176478045Y-49707665D01*
X176831599Y-50061219D01*
X175770939Y-51121879D01*
G37*
G36*
X175205253Y-50556193D02*
G01*
X174851699Y-50202639D01*
X175912359Y-49141979D01*
X176265913Y-49495533D01*
X175205253Y-50556193D01*
G37*
G36*
X174639568Y-49990508D02*
G01*
X174286014Y-49636954D01*
X175346674Y-48576294D01*
X175700228Y-48929848D01*
X174639568Y-49990508D01*
G37*
G36*
X174073882Y-49424822D02*
G01*
X173720328Y-49071268D01*
X174780988Y-48010608D01*
X175134542Y-48364162D01*
X174073882Y-49424822D01*
G37*
G36*
X173508197Y-48859137D02*
G01*
X173154643Y-48505583D01*
X174215303Y-47444923D01*
X174568857Y-47798477D01*
X173508197Y-48859137D01*
G37*
G36*
X172942512Y-48293452D02*
G01*
X172588958Y-47939898D01*
X173649618Y-46879238D01*
X174003172Y-47232792D01*
X172942512Y-48293452D01*
G37*
G36*
X172376826Y-47727766D02*
G01*
X172023272Y-47374212D01*
X173083932Y-46313552D01*
X173437486Y-46667106D01*
X172376826Y-47727766D01*
G37*
G36*
X171811141Y-47162081D02*
G01*
X171457587Y-46808527D01*
X172518247Y-45747867D01*
X172871801Y-46101421D01*
X171811141Y-47162081D01*
G37*
G36*
X171245455Y-46596395D02*
G01*
X170891901Y-46242841D01*
X171952561Y-45182181D01*
X172306115Y-45535735D01*
X171245455Y-46596395D01*
G37*
G36*
X170679770Y-46030710D02*
G01*
X170326216Y-45677156D01*
X171386876Y-44616496D01*
X171740430Y-44970050D01*
X170679770Y-46030710D01*
G37*
%TD*%
D12*
%TO.C,SW1*%
X197704320Y-51601300D03*
X194004320Y-45401300D03*
X194004320Y-51601300D03*
X197704320Y-45401300D03*
%TD*%
%TO.C,R6*%
G36*
G01*
X182353400Y-35132600D02*
X182353400Y-35682600D01*
G75*
G02*
X182153400Y-35882600I-200000J0D01*
G01*
X181753400Y-35882600D01*
G75*
G02*
X181553400Y-35682600I0J200000D01*
G01*
X181553400Y-35132600D01*
G75*
G02*
X181753400Y-34932600I200000J0D01*
G01*
X182153400Y-34932600D01*
G75*
G02*
X182353400Y-35132600I0J-200000D01*
G01*
G37*
G36*
G01*
X184003400Y-35132600D02*
X184003400Y-35682600D01*
G75*
G02*
X183803400Y-35882600I-200000J0D01*
G01*
X183403400Y-35882600D01*
G75*
G02*
X183203400Y-35682600I0J200000D01*
G01*
X183203400Y-35132600D01*
G75*
G02*
X183403400Y-34932600I200000J0D01*
G01*
X183803400Y-34932600D01*
G75*
G02*
X184003400Y-35132600I0J-200000D01*
G01*
G37*
%TD*%
%TO.C,R5*%
G36*
G01*
X166884800Y-46588000D02*
X166884800Y-47138000D01*
G75*
G02*
X166684800Y-47338000I-200000J0D01*
G01*
X166284800Y-47338000D01*
G75*
G02*
X166084800Y-47138000I0J200000D01*
G01*
X166084800Y-46588000D01*
G75*
G02*
X166284800Y-46388000I200000J0D01*
G01*
X166684800Y-46388000D01*
G75*
G02*
X166884800Y-46588000I0J-200000D01*
G01*
G37*
G36*
G01*
X168534800Y-46588000D02*
X168534800Y-47138000D01*
G75*
G02*
X168334800Y-47338000I-200000J0D01*
G01*
X167934800Y-47338000D01*
G75*
G02*
X167734800Y-47138000I0J200000D01*
G01*
X167734800Y-46588000D01*
G75*
G02*
X167934800Y-46388000I200000J0D01*
G01*
X168334800Y-46388000D01*
G75*
G02*
X168534800Y-46588000I0J-200000D01*
G01*
G37*
%TD*%
%TO.C,R4*%
G36*
G01*
X167900800Y-48213600D02*
X167900800Y-48763600D01*
G75*
G02*
X167700800Y-48963600I-200000J0D01*
G01*
X167300800Y-48963600D01*
G75*
G02*
X167100800Y-48763600I0J200000D01*
G01*
X167100800Y-48213600D01*
G75*
G02*
X167300800Y-48013600I200000J0D01*
G01*
X167700800Y-48013600D01*
G75*
G02*
X167900800Y-48213600I0J-200000D01*
G01*
G37*
G36*
G01*
X169550800Y-48213600D02*
X169550800Y-48763600D01*
G75*
G02*
X169350800Y-48963600I-200000J0D01*
G01*
X168950800Y-48963600D01*
G75*
G02*
X168750800Y-48763600I0J200000D01*
G01*
X168750800Y-48213600D01*
G75*
G02*
X168950800Y-48013600I200000J0D01*
G01*
X169350800Y-48013600D01*
G75*
G02*
X169550800Y-48213600I0J-200000D01*
G01*
G37*
%TD*%
%TO.C,R2*%
G36*
G01*
X101483816Y-42341475D02*
X101872725Y-41952566D01*
G75*
G02*
X102155567Y-41952566I141421J-141421D01*
G01*
X102438410Y-42235409D01*
G75*
G02*
X102438410Y-42518251I-141421J-141421D01*
G01*
X102049501Y-42907160D01*
G75*
G02*
X101766659Y-42907160I-141421J141421D01*
G01*
X101483816Y-42624317D01*
G75*
G02*
X101483816Y-42341475I141421J141421D01*
G01*
G37*
G36*
G01*
X100317090Y-41174749D02*
X100705999Y-40785840D01*
G75*
G02*
X100988841Y-40785840I141421J-141421D01*
G01*
X101271684Y-41068683D01*
G75*
G02*
X101271684Y-41351525I-141421J-141421D01*
G01*
X100882775Y-41740434D01*
G75*
G02*
X100599933Y-41740434I-141421J141421D01*
G01*
X100317090Y-41457591D01*
G75*
G02*
X100317090Y-41174749I141421J141421D01*
G01*
G37*
%TD*%
%TO.C,R1*%
G36*
G01*
X104658816Y-41071475D02*
X105047725Y-40682566D01*
G75*
G02*
X105330567Y-40682566I141421J-141421D01*
G01*
X105613410Y-40965409D01*
G75*
G02*
X105613410Y-41248251I-141421J-141421D01*
G01*
X105224501Y-41637160D01*
G75*
G02*
X104941659Y-41637160I-141421J141421D01*
G01*
X104658816Y-41354317D01*
G75*
G02*
X104658816Y-41071475I141421J141421D01*
G01*
G37*
G36*
G01*
X103492090Y-39904749D02*
X103880999Y-39515840D01*
G75*
G02*
X104163841Y-39515840I141421J-141421D01*
G01*
X104446684Y-39798683D01*
G75*
G02*
X104446684Y-40081525I-141421J-141421D01*
G01*
X104057775Y-40470434D01*
G75*
G02*
X103774933Y-40470434I-141421J141421D01*
G01*
X103492090Y-40187591D01*
G75*
G02*
X103492090Y-39904749I141421J141421D01*
G01*
G37*
%TD*%
%TO.C,C1*%
G36*
G01*
X170007400Y-49864200D02*
X170007400Y-50364200D01*
G75*
G02*
X169782400Y-50589200I-225000J0D01*
G01*
X169332400Y-50589200D01*
G75*
G02*
X169107400Y-50364200I0J225000D01*
G01*
X169107400Y-49864200D01*
G75*
G02*
X169332400Y-49639200I225000J0D01*
G01*
X169782400Y-49639200D01*
G75*
G02*
X170007400Y-49864200I0J-225000D01*
G01*
G37*
G36*
G01*
X171557400Y-49864200D02*
X171557400Y-50364200D01*
G75*
G02*
X171332400Y-50589200I-225000J0D01*
G01*
X170882400Y-50589200D01*
G75*
G02*
X170657400Y-50364200I0J225000D01*
G01*
X170657400Y-49864200D01*
G75*
G02*
X170882400Y-49639200I225000J0D01*
G01*
X171332400Y-49639200D01*
G75*
G02*
X171557400Y-49864200I0J-225000D01*
G01*
G37*
%TD*%
M02*
