%TF.GenerationSoftware,KiCad,Pcbnew,(5.1.9)-1*%
%TF.CreationDate,2021-02-19T15:09:25+09:00*%
%TF.ProjectId,ErgoDOX,4572676f-444f-4582-9e6b-696361645f70,rev?*%
%TF.SameCoordinates,Original*%
%TF.FileFunction,Soldermask,Top*%
%TF.FilePolarity,Negative*%
%FSLAX46Y46*%
G04 Gerber Fmt 4.6, Leading zero omitted, Abs format (unit mm)*
G04 Created by KiCad (PCBNEW (5.1.9)-1) date 2021-02-19 15:09:25*
%MOMM*%
%LPD*%
G01*
G04 APERTURE LIST*
%ADD10C,2.156400*%
%ADD11C,3.406400*%
%ADD12C,4.394200*%
%ADD13C,5.867400*%
%ADD14O,1.549400X2.057400*%
%ADD15O,2.108200X3.200400*%
%ADD16C,2.057400*%
%ADD17C,1.397000*%
%ADD18C,2.159000*%
%ADD19O,2.463800X2.159000*%
%ADD20C,3.454400*%
G04 APERTURE END LIST*
D10*
%TO.C,SW2:11*%
X152812750Y-121231660D03*
X142652750Y-121231660D03*
D11*
X143922750Y-118691660D03*
D12*
X147732750Y-121231660D03*
D11*
X150272750Y-116151660D03*
%TD*%
D10*
%TO.C,SW5:7*%
X76612750Y-65354200D03*
X66452750Y-65354200D03*
D11*
X67722750Y-62814200D03*
D12*
X71532750Y-65354200D03*
D11*
X74072750Y-60274200D03*
%TD*%
D13*
%TO.C,H99*%
X66554350Y-37384990D03*
X117354350Y-37384990D03*
X200285350Y-37384990D03*
X138182350Y-91842590D03*
X200920350Y-140305790D03*
X104578150Y-158009590D03*
X58807350Y-121916190D03*
X53041550Y-166086790D03*
%TD*%
D14*
%TO.C,J1*%
X138381740Y-37807900D03*
X137581640Y-36060380D03*
X136781540Y-37807900D03*
X135981440Y-36060380D03*
X135181340Y-37807900D03*
D15*
X133134100Y-32484060D03*
X140428980Y-32484060D03*
D16*
X139194540Y-40513000D03*
X142496540Y-34671000D03*
X136781540Y-40513000D03*
X131066540Y-34671000D03*
X134368540Y-40513000D03*
%TD*%
%TO.C,R3*%
G36*
G01*
X182329867Y-52976540D02*
X182862460Y-53509133D01*
G75*
G02*
X182862460Y-53935659I-213263J-213263D01*
G01*
X182435933Y-54362186D01*
G75*
G02*
X182009407Y-54362186I-213263J213263D01*
G01*
X181476814Y-53829593D01*
G75*
G02*
X181476814Y-53403067I213263J213263D01*
G01*
X181903341Y-52976540D01*
G75*
G02*
X182329867Y-52976540I213263J-213263D01*
G01*
G37*
G36*
G01*
X183496593Y-51809814D02*
X184029186Y-52342407D01*
G75*
G02*
X184029186Y-52768933I-213263J-213263D01*
G01*
X183602659Y-53195460D01*
G75*
G02*
X183176133Y-53195460I-213263J213263D01*
G01*
X182643540Y-52662867D01*
G75*
G02*
X182643540Y-52236341I213263J213263D01*
G01*
X183070067Y-51809814D01*
G75*
G02*
X183496593Y-51809814I213263J-213263D01*
G01*
G37*
%TD*%
D10*
%TO.C,SW1:13*%
X190912750Y-143456660D03*
X180752750Y-143456660D03*
D11*
X182022750Y-140916660D03*
D12*
X185832750Y-143456660D03*
D11*
X188372750Y-138376660D03*
%TD*%
D10*
%TO.C,SW3:132*%
X185826400Y-100279200D03*
X185826400Y-110439200D03*
D11*
X183286400Y-109169200D03*
D12*
X185826400Y-105359200D03*
D11*
X180746400Y-102819200D03*
%TD*%
D10*
%TO.C,SW3:10*%
X133762750Y-100584000D03*
X123602750Y-100584000D03*
D11*
X124872750Y-98044000D03*
D12*
X128682750Y-100584000D03*
D11*
X131222750Y-95504000D03*
%TD*%
D10*
%TO.C,SW3:8*%
X95662750Y-103451660D03*
X85502750Y-103451660D03*
D11*
X86772750Y-100911660D03*
D12*
X90582750Y-103451660D03*
D11*
X93122750Y-98371660D03*
%TD*%
D10*
%TO.C,SW4:12*%
X171862750Y-86306660D03*
X161702750Y-86306660D03*
D11*
X162972750Y-83766660D03*
D12*
X166782750Y-86306660D03*
D11*
X169322750Y-81226660D03*
%TD*%
D16*
%TO.C,RC1*%
X119475251Y-47244000D03*
X129635249Y-47244000D03*
%TD*%
%TO.C,RB1*%
X142549338Y-47343602D03*
X149733542Y-40159398D03*
%TD*%
%TO.C,RA1*%
X144454338Y-49248602D03*
X151638542Y-42064398D03*
%TD*%
%TO.C,LED_C1*%
G36*
G01*
X77438250Y-117497860D02*
X75787250Y-117497860D01*
G75*
G02*
X75584050Y-117294660I0J203200D01*
G01*
X75584050Y-115643660D01*
G75*
G02*
X75787250Y-115440460I203200J0D01*
G01*
X77438250Y-115440460D01*
G75*
G02*
X77641450Y-115643660I0J-203200D01*
G01*
X77641450Y-117294660D01*
G75*
G02*
X77438250Y-117497860I-203200J0D01*
G01*
G37*
X76612750Y-119009160D03*
%TD*%
%TO.C,LED_B1*%
G36*
G01*
X77438250Y-88922860D02*
X75787250Y-88922860D01*
G75*
G02*
X75584050Y-88719660I0J203200D01*
G01*
X75584050Y-87068660D01*
G75*
G02*
X75787250Y-86865460I203200J0D01*
G01*
X77438250Y-86865460D01*
G75*
G02*
X77641450Y-87068660I0J-203200D01*
G01*
X77641450Y-88719660D01*
G75*
G02*
X77438250Y-88922860I-203200J0D01*
G01*
G37*
X76612750Y-90434160D03*
%TD*%
%TO.C,LED_A1*%
G36*
G01*
X71774050Y-71259700D02*
X71774050Y-69608700D01*
G75*
G02*
X71977250Y-69405500I203200J0D01*
G01*
X73628250Y-69405500D01*
G75*
G02*
X73831450Y-69608700I0J-203200D01*
G01*
X73831450Y-71259700D01*
G75*
G02*
X73628250Y-71462900I-203200J0D01*
G01*
X71977250Y-71462900D01*
G75*
G02*
X71774050Y-71259700I0J203200D01*
G01*
G37*
X70262750Y-70434200D03*
%TD*%
D17*
%TO.C,J2*%
X85448140Y-38633400D03*
X85448140Y-33629600D03*
D18*
X89054940Y-38633400D03*
X83847940Y-41732200D03*
D19*
X80799940Y-33629600D03*
D18*
X87048340Y-41732200D03*
X81841340Y-38633400D03*
D19*
X90096340Y-33629600D03*
%TD*%
D14*
%TO.C,J1*%
X276040850Y-37807900D03*
X276840950Y-36060380D03*
X277641050Y-37807900D03*
X278441150Y-36060380D03*
X279241250Y-37807900D03*
D15*
X281288490Y-32484060D03*
X273993610Y-32484060D03*
D16*
X275228050Y-40513000D03*
X271926050Y-34671000D03*
X277641050Y-40513000D03*
X283356050Y-34671000D03*
X280054050Y-40513000D03*
%TD*%
%TO.C,LED_B2*%
G36*
G01*
X338645500Y-88912700D02*
X336994500Y-88912700D01*
G75*
G02*
X336791300Y-88709500I0J203200D01*
G01*
X336791300Y-87058500D01*
G75*
G02*
X336994500Y-86855300I203200J0D01*
G01*
X338645500Y-86855300D01*
G75*
G02*
X338848700Y-87058500I0J-203200D01*
G01*
X338848700Y-88709500D01*
G75*
G02*
X338645500Y-88912700I-203200J0D01*
G01*
G37*
X337820000Y-90424000D03*
%TD*%
%TO.C,LED_A2*%
G36*
G01*
X342658700Y-69608700D02*
X342658700Y-71259700D01*
G75*
G02*
X342455500Y-71462900I-203200J0D01*
G01*
X340804500Y-71462900D01*
G75*
G02*
X340601300Y-71259700I0J203200D01*
G01*
X340601300Y-69608700D01*
G75*
G02*
X340804500Y-69405500I203200J0D01*
G01*
X342455500Y-69405500D01*
G75*
G02*
X342658700Y-69608700I0J-203200D01*
G01*
G37*
X344170000Y-70434200D03*
%TD*%
%TO.C,RB2*%
X271881600Y-47345600D03*
X264697396Y-40161396D03*
%TD*%
%TO.C,RA2*%
X268107702Y-48042102D03*
X260923498Y-40857898D03*
%TD*%
D17*
%TO.C,J3*%
X328980800Y-38633400D03*
X328980800Y-33629600D03*
D18*
X332587600Y-38633400D03*
X327380600Y-41732200D03*
D19*
X324332600Y-33629600D03*
D18*
X330581000Y-41732200D03*
X325374000Y-38633400D03*
D19*
X333629000Y-33629600D03*
%TD*%
%TO.C,U1*%
G36*
G01*
X223954400Y-53370200D02*
X223954400Y-53970200D01*
G75*
G02*
X223751200Y-54173400I-203200J0D01*
G01*
X221851200Y-54173400D01*
G75*
G02*
X221648000Y-53970200I0J203200D01*
G01*
X221648000Y-53370200D01*
G75*
G02*
X221851200Y-53167000I203200J0D01*
G01*
X223751200Y-53167000D01*
G75*
G02*
X223954400Y-53370200I0J-203200D01*
G01*
G37*
G36*
G01*
X223954400Y-52100200D02*
X223954400Y-52700200D01*
G75*
G02*
X223751200Y-52903400I-203200J0D01*
G01*
X221851200Y-52903400D01*
G75*
G02*
X221648000Y-52700200I0J203200D01*
G01*
X221648000Y-52100200D01*
G75*
G02*
X221851200Y-51897000I203200J0D01*
G01*
X223751200Y-51897000D01*
G75*
G02*
X223954400Y-52100200I0J-203200D01*
G01*
G37*
G36*
G01*
X223954400Y-50830200D02*
X223954400Y-51430200D01*
G75*
G02*
X223751200Y-51633400I-203200J0D01*
G01*
X221851200Y-51633400D01*
G75*
G02*
X221648000Y-51430200I0J203200D01*
G01*
X221648000Y-50830200D01*
G75*
G02*
X221851200Y-50627000I203200J0D01*
G01*
X223751200Y-50627000D01*
G75*
G02*
X223954400Y-50830200I0J-203200D01*
G01*
G37*
G36*
G01*
X223954400Y-49560200D02*
X223954400Y-50160200D01*
G75*
G02*
X223751200Y-50363400I-203200J0D01*
G01*
X221851200Y-50363400D01*
G75*
G02*
X221648000Y-50160200I0J203200D01*
G01*
X221648000Y-49560200D01*
G75*
G02*
X221851200Y-49357000I203200J0D01*
G01*
X223751200Y-49357000D01*
G75*
G02*
X223954400Y-49560200I0J-203200D01*
G01*
G37*
G36*
G01*
X223954400Y-48290200D02*
X223954400Y-48890200D01*
G75*
G02*
X223751200Y-49093400I-203200J0D01*
G01*
X221851200Y-49093400D01*
G75*
G02*
X221648000Y-48890200I0J203200D01*
G01*
X221648000Y-48290200D01*
G75*
G02*
X221851200Y-48087000I203200J0D01*
G01*
X223751200Y-48087000D01*
G75*
G02*
X223954400Y-48290200I0J-203200D01*
G01*
G37*
G36*
G01*
X223954400Y-47020200D02*
X223954400Y-47620200D01*
G75*
G02*
X223751200Y-47823400I-203200J0D01*
G01*
X221851200Y-47823400D01*
G75*
G02*
X221648000Y-47620200I0J203200D01*
G01*
X221648000Y-47020200D01*
G75*
G02*
X221851200Y-46817000I203200J0D01*
G01*
X223751200Y-46817000D01*
G75*
G02*
X223954400Y-47020200I0J-203200D01*
G01*
G37*
G36*
G01*
X223954400Y-45750200D02*
X223954400Y-46350200D01*
G75*
G02*
X223751200Y-46553400I-203200J0D01*
G01*
X221851200Y-46553400D01*
G75*
G02*
X221648000Y-46350200I0J203200D01*
G01*
X221648000Y-45750200D01*
G75*
G02*
X221851200Y-45547000I203200J0D01*
G01*
X223751200Y-45547000D01*
G75*
G02*
X223954400Y-45750200I0J-203200D01*
G01*
G37*
G36*
G01*
X223954400Y-44480200D02*
X223954400Y-45080200D01*
G75*
G02*
X223751200Y-45283400I-203200J0D01*
G01*
X221851200Y-45283400D01*
G75*
G02*
X221648000Y-45080200I0J203200D01*
G01*
X221648000Y-44480200D01*
G75*
G02*
X221851200Y-44277000I203200J0D01*
G01*
X223751200Y-44277000D01*
G75*
G02*
X223954400Y-44480200I0J-203200D01*
G01*
G37*
G36*
G01*
X223954400Y-43210200D02*
X223954400Y-43810200D01*
G75*
G02*
X223751200Y-44013400I-203200J0D01*
G01*
X221851200Y-44013400D01*
G75*
G02*
X221648000Y-43810200I0J203200D01*
G01*
X221648000Y-43210200D01*
G75*
G02*
X221851200Y-43007000I203200J0D01*
G01*
X223751200Y-43007000D01*
G75*
G02*
X223954400Y-43210200I0J-203200D01*
G01*
G37*
G36*
G01*
X223954400Y-41940200D02*
X223954400Y-42540200D01*
G75*
G02*
X223751200Y-42743400I-203200J0D01*
G01*
X221851200Y-42743400D01*
G75*
G02*
X221648000Y-42540200I0J203200D01*
G01*
X221648000Y-41940200D01*
G75*
G02*
X221851200Y-41737000I203200J0D01*
G01*
X223751200Y-41737000D01*
G75*
G02*
X223954400Y-41940200I0J-203200D01*
G01*
G37*
G36*
G01*
X223954400Y-40670200D02*
X223954400Y-41270200D01*
G75*
G02*
X223751200Y-41473400I-203200J0D01*
G01*
X221851200Y-41473400D01*
G75*
G02*
X221648000Y-41270200I0J203200D01*
G01*
X221648000Y-40670200D01*
G75*
G02*
X221851200Y-40467000I203200J0D01*
G01*
X223751200Y-40467000D01*
G75*
G02*
X223954400Y-40670200I0J-203200D01*
G01*
G37*
G36*
G01*
X223954400Y-39400200D02*
X223954400Y-40000200D01*
G75*
G02*
X223751200Y-40203400I-203200J0D01*
G01*
X221851200Y-40203400D01*
G75*
G02*
X221648000Y-40000200I0J203200D01*
G01*
X221648000Y-39400200D01*
G75*
G02*
X221851200Y-39197000I203200J0D01*
G01*
X223751200Y-39197000D01*
G75*
G02*
X223954400Y-39400200I0J-203200D01*
G01*
G37*
G36*
G01*
X223954400Y-38130200D02*
X223954400Y-38730200D01*
G75*
G02*
X223751200Y-38933400I-203200J0D01*
G01*
X221851200Y-38933400D01*
G75*
G02*
X221648000Y-38730200I0J203200D01*
G01*
X221648000Y-38130200D01*
G75*
G02*
X221851200Y-37927000I203200J0D01*
G01*
X223751200Y-37927000D01*
G75*
G02*
X223954400Y-38130200I0J-203200D01*
G01*
G37*
G36*
G01*
X223954400Y-36860200D02*
X223954400Y-37460200D01*
G75*
G02*
X223751200Y-37663400I-203200J0D01*
G01*
X221851200Y-37663400D01*
G75*
G02*
X221648000Y-37460200I0J203200D01*
G01*
X221648000Y-36860200D01*
G75*
G02*
X221851200Y-36657000I203200J0D01*
G01*
X223751200Y-36657000D01*
G75*
G02*
X223954400Y-36860200I0J-203200D01*
G01*
G37*
G36*
G01*
X233164400Y-36860200D02*
X233164400Y-37460200D01*
G75*
G02*
X232961200Y-37663400I-203200J0D01*
G01*
X231061200Y-37663400D01*
G75*
G02*
X230858000Y-37460200I0J203200D01*
G01*
X230858000Y-36860200D01*
G75*
G02*
X231061200Y-36657000I203200J0D01*
G01*
X232961200Y-36657000D01*
G75*
G02*
X233164400Y-36860200I0J-203200D01*
G01*
G37*
G36*
G01*
X233164400Y-38130200D02*
X233164400Y-38730200D01*
G75*
G02*
X232961200Y-38933400I-203200J0D01*
G01*
X231061200Y-38933400D01*
G75*
G02*
X230858000Y-38730200I0J203200D01*
G01*
X230858000Y-38130200D01*
G75*
G02*
X231061200Y-37927000I203200J0D01*
G01*
X232961200Y-37927000D01*
G75*
G02*
X233164400Y-38130200I0J-203200D01*
G01*
G37*
G36*
G01*
X233164400Y-39400200D02*
X233164400Y-40000200D01*
G75*
G02*
X232961200Y-40203400I-203200J0D01*
G01*
X231061200Y-40203400D01*
G75*
G02*
X230858000Y-40000200I0J203200D01*
G01*
X230858000Y-39400200D01*
G75*
G02*
X231061200Y-39197000I203200J0D01*
G01*
X232961200Y-39197000D01*
G75*
G02*
X233164400Y-39400200I0J-203200D01*
G01*
G37*
G36*
G01*
X233164400Y-40670200D02*
X233164400Y-41270200D01*
G75*
G02*
X232961200Y-41473400I-203200J0D01*
G01*
X231061200Y-41473400D01*
G75*
G02*
X230858000Y-41270200I0J203200D01*
G01*
X230858000Y-40670200D01*
G75*
G02*
X231061200Y-40467000I203200J0D01*
G01*
X232961200Y-40467000D01*
G75*
G02*
X233164400Y-40670200I0J-203200D01*
G01*
G37*
G36*
G01*
X233164400Y-41940200D02*
X233164400Y-42540200D01*
G75*
G02*
X232961200Y-42743400I-203200J0D01*
G01*
X231061200Y-42743400D01*
G75*
G02*
X230858000Y-42540200I0J203200D01*
G01*
X230858000Y-41940200D01*
G75*
G02*
X231061200Y-41737000I203200J0D01*
G01*
X232961200Y-41737000D01*
G75*
G02*
X233164400Y-41940200I0J-203200D01*
G01*
G37*
G36*
G01*
X233164400Y-43210200D02*
X233164400Y-43810200D01*
G75*
G02*
X232961200Y-44013400I-203200J0D01*
G01*
X231061200Y-44013400D01*
G75*
G02*
X230858000Y-43810200I0J203200D01*
G01*
X230858000Y-43210200D01*
G75*
G02*
X231061200Y-43007000I203200J0D01*
G01*
X232961200Y-43007000D01*
G75*
G02*
X233164400Y-43210200I0J-203200D01*
G01*
G37*
G36*
G01*
X233164400Y-44480200D02*
X233164400Y-45080200D01*
G75*
G02*
X232961200Y-45283400I-203200J0D01*
G01*
X231061200Y-45283400D01*
G75*
G02*
X230858000Y-45080200I0J203200D01*
G01*
X230858000Y-44480200D01*
G75*
G02*
X231061200Y-44277000I203200J0D01*
G01*
X232961200Y-44277000D01*
G75*
G02*
X233164400Y-44480200I0J-203200D01*
G01*
G37*
G36*
G01*
X233164400Y-45750200D02*
X233164400Y-46350200D01*
G75*
G02*
X232961200Y-46553400I-203200J0D01*
G01*
X231061200Y-46553400D01*
G75*
G02*
X230858000Y-46350200I0J203200D01*
G01*
X230858000Y-45750200D01*
G75*
G02*
X231061200Y-45547000I203200J0D01*
G01*
X232961200Y-45547000D01*
G75*
G02*
X233164400Y-45750200I0J-203200D01*
G01*
G37*
G36*
G01*
X233164400Y-47020200D02*
X233164400Y-47620200D01*
G75*
G02*
X232961200Y-47823400I-203200J0D01*
G01*
X231061200Y-47823400D01*
G75*
G02*
X230858000Y-47620200I0J203200D01*
G01*
X230858000Y-47020200D01*
G75*
G02*
X231061200Y-46817000I203200J0D01*
G01*
X232961200Y-46817000D01*
G75*
G02*
X233164400Y-47020200I0J-203200D01*
G01*
G37*
G36*
G01*
X233164400Y-48290200D02*
X233164400Y-48890200D01*
G75*
G02*
X232961200Y-49093400I-203200J0D01*
G01*
X231061200Y-49093400D01*
G75*
G02*
X230858000Y-48890200I0J203200D01*
G01*
X230858000Y-48290200D01*
G75*
G02*
X231061200Y-48087000I203200J0D01*
G01*
X232961200Y-48087000D01*
G75*
G02*
X233164400Y-48290200I0J-203200D01*
G01*
G37*
G36*
G01*
X233164400Y-49560200D02*
X233164400Y-50160200D01*
G75*
G02*
X232961200Y-50363400I-203200J0D01*
G01*
X231061200Y-50363400D01*
G75*
G02*
X230858000Y-50160200I0J203200D01*
G01*
X230858000Y-49560200D01*
G75*
G02*
X231061200Y-49357000I203200J0D01*
G01*
X232961200Y-49357000D01*
G75*
G02*
X233164400Y-49560200I0J-203200D01*
G01*
G37*
G36*
G01*
X233164400Y-50830200D02*
X233164400Y-51430200D01*
G75*
G02*
X232961200Y-51633400I-203200J0D01*
G01*
X231061200Y-51633400D01*
G75*
G02*
X230858000Y-51430200I0J203200D01*
G01*
X230858000Y-50830200D01*
G75*
G02*
X231061200Y-50627000I203200J0D01*
G01*
X232961200Y-50627000D01*
G75*
G02*
X233164400Y-50830200I0J-203200D01*
G01*
G37*
G36*
G01*
X233164400Y-52100200D02*
X233164400Y-52700200D01*
G75*
G02*
X232961200Y-52903400I-203200J0D01*
G01*
X231061200Y-52903400D01*
G75*
G02*
X230858000Y-52700200I0J203200D01*
G01*
X230858000Y-52100200D01*
G75*
G02*
X231061200Y-51897000I203200J0D01*
G01*
X232961200Y-51897000D01*
G75*
G02*
X233164400Y-52100200I0J-203200D01*
G01*
G37*
G36*
G01*
X233164400Y-53370200D02*
X233164400Y-53970200D01*
G75*
G02*
X232961200Y-54173400I-203200J0D01*
G01*
X231061200Y-54173400D01*
G75*
G02*
X230858000Y-53970200I0J203200D01*
G01*
X230858000Y-53370200D01*
G75*
G02*
X231061200Y-53167000I203200J0D01*
G01*
X232961200Y-53167000D01*
G75*
G02*
X233164400Y-53370200I0J-203200D01*
G01*
G37*
%TD*%
D10*
%TO.C,SX0:2*%
X349364901Y-165398156D03*
X345071099Y-174606244D03*
D11*
X343305803Y-172381782D03*
D12*
X347218000Y-170002200D03*
D11*
X343687407Y-165553277D03*
%TD*%
D10*
%TO.C,SW4:6*%
X342900000Y-94259400D03*
X342900000Y-84099400D03*
D11*
X345440000Y-85369400D03*
D12*
X342900000Y-89179400D03*
D11*
X347980000Y-91719400D03*
%TD*%
D10*
%TO.C,SW5:4*%
X309880000Y-64084200D03*
X299720000Y-64084200D03*
D11*
X300990000Y-61544200D03*
D12*
X304800000Y-64084200D03*
D11*
X307340000Y-59004200D03*
%TD*%
D10*
%TO.C,SW2:2*%
X271780000Y-121234200D03*
X261620000Y-121234200D03*
D11*
X262890000Y-118694200D03*
D12*
X266700000Y-121234200D03*
D11*
X269240000Y-116154200D03*
%TD*%
D10*
%TO.C,SW5:2*%
X271780000Y-64084200D03*
X261620000Y-64084200D03*
D11*
X262890000Y-61544200D03*
D12*
X266700000Y-64084200D03*
D11*
X269240000Y-59004200D03*
%TD*%
D10*
%TO.C,SW1:1*%
X252730000Y-143459200D03*
X242570000Y-143459200D03*
D11*
X243840000Y-140919200D03*
D12*
X247650000Y-143459200D03*
D11*
X250190000Y-138379200D03*
%TD*%
%TO.C,C5*%
G36*
G01*
X166426000Y-40872600D02*
X166426000Y-41575800D01*
G75*
G02*
X166099400Y-41902400I-326600J0D01*
G01*
X165446200Y-41902400D01*
G75*
G02*
X165119600Y-41575800I0J326600D01*
G01*
X165119600Y-40872600D01*
G75*
G02*
X165446200Y-40546000I326600J0D01*
G01*
X166099400Y-40546000D01*
G75*
G02*
X166426000Y-40872600I0J-326600D01*
G01*
G37*
G36*
G01*
X167976000Y-40872600D02*
X167976000Y-41575800D01*
G75*
G02*
X167649400Y-41902400I-326600J0D01*
G01*
X166996200Y-41902400D01*
G75*
G02*
X166669600Y-41575800I0J326600D01*
G01*
X166669600Y-40872600D01*
G75*
G02*
X166996200Y-40546000I326600J0D01*
G01*
X167649400Y-40546000D01*
G75*
G02*
X167976000Y-40872600I0J-326600D01*
G01*
G37*
%TD*%
%TO.C,C4*%
G36*
G01*
X174645440Y-33752980D02*
X174645440Y-34456180D01*
G75*
G02*
X174318840Y-34782780I-326600J0D01*
G01*
X173665640Y-34782780D01*
G75*
G02*
X173339040Y-34456180I0J326600D01*
G01*
X173339040Y-33752980D01*
G75*
G02*
X173665640Y-33426380I326600J0D01*
G01*
X174318840Y-33426380D01*
G75*
G02*
X174645440Y-33752980I0J-326600D01*
G01*
G37*
G36*
G01*
X176195440Y-33752980D02*
X176195440Y-34456180D01*
G75*
G02*
X175868840Y-34782780I-326600J0D01*
G01*
X175215640Y-34782780D01*
G75*
G02*
X174889040Y-34456180I0J326600D01*
G01*
X174889040Y-33752980D01*
G75*
G02*
X175215640Y-33426380I326600J0D01*
G01*
X175868840Y-33426380D01*
G75*
G02*
X176195440Y-33752980I0J-326600D01*
G01*
G37*
%TD*%
%TO.C,C3*%
G36*
G01*
X185892507Y-53014345D02*
X186389745Y-52517107D01*
G75*
G02*
X186851627Y-52517107I230941J-230941D01*
G01*
X187313509Y-52978989D01*
G75*
G02*
X187313509Y-53440871I-230941J-230941D01*
G01*
X186816271Y-53938109D01*
G75*
G02*
X186354389Y-53938109I-230941J230941D01*
G01*
X185892507Y-53476227D01*
G75*
G02*
X185892507Y-53014345I230941J230941D01*
G01*
G37*
G36*
G01*
X184796491Y-51918329D02*
X185293729Y-51421091D01*
G75*
G02*
X185755611Y-51421091I230941J-230941D01*
G01*
X186217493Y-51882973D01*
G75*
G02*
X186217493Y-52344855I-230941J-230941D01*
G01*
X185720255Y-52842093D01*
G75*
G02*
X185258373Y-52842093I-230941J230941D01*
G01*
X184796491Y-52380211D01*
G75*
G02*
X184796491Y-51918329I230941J230941D01*
G01*
G37*
%TD*%
%TO.C,C2*%
G36*
G01*
X187365707Y-40720745D02*
X187862945Y-40223507D01*
G75*
G02*
X188324827Y-40223507I230941J-230941D01*
G01*
X188786709Y-40685389D01*
G75*
G02*
X188786709Y-41147271I-230941J-230941D01*
G01*
X188289471Y-41644509D01*
G75*
G02*
X187827589Y-41644509I-230941J230941D01*
G01*
X187365707Y-41182627D01*
G75*
G02*
X187365707Y-40720745I230941J230941D01*
G01*
G37*
G36*
G01*
X186269691Y-39624729D02*
X186766929Y-39127491D01*
G75*
G02*
X187228811Y-39127491I230941J-230941D01*
G01*
X187690693Y-39589373D01*
G75*
G02*
X187690693Y-40051255I-230941J-230941D01*
G01*
X187193455Y-40548493D01*
G75*
G02*
X186731573Y-40548493I-230941J230941D01*
G01*
X186269691Y-40086611D01*
G75*
G02*
X186269691Y-39624729I230941J230941D01*
G01*
G37*
%TD*%
D10*
%TO.C,SX0:3*%
X332092901Y-157346356D03*
X327799099Y-166554444D03*
D11*
X326033803Y-164329982D03*
D12*
X329946000Y-161950400D03*
D11*
X326415407Y-157501477D03*
%TD*%
D10*
%TO.C,SX1:5*%
X340144701Y-140074356D03*
X335850899Y-149282444D03*
D11*
X334085603Y-147057982D03*
D12*
X337997800Y-144678400D03*
D11*
X334467207Y-140229477D03*
%TD*%
D12*
%TO.C,SW0:3*%
X331548246Y-139006184D03*
X321457812Y-160645189D03*
D20*
X345360377Y-145446886D03*
X335269943Y-167085891D03*
D10*
X331837699Y-157918444D03*
X336131501Y-148710356D03*
D11*
X337896797Y-150934818D03*
D12*
X333984600Y-153314400D03*
D11*
X337515193Y-157763323D03*
%TD*%
D10*
%TO.C,SX1:6*%
X357416701Y-148126156D03*
X353122899Y-157334244D03*
D11*
X351357603Y-155109782D03*
D12*
X355269800Y-152730200D03*
D11*
X351739207Y-148281277D03*
%TD*%
D12*
%TO.C,SW0:2*%
X363757988Y-154035411D03*
X353667554Y-175674416D03*
D20*
X349945857Y-147594709D03*
X339855423Y-169233714D03*
D10*
X349084299Y-165970244D03*
X353378101Y-156762156D03*
D11*
X355143397Y-158986618D03*
D12*
X351231200Y-161366200D03*
D11*
X354761793Y-165815123D03*
%TD*%
D10*
%TO.C,SW0:1*%
X369068644Y-180200901D03*
X359860556Y-175907099D03*
D11*
X362085018Y-174141803D03*
D12*
X364464600Y-178054000D03*
D11*
X368913523Y-174523407D03*
%TD*%
D10*
%TO.C,SW0:4*%
X377145844Y-162928901D03*
X367937756Y-158635099D03*
D11*
X370162218Y-156869803D03*
D12*
X372541800Y-160782000D03*
D11*
X376990723Y-157251407D03*
%TD*%
D10*
%TO.C,SW0:6*%
X385197644Y-145656901D03*
X375989556Y-141363099D03*
D11*
X378214018Y-139597803D03*
D12*
X380593600Y-143510000D03*
D11*
X385042523Y-139979407D03*
%TD*%
D10*
%TO.C,SW0:5*%
X367925644Y-137605101D03*
X358717556Y-133311299D03*
D11*
X360942018Y-131546003D03*
D12*
X363321600Y-135458200D03*
D11*
X367770523Y-131927607D03*
%TD*%
D10*
%TO.C,SW1:0*%
X233680000Y-143459200D03*
X223520000Y-143459200D03*
D11*
X224790000Y-140919200D03*
D12*
X228600000Y-143459200D03*
D11*
X231140000Y-138379200D03*
%TD*%
D10*
%TO.C,SW3:5*%
X328930000Y-103454200D03*
X318770000Y-103454200D03*
D11*
X320040000Y-100914200D03*
D12*
X323850000Y-103454200D03*
D11*
X326390000Y-98374200D03*
%TD*%
D10*
%TO.C,SW3:4*%
X309880000Y-102184200D03*
X299720000Y-102184200D03*
D11*
X300990000Y-99644200D03*
D12*
X304800000Y-102184200D03*
D11*
X307340000Y-97104200D03*
%TD*%
D10*
%TO.C,SW3:3*%
X290830000Y-100584000D03*
X280670000Y-100584000D03*
D11*
X281940000Y-98044000D03*
D12*
X285750000Y-100584000D03*
D11*
X288290000Y-95504000D03*
%TD*%
D10*
%TO.C,SW3:14*%
X223520000Y-105359200D03*
X233680000Y-105359200D03*
D11*
X232410000Y-107899200D03*
D12*
X228600000Y-105359200D03*
D11*
X226060000Y-110439200D03*
%TD*%
D10*
%TO.C,SW3:2*%
X271780000Y-102184200D03*
X261620000Y-102184200D03*
D11*
X262890000Y-99644200D03*
D12*
X266700000Y-102184200D03*
D11*
X269240000Y-97104200D03*
%TD*%
D10*
%TO.C,SW3:1*%
X252730000Y-105359200D03*
X242570000Y-105359200D03*
D11*
X243840000Y-102819200D03*
D12*
X247650000Y-105359200D03*
D11*
X250190000Y-100279200D03*
%TD*%
D10*
%TO.C,SW3:0*%
X228904800Y-105359200D03*
X218744800Y-105359200D03*
D11*
X220014800Y-102819200D03*
D12*
X223824800Y-105359200D03*
D11*
X226364800Y-100279200D03*
%TD*%
D10*
%TO.C,SW1:4*%
X309880000Y-140284200D03*
X299720000Y-140284200D03*
D11*
X300990000Y-137744200D03*
D12*
X304800000Y-140284200D03*
D11*
X307340000Y-135204200D03*
%TD*%
D10*
%TO.C,SW1:3*%
X290830000Y-138684000D03*
X280670000Y-138684000D03*
D11*
X281940000Y-136144000D03*
D12*
X285750000Y-138684000D03*
D11*
X288290000Y-133604000D03*
%TD*%
D10*
%TO.C,SW1:2*%
X271780000Y-140284200D03*
X261620000Y-140284200D03*
D11*
X262890000Y-137744200D03*
D12*
X266700000Y-140284200D03*
D11*
X269240000Y-135204200D03*
%TD*%
D10*
%TO.C,SW2:14*%
X223520000Y-124409200D03*
X233680000Y-124409200D03*
D11*
X232410000Y-126949200D03*
D12*
X228600000Y-124409200D03*
D11*
X226060000Y-129489200D03*
%TD*%
D10*
%TO.C,SW2:6*%
X342900000Y-122809000D03*
X342900000Y-112649000D03*
D11*
X345440000Y-113919000D03*
D12*
X342900000Y-117729000D03*
D11*
X347980000Y-120269000D03*
%TD*%
D10*
%TO.C,SW2:5*%
X328930000Y-122504200D03*
X318770000Y-122504200D03*
D11*
X320040000Y-119964200D03*
D12*
X323850000Y-122504200D03*
D11*
X326390000Y-117424200D03*
%TD*%
D10*
%TO.C,SW2:4*%
X309880000Y-121234200D03*
X299720000Y-121234200D03*
D11*
X300990000Y-118694200D03*
D12*
X304800000Y-121234200D03*
D11*
X307340000Y-116154200D03*
%TD*%
D10*
%TO.C,SW2:3*%
X290830000Y-119634000D03*
X280670000Y-119634000D03*
D11*
X281940000Y-117094000D03*
D12*
X285750000Y-119634000D03*
D11*
X288290000Y-114554000D03*
%TD*%
D10*
%TO.C,SW2:1*%
X252730000Y-124409200D03*
X242570000Y-124409200D03*
D11*
X243840000Y-121869200D03*
D12*
X247650000Y-124409200D03*
D11*
X250190000Y-119329200D03*
%TD*%
D10*
%TO.C,SW2:0*%
X228904800Y-124409200D03*
X218744800Y-124409200D03*
D11*
X220014800Y-121869200D03*
D12*
X223824800Y-124409200D03*
D11*
X226364800Y-119329200D03*
%TD*%
D10*
%TO.C,SW4:14*%
X223520000Y-86309200D03*
X233680000Y-86309200D03*
D11*
X232410000Y-88849200D03*
D12*
X228600000Y-86309200D03*
D11*
X226060000Y-91389200D03*
%TD*%
D10*
%TO.C,SW4:0*%
X228930200Y-86309200D03*
X218770200Y-86309200D03*
D11*
X220040200Y-83769200D03*
D12*
X223850200Y-86309200D03*
D11*
X226390200Y-81229200D03*
%TD*%
D10*
%TO.C,SW4:3*%
X290830000Y-81534000D03*
X280670000Y-81534000D03*
D11*
X281940000Y-78994000D03*
D12*
X285750000Y-81534000D03*
D11*
X288290000Y-76454000D03*
%TD*%
D10*
%TO.C,SW4:5*%
X328930000Y-84404200D03*
X318770000Y-84404200D03*
D11*
X320040000Y-81864200D03*
D12*
X323850000Y-84404200D03*
D11*
X326390000Y-79324200D03*
%TD*%
D10*
%TO.C,SW4:4*%
X309880000Y-83134200D03*
X299720000Y-83134200D03*
D11*
X300990000Y-80594200D03*
D12*
X304800000Y-83134200D03*
D11*
X307340000Y-78054200D03*
%TD*%
D10*
%TO.C,SW4:2*%
X271780000Y-83134200D03*
X261620000Y-83134200D03*
D11*
X262890000Y-80594200D03*
D12*
X266700000Y-83134200D03*
D11*
X269240000Y-78054200D03*
%TD*%
D10*
%TO.C,SW4:1*%
X252730000Y-86309200D03*
X242570000Y-86309200D03*
D11*
X243840000Y-83769200D03*
D12*
X247650000Y-86309200D03*
D11*
X250190000Y-81229200D03*
%TD*%
D10*
%TO.C,SW5:14*%
X223494600Y-67259200D03*
X233654600Y-67259200D03*
D11*
X232384600Y-69799200D03*
D12*
X228574600Y-67259200D03*
D11*
X226034600Y-72339200D03*
%TD*%
D10*
%TO.C,SW5:0*%
X228930200Y-67259200D03*
X218770200Y-67259200D03*
D11*
X220040200Y-64719200D03*
D12*
X223850200Y-67259200D03*
D11*
X226390200Y-62179200D03*
%TD*%
D10*
%TO.C,SW5:6*%
X347980000Y-65354200D03*
X337820000Y-65354200D03*
D11*
X339090000Y-62814200D03*
D12*
X342900000Y-65354200D03*
D11*
X345440000Y-60274200D03*
%TD*%
D10*
%TO.C,SW5:5*%
X328930000Y-65354200D03*
X318770000Y-65354200D03*
D11*
X320040000Y-62814200D03*
D12*
X323850000Y-65354200D03*
D11*
X326390000Y-60274200D03*
%TD*%
D10*
%TO.C,SW5:3*%
X290830000Y-62484000D03*
X280670000Y-62484000D03*
D11*
X281940000Y-59944000D03*
D12*
X285750000Y-62484000D03*
D11*
X288290000Y-57404000D03*
%TD*%
D10*
%TO.C,SW5:1*%
X252730000Y-67259200D03*
X242570000Y-67259200D03*
D11*
X243840000Y-64719200D03*
D12*
X247650000Y-67259200D03*
D11*
X250190000Y-62179200D03*
%TD*%
D10*
%TO.C,SX0:10*%
X86620951Y-166556984D03*
X82327149Y-157348896D03*
D11*
X85165896Y-157426457D03*
D12*
X84474050Y-161952940D03*
D11*
X90151544Y-162108061D03*
%TD*%
D10*
%TO.C,SX1:8*%
X78569151Y-149290064D03*
X74275349Y-140081976D03*
D11*
X77114096Y-140159537D03*
D12*
X76422250Y-144686020D03*
D11*
X82099744Y-144841141D03*
%TD*%
D12*
%TO.C,SW0:10*%
X92972398Y-160650269D03*
X82881964Y-139011264D03*
D20*
X79160267Y-167090971D03*
X69069833Y-145451966D03*
D10*
X78298709Y-148715436D03*
X82592511Y-157923524D03*
D11*
X79753764Y-157845963D03*
D12*
X80445610Y-153319480D03*
D11*
X74768116Y-153164359D03*
%TD*%
D10*
%TO.C,SX0:11*%
X69354031Y-174606244D03*
X65060229Y-165398156D03*
D11*
X67898976Y-165475717D03*
D12*
X67207130Y-170002200D03*
D11*
X72884624Y-170157321D03*
%TD*%
D10*
%TO.C,SX1:7*%
X61304771Y-157341864D03*
X57010969Y-148133776D03*
D11*
X59849716Y-148211337D03*
D12*
X59157870Y-152737820D03*
D11*
X64835364Y-152892941D03*
%TD*%
D12*
%TO.C,SW0:11*%
X60744876Y-175679496D03*
X50654442Y-154040491D03*
D20*
X74557007Y-169238794D03*
X64466573Y-147599789D03*
D10*
X61034329Y-156767236D03*
X65328131Y-165975324D03*
D11*
X62489384Y-165897763D03*
D12*
X63181230Y-161371280D03*
D11*
X57503736Y-161216159D03*
%TD*%
D10*
%TO.C,SW0:12*%
X54546794Y-175907099D03*
X45338706Y-180200901D03*
D11*
X45416267Y-177362154D03*
D12*
X49942750Y-178054000D03*
D11*
X50097871Y-172376506D03*
%TD*%
D10*
%TO.C,SW0:9*%
X46494994Y-158640179D03*
X37286906Y-162933981D03*
D11*
X37364467Y-160095234D03*
D12*
X41890950Y-160787080D03*
D11*
X42046071Y-155109586D03*
%TD*%
D10*
%TO.C,SW0:7*%
X38445734Y-141375799D03*
X29237646Y-145669601D03*
D11*
X29315207Y-142830854D03*
D12*
X33841690Y-143522700D03*
D11*
X33996811Y-137845206D03*
%TD*%
D10*
%TO.C,SW0:8*%
X55710114Y-133326539D03*
X46502026Y-137620341D03*
D11*
X46579587Y-134781594D03*
D12*
X51106070Y-135473440D03*
D11*
X51261191Y-129795946D03*
%TD*%
D10*
%TO.C,SW1:12*%
X171862750Y-143456660D03*
X161702750Y-143456660D03*
D11*
X162972750Y-140916660D03*
D12*
X166782750Y-143456660D03*
D11*
X169322750Y-138376660D03*
%TD*%
D10*
%TO.C,SW1:11*%
X152812750Y-140281660D03*
X142652750Y-140281660D03*
D11*
X143922750Y-137741660D03*
D12*
X147732750Y-140281660D03*
D11*
X150272750Y-135201660D03*
%TD*%
D10*
%TO.C,SW1:10*%
X133762750Y-138684000D03*
X123602750Y-138684000D03*
D11*
X124872750Y-136144000D03*
D12*
X128682750Y-138684000D03*
D11*
X131222750Y-133604000D03*
%TD*%
D10*
%TO.C,SW1:9*%
X114712750Y-140281660D03*
X104552750Y-140281660D03*
D11*
X105822750Y-137741660D03*
D12*
X109632750Y-140281660D03*
D11*
X112172750Y-135201660D03*
%TD*%
D10*
%TO.C,SW2:132*%
X185826400Y-119329200D03*
X185826400Y-129489200D03*
D11*
X183286400Y-128219200D03*
D12*
X185826400Y-124409200D03*
D11*
X180746400Y-121869200D03*
%TD*%
D10*
%TO.C,SW2:13*%
X195675250Y-124406660D03*
X185515250Y-124406660D03*
D11*
X186785250Y-121866660D03*
D12*
X190595250Y-124406660D03*
D11*
X193135250Y-119326660D03*
%TD*%
D10*
%TO.C,SW2:9*%
X114712750Y-121231660D03*
X104552750Y-121231660D03*
D11*
X105822750Y-118691660D03*
D12*
X109632750Y-121231660D03*
D11*
X112172750Y-116151660D03*
%TD*%
D10*
%TO.C,SW2:12*%
X171862750Y-124406660D03*
X161702750Y-124406660D03*
D11*
X162972750Y-121866660D03*
D12*
X166782750Y-124406660D03*
D11*
X169322750Y-119326660D03*
%TD*%
D10*
%TO.C,SW2:10*%
X133762750Y-119634000D03*
X123602750Y-119634000D03*
D11*
X124872750Y-117094000D03*
D12*
X128682750Y-119634000D03*
D11*
X131222750Y-114554000D03*
%TD*%
D10*
%TO.C,SW2:8*%
X95662750Y-122501660D03*
X85502750Y-122501660D03*
D11*
X86772750Y-119961660D03*
D12*
X90582750Y-122501660D03*
D11*
X93122750Y-117421660D03*
%TD*%
D10*
%TO.C,SW2:7*%
X71532750Y-112659160D03*
X71532750Y-122819160D03*
D11*
X68992750Y-121549160D03*
D12*
X71532750Y-117739160D03*
D11*
X66452750Y-115199160D03*
%TD*%
D10*
%TO.C,SW3:13*%
X195675250Y-105356660D03*
X185515250Y-105356660D03*
D11*
X186785250Y-102816660D03*
D12*
X190595250Y-105356660D03*
D11*
X193135250Y-100276660D03*
%TD*%
D10*
%TO.C,SW3:12*%
X171862750Y-105356660D03*
X161702750Y-105356660D03*
D11*
X162972750Y-102816660D03*
D12*
X166782750Y-105356660D03*
D11*
X169322750Y-100276660D03*
%TD*%
D10*
%TO.C,SW3:11*%
X152812750Y-102181660D03*
X142652750Y-102181660D03*
D11*
X143922750Y-99641660D03*
D12*
X147732750Y-102181660D03*
D11*
X150272750Y-97101660D03*
%TD*%
D10*
%TO.C,SW3:9*%
X114712750Y-102181660D03*
X104552750Y-102181660D03*
D11*
X105822750Y-99641660D03*
D12*
X109632750Y-102181660D03*
D11*
X112172750Y-97101660D03*
%TD*%
D10*
%TO.C,SW4:11*%
X152812750Y-83131660D03*
X142652750Y-83131660D03*
D11*
X143922750Y-80591660D03*
D12*
X147732750Y-83131660D03*
D11*
X150272750Y-78051660D03*
%TD*%
D10*
%TO.C,SW4:132*%
X185826400Y-81226660D03*
X185826400Y-91386660D03*
D11*
X183286400Y-90116660D03*
D12*
X185826400Y-86306660D03*
D11*
X180746400Y-83766660D03*
%TD*%
D10*
%TO.C,SW4:13*%
X195675250Y-86306660D03*
X185515250Y-86306660D03*
D11*
X186785250Y-83766660D03*
D12*
X190595250Y-86306660D03*
D11*
X193135250Y-81226660D03*
%TD*%
D10*
%TO.C,SW4:10*%
X133762750Y-81534000D03*
X123602750Y-81534000D03*
D11*
X124872750Y-78994000D03*
D12*
X128682750Y-81534000D03*
D11*
X131222750Y-76454000D03*
%TD*%
D10*
%TO.C,SW4:9*%
X114712750Y-83131660D03*
X104552750Y-83131660D03*
D11*
X105822750Y-80591660D03*
D12*
X109632750Y-83131660D03*
D11*
X112172750Y-78051660D03*
%TD*%
D10*
%TO.C,SW4:8*%
X95662750Y-84401660D03*
X85502750Y-84401660D03*
D11*
X86772750Y-81861660D03*
D12*
X90582750Y-84401660D03*
D11*
X93122750Y-79321660D03*
%TD*%
D10*
%TO.C,SW4:7*%
X71532750Y-84084160D03*
X71532750Y-94244160D03*
D11*
X68992750Y-92974160D03*
D12*
X71532750Y-89164160D03*
D11*
X66452750Y-86624160D03*
%TD*%
D10*
%TO.C,SW5:13*%
X195675250Y-67259200D03*
X185515250Y-67259200D03*
D11*
X186785250Y-64719200D03*
D12*
X190595250Y-67259200D03*
D11*
X193135250Y-62179200D03*
%TD*%
D10*
%TO.C,SW5:132*%
X185826400Y-62179200D03*
X185826400Y-72339200D03*
D11*
X183286400Y-71069200D03*
D12*
X185826400Y-67259200D03*
D11*
X180746400Y-64719200D03*
%TD*%
D10*
%TO.C,SW5:12*%
X171862750Y-67259200D03*
X161702750Y-67259200D03*
D11*
X162972750Y-64719200D03*
D12*
X166782750Y-67259200D03*
D11*
X169322750Y-62179200D03*
%TD*%
D10*
%TO.C,SW5:11*%
X152812750Y-64081660D03*
X142652750Y-64081660D03*
D11*
X143922750Y-61541660D03*
D12*
X147732750Y-64081660D03*
D11*
X150272750Y-59001660D03*
%TD*%
D10*
%TO.C,SW5:10*%
X133762750Y-62484000D03*
X123602750Y-62484000D03*
D11*
X124872750Y-59944000D03*
D12*
X128682750Y-62484000D03*
D11*
X131222750Y-57404000D03*
%TD*%
D10*
%TO.C,SW5:9*%
X114712750Y-64081660D03*
X104552750Y-64081660D03*
D11*
X105822750Y-61541660D03*
D12*
X109632750Y-64081660D03*
D11*
X112172750Y-59001660D03*
%TD*%
D10*
%TO.C,SW5:8*%
X95662750Y-65354200D03*
X85502750Y-65354200D03*
D11*
X86772750Y-62814200D03*
D12*
X90582750Y-65354200D03*
D11*
X93122750Y-60274200D03*
%TD*%
%TO.C,Y1*%
G36*
G01*
X191723800Y-52631800D02*
X188920600Y-52631800D01*
G75*
G02*
X188719000Y-52430200I0J201600D01*
G01*
X188719000Y-52027000D01*
G75*
G02*
X188920600Y-51825400I201600J0D01*
G01*
X191723800Y-51825400D01*
G75*
G02*
X191925400Y-52027000I0J-201600D01*
G01*
X191925400Y-52430200D01*
G75*
G02*
X191723800Y-52631800I-201600J0D01*
G01*
G37*
G36*
G01*
X191723800Y-51431800D02*
X188920600Y-51431800D01*
G75*
G02*
X188719000Y-51230200I0J201600D01*
G01*
X188719000Y-50827000D01*
G75*
G02*
X188920600Y-50625400I201600J0D01*
G01*
X191723800Y-50625400D01*
G75*
G02*
X191925400Y-50827000I0J-201600D01*
G01*
X191925400Y-51230200D01*
G75*
G02*
X191723800Y-51431800I-201600J0D01*
G01*
G37*
G36*
G01*
X191723800Y-50231800D02*
X188920600Y-50231800D01*
G75*
G02*
X188719000Y-50030200I0J201600D01*
G01*
X188719000Y-49627000D01*
G75*
G02*
X188920600Y-49425400I201600J0D01*
G01*
X191723800Y-49425400D01*
G75*
G02*
X191925400Y-49627000I0J-201600D01*
G01*
X191925400Y-50030200D01*
G75*
G02*
X191723800Y-50231800I-201600J0D01*
G01*
G37*
%TD*%
%TO.C,U4*%
G36*
G01*
X171245455Y-43485125D02*
X170184795Y-42424465D01*
G75*
G02*
X170184795Y-42141623I141421J141421D01*
G01*
X170538349Y-41788069D01*
G75*
G02*
X170821191Y-41788069I141421J-141421D01*
G01*
X171881851Y-42848729D01*
G75*
G02*
X171881851Y-43131571I-141421J-141421D01*
G01*
X171528297Y-43485125D01*
G75*
G02*
X171245455Y-43485125I-141421J141421D01*
G01*
G37*
G36*
G01*
X171811140Y-42919440D02*
X170750480Y-41858780D01*
G75*
G02*
X170750480Y-41575938I141421J141421D01*
G01*
X171104034Y-41222384D01*
G75*
G02*
X171386876Y-41222384I141421J-141421D01*
G01*
X172447536Y-42283044D01*
G75*
G02*
X172447536Y-42565886I-141421J-141421D01*
G01*
X172093982Y-42919440D01*
G75*
G02*
X171811140Y-42919440I-141421J141421D01*
G01*
G37*
G36*
G01*
X172376826Y-42353754D02*
X171316166Y-41293094D01*
G75*
G02*
X171316166Y-41010252I141421J141421D01*
G01*
X171669720Y-40656698D01*
G75*
G02*
X171952562Y-40656698I141421J-141421D01*
G01*
X173013222Y-41717358D01*
G75*
G02*
X173013222Y-42000200I-141421J-141421D01*
G01*
X172659668Y-42353754D01*
G75*
G02*
X172376826Y-42353754I-141421J141421D01*
G01*
G37*
G36*
G01*
X172942511Y-41788069D02*
X171881851Y-40727409D01*
G75*
G02*
X171881851Y-40444567I141421J141421D01*
G01*
X172235405Y-40091013D01*
G75*
G02*
X172518247Y-40091013I141421J-141421D01*
G01*
X173578907Y-41151673D01*
G75*
G02*
X173578907Y-41434515I-141421J-141421D01*
G01*
X173225353Y-41788069D01*
G75*
G02*
X172942511Y-41788069I-141421J141421D01*
G01*
G37*
G36*
G01*
X173508197Y-41222383D02*
X172447537Y-40161723D01*
G75*
G02*
X172447537Y-39878881I141421J141421D01*
G01*
X172801091Y-39525327D01*
G75*
G02*
X173083933Y-39525327I141421J-141421D01*
G01*
X174144593Y-40585987D01*
G75*
G02*
X174144593Y-40868829I-141421J-141421D01*
G01*
X173791039Y-41222383D01*
G75*
G02*
X173508197Y-41222383I-141421J141421D01*
G01*
G37*
G36*
G01*
X174073882Y-40656698D02*
X173013222Y-39596038D01*
G75*
G02*
X173013222Y-39313196I141421J141421D01*
G01*
X173366776Y-38959642D01*
G75*
G02*
X173649618Y-38959642I141421J-141421D01*
G01*
X174710278Y-40020302D01*
G75*
G02*
X174710278Y-40303144I-141421J-141421D01*
G01*
X174356724Y-40656698D01*
G75*
G02*
X174073882Y-40656698I-141421J141421D01*
G01*
G37*
G36*
G01*
X174639567Y-40091013D02*
X173578907Y-39030353D01*
G75*
G02*
X173578907Y-38747511I141421J141421D01*
G01*
X173932461Y-38393957D01*
G75*
G02*
X174215303Y-38393957I141421J-141421D01*
G01*
X175275963Y-39454617D01*
G75*
G02*
X175275963Y-39737459I-141421J-141421D01*
G01*
X174922409Y-40091013D01*
G75*
G02*
X174639567Y-40091013I-141421J141421D01*
G01*
G37*
G36*
G01*
X175205253Y-39525327D02*
X174144593Y-38464667D01*
G75*
G02*
X174144593Y-38181825I141421J141421D01*
G01*
X174498147Y-37828271D01*
G75*
G02*
X174780989Y-37828271I141421J-141421D01*
G01*
X175841649Y-38888931D01*
G75*
G02*
X175841649Y-39171773I-141421J-141421D01*
G01*
X175488095Y-39525327D01*
G75*
G02*
X175205253Y-39525327I-141421J141421D01*
G01*
G37*
G36*
G01*
X175770938Y-38959642D02*
X174710278Y-37898982D01*
G75*
G02*
X174710278Y-37616140I141421J141421D01*
G01*
X175063832Y-37262586D01*
G75*
G02*
X175346674Y-37262586I141421J-141421D01*
G01*
X176407334Y-38323246D01*
G75*
G02*
X176407334Y-38606088I-141421J-141421D01*
G01*
X176053780Y-38959642D01*
G75*
G02*
X175770938Y-38959642I-141421J141421D01*
G01*
G37*
G36*
G01*
X176336624Y-38393956D02*
X175275964Y-37333296D01*
G75*
G02*
X175275964Y-37050454I141421J141421D01*
G01*
X175629518Y-36696900D01*
G75*
G02*
X175912360Y-36696900I141421J-141421D01*
G01*
X176973020Y-37757560D01*
G75*
G02*
X176973020Y-38040402I-141421J-141421D01*
G01*
X176619466Y-38393956D01*
G75*
G02*
X176336624Y-38393956I-141421J141421D01*
G01*
G37*
G36*
G01*
X176902309Y-37828271D02*
X175841649Y-36767611D01*
G75*
G02*
X175841649Y-36484769I141421J141421D01*
G01*
X176195203Y-36131215D01*
G75*
G02*
X176478045Y-36131215I141421J-141421D01*
G01*
X177538705Y-37191875D01*
G75*
G02*
X177538705Y-37474717I-141421J-141421D01*
G01*
X177185151Y-37828271D01*
G75*
G02*
X176902309Y-37828271I-141421J141421D01*
G01*
G37*
G36*
G01*
X178882209Y-37828271D02*
X178528655Y-37474717D01*
G75*
G02*
X178528655Y-37191875I141421J141421D01*
G01*
X179589315Y-36131215D01*
G75*
G02*
X179872157Y-36131215I141421J-141421D01*
G01*
X180225711Y-36484769D01*
G75*
G02*
X180225711Y-36767611I-141421J-141421D01*
G01*
X179165051Y-37828271D01*
G75*
G02*
X178882209Y-37828271I-141421J141421D01*
G01*
G37*
G36*
G01*
X179447894Y-38393956D02*
X179094340Y-38040402D01*
G75*
G02*
X179094340Y-37757560I141421J141421D01*
G01*
X180155000Y-36696900D01*
G75*
G02*
X180437842Y-36696900I141421J-141421D01*
G01*
X180791396Y-37050454D01*
G75*
G02*
X180791396Y-37333296I-141421J-141421D01*
G01*
X179730736Y-38393956D01*
G75*
G02*
X179447894Y-38393956I-141421J141421D01*
G01*
G37*
G36*
G01*
X180013580Y-38959642D02*
X179660026Y-38606088D01*
G75*
G02*
X179660026Y-38323246I141421J141421D01*
G01*
X180720686Y-37262586D01*
G75*
G02*
X181003528Y-37262586I141421J-141421D01*
G01*
X181357082Y-37616140D01*
G75*
G02*
X181357082Y-37898982I-141421J-141421D01*
G01*
X180296422Y-38959642D01*
G75*
G02*
X180013580Y-38959642I-141421J141421D01*
G01*
G37*
G36*
G01*
X180579265Y-39525327D02*
X180225711Y-39171773D01*
G75*
G02*
X180225711Y-38888931I141421J141421D01*
G01*
X181286371Y-37828271D01*
G75*
G02*
X181569213Y-37828271I141421J-141421D01*
G01*
X181922767Y-38181825D01*
G75*
G02*
X181922767Y-38464667I-141421J-141421D01*
G01*
X180862107Y-39525327D01*
G75*
G02*
X180579265Y-39525327I-141421J141421D01*
G01*
G37*
G36*
G01*
X181144951Y-40091013D02*
X180791397Y-39737459D01*
G75*
G02*
X180791397Y-39454617I141421J141421D01*
G01*
X181852057Y-38393957D01*
G75*
G02*
X182134899Y-38393957I141421J-141421D01*
G01*
X182488453Y-38747511D01*
G75*
G02*
X182488453Y-39030353I-141421J-141421D01*
G01*
X181427793Y-40091013D01*
G75*
G02*
X181144951Y-40091013I-141421J141421D01*
G01*
G37*
G36*
G01*
X181710636Y-40656698D02*
X181357082Y-40303144D01*
G75*
G02*
X181357082Y-40020302I141421J141421D01*
G01*
X182417742Y-38959642D01*
G75*
G02*
X182700584Y-38959642I141421J-141421D01*
G01*
X183054138Y-39313196D01*
G75*
G02*
X183054138Y-39596038I-141421J-141421D01*
G01*
X181993478Y-40656698D01*
G75*
G02*
X181710636Y-40656698I-141421J141421D01*
G01*
G37*
G36*
G01*
X182276321Y-41222383D02*
X181922767Y-40868829D01*
G75*
G02*
X181922767Y-40585987I141421J141421D01*
G01*
X182983427Y-39525327D01*
G75*
G02*
X183266269Y-39525327I141421J-141421D01*
G01*
X183619823Y-39878881D01*
G75*
G02*
X183619823Y-40161723I-141421J-141421D01*
G01*
X182559163Y-41222383D01*
G75*
G02*
X182276321Y-41222383I-141421J141421D01*
G01*
G37*
G36*
G01*
X182842007Y-41788069D02*
X182488453Y-41434515D01*
G75*
G02*
X182488453Y-41151673I141421J141421D01*
G01*
X183549113Y-40091013D01*
G75*
G02*
X183831955Y-40091013I141421J-141421D01*
G01*
X184185509Y-40444567D01*
G75*
G02*
X184185509Y-40727409I-141421J-141421D01*
G01*
X183124849Y-41788069D01*
G75*
G02*
X182842007Y-41788069I-141421J141421D01*
G01*
G37*
G36*
G01*
X183407692Y-42353754D02*
X183054138Y-42000200D01*
G75*
G02*
X183054138Y-41717358I141421J141421D01*
G01*
X184114798Y-40656698D01*
G75*
G02*
X184397640Y-40656698I141421J-141421D01*
G01*
X184751194Y-41010252D01*
G75*
G02*
X184751194Y-41293094I-141421J-141421D01*
G01*
X183690534Y-42353754D01*
G75*
G02*
X183407692Y-42353754I-141421J141421D01*
G01*
G37*
G36*
G01*
X183973378Y-42919440D02*
X183619824Y-42565886D01*
G75*
G02*
X183619824Y-42283044I141421J141421D01*
G01*
X184680484Y-41222384D01*
G75*
G02*
X184963326Y-41222384I141421J-141421D01*
G01*
X185316880Y-41575938D01*
G75*
G02*
X185316880Y-41858780I-141421J-141421D01*
G01*
X184256220Y-42919440D01*
G75*
G02*
X183973378Y-42919440I-141421J141421D01*
G01*
G37*
G36*
G01*
X184539063Y-43485125D02*
X184185509Y-43131571D01*
G75*
G02*
X184185509Y-42848729I141421J141421D01*
G01*
X185246169Y-41788069D01*
G75*
G02*
X185529011Y-41788069I141421J-141421D01*
G01*
X185882565Y-42141623D01*
G75*
G02*
X185882565Y-42424465I-141421J-141421D01*
G01*
X184821905Y-43485125D01*
G75*
G02*
X184539063Y-43485125I-141421J141421D01*
G01*
G37*
G36*
G01*
X185246169Y-46172131D02*
X184185509Y-45111471D01*
G75*
G02*
X184185509Y-44828629I141421J141421D01*
G01*
X184539063Y-44475075D01*
G75*
G02*
X184821905Y-44475075I141421J-141421D01*
G01*
X185882565Y-45535735D01*
G75*
G02*
X185882565Y-45818577I-141421J-141421D01*
G01*
X185529011Y-46172131D01*
G75*
G02*
X185246169Y-46172131I-141421J141421D01*
G01*
G37*
G36*
G01*
X184680484Y-46737816D02*
X183619824Y-45677156D01*
G75*
G02*
X183619824Y-45394314I141421J141421D01*
G01*
X183973378Y-45040760D01*
G75*
G02*
X184256220Y-45040760I141421J-141421D01*
G01*
X185316880Y-46101420D01*
G75*
G02*
X185316880Y-46384262I-141421J-141421D01*
G01*
X184963326Y-46737816D01*
G75*
G02*
X184680484Y-46737816I-141421J141421D01*
G01*
G37*
G36*
G01*
X184114798Y-47303502D02*
X183054138Y-46242842D01*
G75*
G02*
X183054138Y-45960000I141421J141421D01*
G01*
X183407692Y-45606446D01*
G75*
G02*
X183690534Y-45606446I141421J-141421D01*
G01*
X184751194Y-46667106D01*
G75*
G02*
X184751194Y-46949948I-141421J-141421D01*
G01*
X184397640Y-47303502D01*
G75*
G02*
X184114798Y-47303502I-141421J141421D01*
G01*
G37*
G36*
G01*
X183549113Y-47869187D02*
X182488453Y-46808527D01*
G75*
G02*
X182488453Y-46525685I141421J141421D01*
G01*
X182842007Y-46172131D01*
G75*
G02*
X183124849Y-46172131I141421J-141421D01*
G01*
X184185509Y-47232791D01*
G75*
G02*
X184185509Y-47515633I-141421J-141421D01*
G01*
X183831955Y-47869187D01*
G75*
G02*
X183549113Y-47869187I-141421J141421D01*
G01*
G37*
G36*
G01*
X182983427Y-48434873D02*
X181922767Y-47374213D01*
G75*
G02*
X181922767Y-47091371I141421J141421D01*
G01*
X182276321Y-46737817D01*
G75*
G02*
X182559163Y-46737817I141421J-141421D01*
G01*
X183619823Y-47798477D01*
G75*
G02*
X183619823Y-48081319I-141421J-141421D01*
G01*
X183266269Y-48434873D01*
G75*
G02*
X182983427Y-48434873I-141421J141421D01*
G01*
G37*
G36*
G01*
X182417742Y-49000558D02*
X181357082Y-47939898D01*
G75*
G02*
X181357082Y-47657056I141421J141421D01*
G01*
X181710636Y-47303502D01*
G75*
G02*
X181993478Y-47303502I141421J-141421D01*
G01*
X183054138Y-48364162D01*
G75*
G02*
X183054138Y-48647004I-141421J-141421D01*
G01*
X182700584Y-49000558D01*
G75*
G02*
X182417742Y-49000558I-141421J141421D01*
G01*
G37*
G36*
G01*
X181852057Y-49566243D02*
X180791397Y-48505583D01*
G75*
G02*
X180791397Y-48222741I141421J141421D01*
G01*
X181144951Y-47869187D01*
G75*
G02*
X181427793Y-47869187I141421J-141421D01*
G01*
X182488453Y-48929847D01*
G75*
G02*
X182488453Y-49212689I-141421J-141421D01*
G01*
X182134899Y-49566243D01*
G75*
G02*
X181852057Y-49566243I-141421J141421D01*
G01*
G37*
G36*
G01*
X181286371Y-50131929D02*
X180225711Y-49071269D01*
G75*
G02*
X180225711Y-48788427I141421J141421D01*
G01*
X180579265Y-48434873D01*
G75*
G02*
X180862107Y-48434873I141421J-141421D01*
G01*
X181922767Y-49495533D01*
G75*
G02*
X181922767Y-49778375I-141421J-141421D01*
G01*
X181569213Y-50131929D01*
G75*
G02*
X181286371Y-50131929I-141421J141421D01*
G01*
G37*
G36*
G01*
X180720686Y-50697614D02*
X179660026Y-49636954D01*
G75*
G02*
X179660026Y-49354112I141421J141421D01*
G01*
X180013580Y-49000558D01*
G75*
G02*
X180296422Y-49000558I141421J-141421D01*
G01*
X181357082Y-50061218D01*
G75*
G02*
X181357082Y-50344060I-141421J-141421D01*
G01*
X181003528Y-50697614D01*
G75*
G02*
X180720686Y-50697614I-141421J141421D01*
G01*
G37*
G36*
G01*
X180155000Y-51263300D02*
X179094340Y-50202640D01*
G75*
G02*
X179094340Y-49919798I141421J141421D01*
G01*
X179447894Y-49566244D01*
G75*
G02*
X179730736Y-49566244I141421J-141421D01*
G01*
X180791396Y-50626904D01*
G75*
G02*
X180791396Y-50909746I-141421J-141421D01*
G01*
X180437842Y-51263300D01*
G75*
G02*
X180155000Y-51263300I-141421J141421D01*
G01*
G37*
G36*
G01*
X179589315Y-51828985D02*
X178528655Y-50768325D01*
G75*
G02*
X178528655Y-50485483I141421J141421D01*
G01*
X178882209Y-50131929D01*
G75*
G02*
X179165051Y-50131929I141421J-141421D01*
G01*
X180225711Y-51192589D01*
G75*
G02*
X180225711Y-51475431I-141421J-141421D01*
G01*
X179872157Y-51828985D01*
G75*
G02*
X179589315Y-51828985I-141421J141421D01*
G01*
G37*
G36*
G01*
X176195203Y-51828985D02*
X175841649Y-51475431D01*
G75*
G02*
X175841649Y-51192589I141421J141421D01*
G01*
X176902309Y-50131929D01*
G75*
G02*
X177185151Y-50131929I141421J-141421D01*
G01*
X177538705Y-50485483D01*
G75*
G02*
X177538705Y-50768325I-141421J-141421D01*
G01*
X176478045Y-51828985D01*
G75*
G02*
X176195203Y-51828985I-141421J141421D01*
G01*
G37*
G36*
G01*
X175629518Y-51263300D02*
X175275964Y-50909746D01*
G75*
G02*
X175275964Y-50626904I141421J141421D01*
G01*
X176336624Y-49566244D01*
G75*
G02*
X176619466Y-49566244I141421J-141421D01*
G01*
X176973020Y-49919798D01*
G75*
G02*
X176973020Y-50202640I-141421J-141421D01*
G01*
X175912360Y-51263300D01*
G75*
G02*
X175629518Y-51263300I-141421J141421D01*
G01*
G37*
G36*
G01*
X175063832Y-50697614D02*
X174710278Y-50344060D01*
G75*
G02*
X174710278Y-50061218I141421J141421D01*
G01*
X175770938Y-49000558D01*
G75*
G02*
X176053780Y-49000558I141421J-141421D01*
G01*
X176407334Y-49354112D01*
G75*
G02*
X176407334Y-49636954I-141421J-141421D01*
G01*
X175346674Y-50697614D01*
G75*
G02*
X175063832Y-50697614I-141421J141421D01*
G01*
G37*
G36*
G01*
X174498147Y-50131929D02*
X174144593Y-49778375D01*
G75*
G02*
X174144593Y-49495533I141421J141421D01*
G01*
X175205253Y-48434873D01*
G75*
G02*
X175488095Y-48434873I141421J-141421D01*
G01*
X175841649Y-48788427D01*
G75*
G02*
X175841649Y-49071269I-141421J-141421D01*
G01*
X174780989Y-50131929D01*
G75*
G02*
X174498147Y-50131929I-141421J141421D01*
G01*
G37*
G36*
G01*
X173932461Y-49566243D02*
X173578907Y-49212689D01*
G75*
G02*
X173578907Y-48929847I141421J141421D01*
G01*
X174639567Y-47869187D01*
G75*
G02*
X174922409Y-47869187I141421J-141421D01*
G01*
X175275963Y-48222741D01*
G75*
G02*
X175275963Y-48505583I-141421J-141421D01*
G01*
X174215303Y-49566243D01*
G75*
G02*
X173932461Y-49566243I-141421J141421D01*
G01*
G37*
G36*
G01*
X173366776Y-49000558D02*
X173013222Y-48647004D01*
G75*
G02*
X173013222Y-48364162I141421J141421D01*
G01*
X174073882Y-47303502D01*
G75*
G02*
X174356724Y-47303502I141421J-141421D01*
G01*
X174710278Y-47657056D01*
G75*
G02*
X174710278Y-47939898I-141421J-141421D01*
G01*
X173649618Y-49000558D01*
G75*
G02*
X173366776Y-49000558I-141421J141421D01*
G01*
G37*
G36*
G01*
X172801091Y-48434873D02*
X172447537Y-48081319D01*
G75*
G02*
X172447537Y-47798477I141421J141421D01*
G01*
X173508197Y-46737817D01*
G75*
G02*
X173791039Y-46737817I141421J-141421D01*
G01*
X174144593Y-47091371D01*
G75*
G02*
X174144593Y-47374213I-141421J-141421D01*
G01*
X173083933Y-48434873D01*
G75*
G02*
X172801091Y-48434873I-141421J141421D01*
G01*
G37*
G36*
G01*
X172235405Y-47869187D02*
X171881851Y-47515633D01*
G75*
G02*
X171881851Y-47232791I141421J141421D01*
G01*
X172942511Y-46172131D01*
G75*
G02*
X173225353Y-46172131I141421J-141421D01*
G01*
X173578907Y-46525685D01*
G75*
G02*
X173578907Y-46808527I-141421J-141421D01*
G01*
X172518247Y-47869187D01*
G75*
G02*
X172235405Y-47869187I-141421J141421D01*
G01*
G37*
G36*
G01*
X171669720Y-47303502D02*
X171316166Y-46949948D01*
G75*
G02*
X171316166Y-46667106I141421J141421D01*
G01*
X172376826Y-45606446D01*
G75*
G02*
X172659668Y-45606446I141421J-141421D01*
G01*
X173013222Y-45960000D01*
G75*
G02*
X173013222Y-46242842I-141421J-141421D01*
G01*
X171952562Y-47303502D01*
G75*
G02*
X171669720Y-47303502I-141421J141421D01*
G01*
G37*
G36*
G01*
X171104034Y-46737816D02*
X170750480Y-46384262D01*
G75*
G02*
X170750480Y-46101420I141421J141421D01*
G01*
X171811140Y-45040760D01*
G75*
G02*
X172093982Y-45040760I141421J-141421D01*
G01*
X172447536Y-45394314D01*
G75*
G02*
X172447536Y-45677156I-141421J-141421D01*
G01*
X171386876Y-46737816D01*
G75*
G02*
X171104034Y-46737816I-141421J141421D01*
G01*
G37*
G36*
G01*
X170538349Y-46172131D02*
X170184795Y-45818577D01*
G75*
G02*
X170184795Y-45535735I141421J141421D01*
G01*
X171245455Y-44475075D01*
G75*
G02*
X171528297Y-44475075I141421J-141421D01*
G01*
X171881851Y-44828629D01*
G75*
G02*
X171881851Y-45111471I-141421J-141421D01*
G01*
X170821191Y-46172131D01*
G75*
G02*
X170538349Y-46172131I-141421J141421D01*
G01*
G37*
%TD*%
%TO.C,SW1*%
G36*
G01*
X198254320Y-52704500D02*
X197154320Y-52704500D01*
G75*
G02*
X196951120Y-52501300I0J203200D01*
G01*
X196951120Y-50701300D01*
G75*
G02*
X197154320Y-50498100I203200J0D01*
G01*
X198254320Y-50498100D01*
G75*
G02*
X198457520Y-50701300I0J-203200D01*
G01*
X198457520Y-52501300D01*
G75*
G02*
X198254320Y-52704500I-203200J0D01*
G01*
G37*
G36*
G01*
X194554320Y-46504500D02*
X193454320Y-46504500D01*
G75*
G02*
X193251120Y-46301300I0J203200D01*
G01*
X193251120Y-44501300D01*
G75*
G02*
X193454320Y-44298100I203200J0D01*
G01*
X194554320Y-44298100D01*
G75*
G02*
X194757520Y-44501300I0J-203200D01*
G01*
X194757520Y-46301300D01*
G75*
G02*
X194554320Y-46504500I-203200J0D01*
G01*
G37*
G36*
G01*
X194554320Y-52704500D02*
X193454320Y-52704500D01*
G75*
G02*
X193251120Y-52501300I0J203200D01*
G01*
X193251120Y-50701300D01*
G75*
G02*
X193454320Y-50498100I203200J0D01*
G01*
X194554320Y-50498100D01*
G75*
G02*
X194757520Y-50701300I0J-203200D01*
G01*
X194757520Y-52501300D01*
G75*
G02*
X194554320Y-52704500I-203200J0D01*
G01*
G37*
G36*
G01*
X198254320Y-46504500D02*
X197154320Y-46504500D01*
G75*
G02*
X196951120Y-46301300I0J203200D01*
G01*
X196951120Y-44501300D01*
G75*
G02*
X197154320Y-44298100I203200J0D01*
G01*
X198254320Y-44298100D01*
G75*
G02*
X198457520Y-44501300I0J-203200D01*
G01*
X198457520Y-46301300D01*
G75*
G02*
X198254320Y-46504500I-203200J0D01*
G01*
G37*
%TD*%
%TO.C,R6*%
G36*
G01*
X182556600Y-35031000D02*
X182556600Y-35784200D01*
G75*
G02*
X182255000Y-36085800I-301600J0D01*
G01*
X181651800Y-36085800D01*
G75*
G02*
X181350200Y-35784200I0J301600D01*
G01*
X181350200Y-35031000D01*
G75*
G02*
X181651800Y-34729400I301600J0D01*
G01*
X182255000Y-34729400D01*
G75*
G02*
X182556600Y-35031000I0J-301600D01*
G01*
G37*
G36*
G01*
X184206600Y-35031000D02*
X184206600Y-35784200D01*
G75*
G02*
X183905000Y-36085800I-301600J0D01*
G01*
X183301800Y-36085800D01*
G75*
G02*
X183000200Y-35784200I0J301600D01*
G01*
X183000200Y-35031000D01*
G75*
G02*
X183301800Y-34729400I301600J0D01*
G01*
X183905000Y-34729400D01*
G75*
G02*
X184206600Y-35031000I0J-301600D01*
G01*
G37*
%TD*%
%TO.C,R5*%
G36*
G01*
X167088000Y-46486400D02*
X167088000Y-47239600D01*
G75*
G02*
X166786400Y-47541200I-301600J0D01*
G01*
X166183200Y-47541200D01*
G75*
G02*
X165881600Y-47239600I0J301600D01*
G01*
X165881600Y-46486400D01*
G75*
G02*
X166183200Y-46184800I301600J0D01*
G01*
X166786400Y-46184800D01*
G75*
G02*
X167088000Y-46486400I0J-301600D01*
G01*
G37*
G36*
G01*
X168738000Y-46486400D02*
X168738000Y-47239600D01*
G75*
G02*
X168436400Y-47541200I-301600J0D01*
G01*
X167833200Y-47541200D01*
G75*
G02*
X167531600Y-47239600I0J301600D01*
G01*
X167531600Y-46486400D01*
G75*
G02*
X167833200Y-46184800I301600J0D01*
G01*
X168436400Y-46184800D01*
G75*
G02*
X168738000Y-46486400I0J-301600D01*
G01*
G37*
%TD*%
%TO.C,R4*%
G36*
G01*
X168104000Y-48112000D02*
X168104000Y-48865200D01*
G75*
G02*
X167802400Y-49166800I-301600J0D01*
G01*
X167199200Y-49166800D01*
G75*
G02*
X166897600Y-48865200I0J301600D01*
G01*
X166897600Y-48112000D01*
G75*
G02*
X167199200Y-47810400I301600J0D01*
G01*
X167802400Y-47810400D01*
G75*
G02*
X168104000Y-48112000I0J-301600D01*
G01*
G37*
G36*
G01*
X169754000Y-48112000D02*
X169754000Y-48865200D01*
G75*
G02*
X169452400Y-49166800I-301600J0D01*
G01*
X168849200Y-49166800D01*
G75*
G02*
X168547600Y-48865200I0J301600D01*
G01*
X168547600Y-48112000D01*
G75*
G02*
X168849200Y-47810400I301600J0D01*
G01*
X169452400Y-47810400D01*
G75*
G02*
X169754000Y-48112000I0J-301600D01*
G01*
G37*
%TD*%
%TO.C,R2*%
G36*
G01*
X101268290Y-42269633D02*
X101800883Y-41737040D01*
G75*
G02*
X102227409Y-41737040I213263J-213263D01*
G01*
X102653936Y-42163567D01*
G75*
G02*
X102653936Y-42590093I-213263J-213263D01*
G01*
X102121343Y-43122686D01*
G75*
G02*
X101694817Y-43122686I-213263J213263D01*
G01*
X101268290Y-42696159D01*
G75*
G02*
X101268290Y-42269633I213263J213263D01*
G01*
G37*
G36*
G01*
X100101564Y-41102907D02*
X100634157Y-40570314D01*
G75*
G02*
X101060683Y-40570314I213263J-213263D01*
G01*
X101487210Y-40996841D01*
G75*
G02*
X101487210Y-41423367I-213263J-213263D01*
G01*
X100954617Y-41955960D01*
G75*
G02*
X100528091Y-41955960I-213263J213263D01*
G01*
X100101564Y-41529433D01*
G75*
G02*
X100101564Y-41102907I213263J213263D01*
G01*
G37*
%TD*%
%TO.C,R1*%
G36*
G01*
X104443290Y-40999633D02*
X104975883Y-40467040D01*
G75*
G02*
X105402409Y-40467040I213263J-213263D01*
G01*
X105828936Y-40893567D01*
G75*
G02*
X105828936Y-41320093I-213263J-213263D01*
G01*
X105296343Y-41852686D01*
G75*
G02*
X104869817Y-41852686I-213263J213263D01*
G01*
X104443290Y-41426159D01*
G75*
G02*
X104443290Y-40999633I213263J213263D01*
G01*
G37*
G36*
G01*
X103276564Y-39832907D02*
X103809157Y-39300314D01*
G75*
G02*
X104235683Y-39300314I213263J-213263D01*
G01*
X104662210Y-39726841D01*
G75*
G02*
X104662210Y-40153367I-213263J-213263D01*
G01*
X104129617Y-40685960D01*
G75*
G02*
X103703091Y-40685960I-213263J213263D01*
G01*
X103276564Y-40259433D01*
G75*
G02*
X103276564Y-39832907I213263J213263D01*
G01*
G37*
%TD*%
%TO.C,C1*%
G36*
G01*
X170210600Y-49762600D02*
X170210600Y-50465800D01*
G75*
G02*
X169884000Y-50792400I-326600J0D01*
G01*
X169230800Y-50792400D01*
G75*
G02*
X168904200Y-50465800I0J326600D01*
G01*
X168904200Y-49762600D01*
G75*
G02*
X169230800Y-49436000I326600J0D01*
G01*
X169884000Y-49436000D01*
G75*
G02*
X170210600Y-49762600I0J-326600D01*
G01*
G37*
G36*
G01*
X171760600Y-49762600D02*
X171760600Y-50465800D01*
G75*
G02*
X171434000Y-50792400I-326600J0D01*
G01*
X170780800Y-50792400D01*
G75*
G02*
X170454200Y-50465800I0J326600D01*
G01*
X170454200Y-49762600D01*
G75*
G02*
X170780800Y-49436000I326600J0D01*
G01*
X171434000Y-49436000D01*
G75*
G02*
X171760600Y-49762600I0J-326600D01*
G01*
G37*
%TD*%
D13*
%TO.C,H99*%
X361384850Y-166090600D03*
X355619050Y-121920000D03*
X309848250Y-158013400D03*
X213506050Y-140309600D03*
X276244050Y-91846400D03*
X214141050Y-37388800D03*
X297072050Y-37388800D03*
X347872050Y-37388800D03*
%TD*%
M02*
