M48
; DRILL file {KiCad (5.1.9)-1} date 02/19/21 15:09:28
; FORMAT={-:-/ absolute / inch / decimal}
; #@! TF.CreationDate,2021-02-19T15:09:28+09:00
; #@! TF.GenerationSoftware,Kicad,Pcbnew,(5.1.9)-1
; #@! TF.FileFunction,Plated,1,2,PTH
FMAT,2
INCH
T1C0.0200
T2C0.0300
T3C0.0390
T4C0.0430
%
G90
G05
T1
X1.0784Y-5.7973
X1.3528Y-6.5346
X1.6659Y-7.2059
X1.7211Y-5.4945
X1.9482Y-6.3953
X2.2813Y-6.6943
X2.4198Y-5.6561
X2.7762Y-6.4504
X2.8318Y-2.2283
X2.8525Y-4.9125
X2.877Y-3.7895
X3.0957Y-5.3412
X3.2107Y-6.4672
X3.284Y-4.5984
X3.2872Y-2.3302
X3.307Y-3.8571
X3.319Y-3.1152
X3.444Y-6.0927
X4.026Y-2.2866
X4.0355Y-3.02
X4.0363Y-3.8142
X4.0399Y-4.549
X4.0671Y-1.724
X4.0935Y-5.2917
X4.19Y-1.554
X4.3084Y-1.7913
X4.4147Y-2.0645
X4.5461Y-2.0273
X4.641Y-5.7424
X4.7717Y-4.4785
X4.7768Y-3.0117
X4.7829Y-5.2472
X4.7862Y-2.2639
X4.7884Y-3.7528
X5.5282Y-3.0448
X5.5399Y-4.551
X5.5408Y-2.265
X5.5486Y-5.2575
X5.569Y-1.777
X5.679Y-3.722
X6.0877Y-1.7946
X6.1043Y-4.3276
X6.1071Y-3.5305
X6.121Y-2.9008
X6.128Y-2.4154
X6.1324Y-2.3259
X6.137Y-5.0998
X6.2127Y-5.1001
X6.2442Y-4.3296
X6.2764Y-3.537
X6.2784Y-5.3633
X6.2905Y-4.6687
X6.2913Y-3.9036
X6.3073Y-2.8984
X6.359Y-2.4453
X6.3693Y-3.1226
X6.3712Y-1.403
X6.4382Y-2.2241
X6.4687Y-1.6218
X6.4839Y-1.7946
X6.5004Y-1.8469
X6.5314Y-1.9154
X6.6249Y-1.9764
X6.695Y-1.642
X6.823Y-2.0098
X6.8256Y-1.9626
X6.8483Y-2.3193
X6.8633Y-2.0085
X6.8838Y-2.3508
X6.8891Y-2.0502
X6.9198Y-2.0724
X6.9323Y-1.4057
X7.0337Y-5.4141
X7.149Y-2.008
X7.154Y-2.2715
X7.2047Y-2.4136
X7.2179Y-4.605
X7.2269Y-3.1745
X7.2317Y-3.8743
X7.2336Y-2.2634
X7.273Y-1.399
X7.286Y-1.514
X7.2936Y-2.2585
X7.299Y-1.477
X7.3049Y-1.6139
X7.3329Y-1.9255
X7.3694Y-1.9014
X7.408Y-1.533
X7.411Y-1.8916
X7.4611Y-1.894
X7.5636Y-1.445
X7.7342Y-2.3622
X8.578Y-3.908
X8.586Y-2.42
X8.59Y-3.16
X8.596Y-4.666
X8.614Y-1.804
X8.614Y-1.84
X8.614Y-1.876
X8.614Y-1.914
X8.67Y-1.768
X8.67Y-1.963
X8.766Y-5.4
X8.868Y-1.99
X8.986Y-1.412
X9.031Y-1.3762
X9.244Y-1.512
X9.261Y-1.569
X9.466Y-3.912
X9.468Y-5.418
X9.47Y-2.386
X9.472Y-3.146
X9.472Y-4.65
X9.914Y-2.266
X9.958Y-3.054
X9.97Y-3.804
X9.992Y-4.544
X10.04Y-5.296
X10.256Y-4.544
X10.258Y-3.054
X10.278Y-3.796
X10.288Y-2.256
X10.372Y-5.18
X10.956Y-5.264
X10.964Y-3.01
X10.966Y-2.24
X10.968Y-4.482
X11.122Y-3.676
X11.636Y-5.41
X11.714Y-2.308
X11.714Y-3.056
X11.714Y-4.556
X11.72Y-3.792
X12.454Y-3.084
X12.46Y-4.578
X12.466Y-2.28
X12.468Y-3.84
X12.5063Y-6.5373
X12.642Y-6.512
X12.966Y-5.076
X12.992Y-5.856
X13.178Y-6.808
X13.216Y-2.316
X13.32Y-5.088
X13.498Y-4.352
X13.58Y-7.0378
X13.606Y-3.116
X13.664Y-6.166
X14.016Y-5.222
X14.07Y-6.904
X14.101Y-6.373
X14.176Y-6.298
X14.67Y-5.544
T2
X5.3221Y-1.4777
X5.3536Y-1.4305
X5.3851Y-1.4777
X5.4166Y-1.4305
X5.4481Y-1.4777
X10.8677Y-1.4777
X10.8993Y-1.4305
X10.9307Y-1.4777
X10.9622Y-1.4305
X10.9938Y-1.4777
T3
X2.7662Y-2.773
X2.8662Y-2.773
X3.0162Y-3.4604
X3.0162Y-3.5604
X3.0162Y-4.5854
X3.0162Y-4.6854
X4.7038Y-1.86
X5.1037Y-1.86
X5.1601Y-1.365
X5.2901Y-1.595
X5.3851Y-1.595
X5.4801Y-1.595
X5.6101Y-1.365
X5.6122Y-1.8639
X5.6872Y-1.9389
X5.895Y-1.5811
X5.97Y-1.6561
X10.2726Y-1.6086
X10.4212Y-1.5812
X10.5554Y-1.8914
X10.704Y-1.864
X10.7058Y-1.365
X10.8357Y-1.595
X10.9307Y-1.595
X11.0258Y-1.595
X11.1557Y-1.365
X13.3Y-3.46
X13.3Y-3.56
X13.45Y-2.773
X13.55Y-2.773
T4
X3.2221Y-1.521
X3.3011Y-1.643
X3.4271Y-1.643
X3.5061Y-1.521
X12.81Y-1.521
X12.889Y-1.643
X13.015Y-1.643
X13.094Y-1.521
T2
G00X5.2415Y-1.2564
M15
G01X5.2415Y-1.3014
M16
G05
G00X5.5287Y-1.2564
M15
G01X5.5287Y-1.3014
M16
G05
G00X10.7872Y-1.2564
M15
G01X10.7872Y-1.3014
M16
G05
G00X11.0743Y-1.2564
M15
G01X11.0743Y-1.3014
M16
G05
T4
G00X3.1871Y-1.324
M15
G01X3.1751Y-1.324
M16
G05
G00X3.5531Y-1.324
M15
G01X3.5411Y-1.324
M16
G05
G00X12.775Y-1.324
M15
G01X12.763Y-1.324
M16
G05
G00X13.141Y-1.324
M15
G01X13.129Y-1.324
M16
G05
T0
M30
