%TF.GenerationSoftware,KiCad,Pcbnew,(5.1.9)-1*%
%TF.CreationDate,2021-02-19T15:09:25+09:00*%
%TF.ProjectId,ErgoDOX,4572676f-444f-4582-9e6b-696361645f70,rev?*%
%TF.SameCoordinates,Original*%
%TF.FileFunction,Legend,Top*%
%TF.FilePolarity,Positive*%
%FSLAX46Y46*%
G04 Gerber Fmt 4.6, Leading zero omitted, Abs format (unit mm)*
G04 Created by KiCad (PCBNEW (5.1.9)-1) date 2021-02-19 15:09:25*
%MOMM*%
%LPD*%
G01*
G04 APERTURE LIST*
%ADD10C,0.203200*%
%ADD11C,0.304800*%
%ADD12C,0.508000*%
%ADD13C,0.381000*%
%ADD14C,0.120000*%
%ADD15C,0.127000*%
%ADD16C,0.200000*%
%ADD17C,0.254000*%
%ADD18C,0.150000*%
%ADD19C,0.015000*%
%ADD20C,0.050000*%
G04 APERTURE END LIST*
D10*
X144325400Y-35253809D02*
X144325400Y-34237809D01*
X144627781Y-34237809D01*
X144809210Y-34286190D01*
X144930162Y-34382951D01*
X144990638Y-34479713D01*
X145051114Y-34673237D01*
X145051114Y-34818380D01*
X144990638Y-35011904D01*
X144930162Y-35108666D01*
X144809210Y-35205428D01*
X144627781Y-35253809D01*
X144325400Y-35253809D01*
X145595400Y-34866761D02*
X146563019Y-34866761D01*
X128301750Y-35253809D02*
X128301750Y-34237809D01*
X128906511Y-35253809D02*
X128906511Y-34237809D01*
X129208892Y-34237809D01*
X129390321Y-34286190D01*
X129511273Y-34382951D01*
X129571750Y-34479713D01*
X129632226Y-34673237D01*
X129632226Y-34818380D01*
X129571750Y-35011904D01*
X129511273Y-35108666D01*
X129390321Y-35205428D01*
X129208892Y-35253809D01*
X128906511Y-35253809D01*
X130378320Y-40132000D02*
X130257368Y-40083619D01*
X130075940Y-40083619D01*
X129894511Y-40132000D01*
X129773559Y-40228761D01*
X129713082Y-40325523D01*
X129652606Y-40519047D01*
X129652606Y-40664190D01*
X129713082Y-40857714D01*
X129773559Y-40954476D01*
X129894511Y-41051238D01*
X130075940Y-41099619D01*
X130196892Y-41099619D01*
X130378320Y-41051238D01*
X130438797Y-41002857D01*
X130438797Y-40664190D01*
X130196892Y-40664190D01*
X130983082Y-41099619D02*
X130983082Y-40083619D01*
X131708797Y-41099619D01*
X131708797Y-40083619D01*
X132313559Y-41099619D02*
X132313559Y-40083619D01*
X132615940Y-40083619D01*
X132797368Y-40132000D01*
X132918320Y-40228761D01*
X132978797Y-40325523D01*
X133039273Y-40519047D01*
X133039273Y-40664190D01*
X132978797Y-40857714D01*
X132918320Y-40954476D01*
X132797368Y-41051238D01*
X132615940Y-41099619D01*
X132313559Y-41099619D01*
X128297940Y-35257619D02*
X128297940Y-34241619D01*
X128902701Y-35257619D02*
X128902701Y-34241619D01*
X129205082Y-34241619D01*
X129386511Y-34290000D01*
X129507463Y-34386761D01*
X129567940Y-34483523D01*
X129628416Y-34677047D01*
X129628416Y-34822190D01*
X129567940Y-35015714D01*
X129507463Y-35112476D01*
X129386511Y-35209238D01*
X129205082Y-35257619D01*
X128902701Y-35257619D01*
X135688130Y-42877619D02*
X135688130Y-41861619D01*
X135990511Y-41861619D01*
X136171940Y-41910000D01*
X136292892Y-42006761D01*
X136353368Y-42103523D01*
X136413844Y-42297047D01*
X136413844Y-42442190D01*
X136353368Y-42635714D01*
X136292892Y-42732476D01*
X136171940Y-42829238D01*
X135990511Y-42877619D01*
X135688130Y-42877619D01*
X136958130Y-42490571D02*
X137925749Y-42490571D01*
X137441940Y-42877619D02*
X137441940Y-42103523D01*
X141391035Y-40083619D02*
X140786273Y-40083619D01*
X140725797Y-40567428D01*
X140786273Y-40519047D01*
X140907225Y-40470666D01*
X141209606Y-40470666D01*
X141330559Y-40519047D01*
X141391035Y-40567428D01*
X141451511Y-40664190D01*
X141451511Y-40906095D01*
X141391035Y-41002857D01*
X141330559Y-41051238D01*
X141209606Y-41099619D01*
X140907225Y-41099619D01*
X140786273Y-41051238D01*
X140725797Y-41002857D01*
X141814368Y-40083619D02*
X142237701Y-41099619D01*
X142661035Y-40083619D01*
X144321590Y-35257619D02*
X144321590Y-34241619D01*
X144623971Y-34241619D01*
X144805400Y-34290000D01*
X144926352Y-34386761D01*
X144986828Y-34483523D01*
X145047304Y-34677047D01*
X145047304Y-34822190D01*
X144986828Y-35015714D01*
X144926352Y-35112476D01*
X144805400Y-35209238D01*
X144623971Y-35257619D01*
X144321590Y-35257619D01*
X145591590Y-34870571D02*
X146559209Y-34870571D01*
D11*
X257848463Y-52788457D02*
X257340463Y-52788457D01*
X257340463Y-53852838D02*
X257340463Y-51820838D01*
X258066177Y-51820838D01*
X259517606Y-53852838D02*
X259009606Y-52885219D01*
X258646748Y-53852838D02*
X258646748Y-51820838D01*
X259227320Y-51820838D01*
X259372463Y-51917600D01*
X259445034Y-52014361D01*
X259517606Y-52207885D01*
X259517606Y-52498171D01*
X259445034Y-52691695D01*
X259372463Y-52788457D01*
X259227320Y-52885219D01*
X258646748Y-52885219D01*
X260823891Y-52498171D02*
X260823891Y-53852838D01*
X260461034Y-51724076D02*
X260098177Y-53175504D01*
X261041606Y-53175504D01*
X262565606Y-51820838D02*
X263436463Y-51820838D01*
X263001034Y-53852838D02*
X263001034Y-51820838D01*
X264597606Y-52498171D02*
X264597606Y-54143123D01*
X264525034Y-54336647D01*
X264452463Y-54433409D01*
X264307320Y-54530171D01*
X264089606Y-54530171D01*
X263944463Y-54433409D01*
X264597606Y-53756076D02*
X264452463Y-53852838D01*
X264162177Y-53852838D01*
X264017034Y-53756076D01*
X263944463Y-53659314D01*
X263871891Y-53465790D01*
X263871891Y-52885219D01*
X263944463Y-52691695D01*
X264017034Y-52594933D01*
X264162177Y-52498171D01*
X264452463Y-52498171D01*
X264597606Y-52594933D01*
X266121606Y-53852838D02*
X265250748Y-53852838D01*
X265686177Y-53852838D02*
X265686177Y-51820838D01*
X265541034Y-52111123D01*
X265395891Y-52304647D01*
X265250748Y-52401409D01*
X266629606Y-51820838D02*
X267645606Y-51820838D01*
X266992463Y-53852838D01*
X268516463Y-51820838D02*
X268661606Y-51820838D01*
X268806748Y-51917600D01*
X268879320Y-52014361D01*
X268951891Y-52207885D01*
X269024463Y-52594933D01*
X269024463Y-53078742D01*
X268951891Y-53465790D01*
X268879320Y-53659314D01*
X268806748Y-53756076D01*
X268661606Y-53852838D01*
X268516463Y-53852838D01*
X268371320Y-53756076D01*
X268298748Y-53659314D01*
X268226177Y-53465790D01*
X268153606Y-53078742D01*
X268153606Y-52594933D01*
X268226177Y-52207885D01*
X268298748Y-52014361D01*
X268371320Y-51917600D01*
X268516463Y-51820838D01*
X269895320Y-51820838D02*
X269750177Y-51917600D01*
X269677606Y-52111123D01*
X269750177Y-52304647D01*
X269895320Y-52401409D01*
X270040463Y-52304647D01*
X270113034Y-52111123D01*
X270040463Y-51917600D01*
X269895320Y-51820838D01*
X272725606Y-53852838D02*
X271999891Y-53852838D01*
X271999891Y-51820838D01*
X273886748Y-53852838D02*
X273886748Y-52788457D01*
X273814177Y-52594933D01*
X273669034Y-52498171D01*
X273378748Y-52498171D01*
X273233606Y-52594933D01*
X273886748Y-53756076D02*
X273741606Y-53852838D01*
X273378748Y-53852838D01*
X273233606Y-53756076D01*
X273161034Y-53562552D01*
X273161034Y-53369028D01*
X273233606Y-53175504D01*
X273378748Y-53078742D01*
X273741606Y-53078742D01*
X273886748Y-52981980D01*
X274612463Y-53852838D02*
X274612463Y-52498171D01*
X274612463Y-52691695D02*
X274685034Y-52594933D01*
X274830177Y-52498171D01*
X275047891Y-52498171D01*
X275193034Y-52594933D01*
X275265606Y-52788457D01*
X275265606Y-53852838D01*
X275265606Y-52788457D02*
X275338177Y-52594933D01*
X275483320Y-52498171D01*
X275701034Y-52498171D01*
X275846177Y-52594933D01*
X275918748Y-52788457D01*
X275918748Y-53852838D01*
X276644463Y-53852838D02*
X276644463Y-52498171D01*
X276644463Y-51820838D02*
X276571891Y-51917600D01*
X276644463Y-52014361D01*
X276717034Y-51917600D01*
X276644463Y-51820838D01*
X276644463Y-52014361D01*
X277370177Y-52498171D02*
X277370177Y-53852838D01*
X277370177Y-52691695D02*
X277442748Y-52594933D01*
X277587891Y-52498171D01*
X277805606Y-52498171D01*
X277950748Y-52594933D01*
X278023320Y-52788457D01*
X278023320Y-53852838D01*
X279402177Y-53852838D02*
X279402177Y-52788457D01*
X279329606Y-52594933D01*
X279184463Y-52498171D01*
X278894177Y-52498171D01*
X278749034Y-52594933D01*
X279402177Y-53756076D02*
X279257034Y-53852838D01*
X278894177Y-53852838D01*
X278749034Y-53756076D01*
X278676463Y-53562552D01*
X278676463Y-53369028D01*
X278749034Y-53175504D01*
X278894177Y-53078742D01*
X279257034Y-53078742D01*
X279402177Y-52981980D01*
X279910177Y-52498171D02*
X280490748Y-52498171D01*
X280127891Y-51820838D02*
X280127891Y-53562552D01*
X280200463Y-53756076D01*
X280345606Y-53852838D01*
X280490748Y-53852838D01*
X281579320Y-53756076D02*
X281434177Y-53852838D01*
X281143891Y-53852838D01*
X280998748Y-53756076D01*
X280926177Y-53562552D01*
X280926177Y-52788457D01*
X280998748Y-52594933D01*
X281143891Y-52498171D01*
X281434177Y-52498171D01*
X281579320Y-52594933D01*
X281651891Y-52788457D01*
X281651891Y-52981980D01*
X280926177Y-53175504D01*
X257267891Y-55367161D02*
X257340463Y-55270400D01*
X257485606Y-55173638D01*
X257848463Y-55173638D01*
X257993606Y-55270400D01*
X258066177Y-55367161D01*
X258138748Y-55560685D01*
X258138748Y-55754209D01*
X258066177Y-56044495D01*
X257195320Y-57205638D01*
X258138748Y-57205638D01*
X259445034Y-55850971D02*
X259445034Y-57205638D01*
X259082177Y-55076876D02*
X258719320Y-56528304D01*
X259662748Y-56528304D01*
X260243320Y-57205638D02*
X260243320Y-55850971D01*
X260243320Y-56044495D02*
X260315891Y-55947733D01*
X260461034Y-55850971D01*
X260678748Y-55850971D01*
X260823891Y-55947733D01*
X260896463Y-56141257D01*
X260896463Y-57205638D01*
X260896463Y-56141257D02*
X260969034Y-55947733D01*
X261114177Y-55850971D01*
X261331891Y-55850971D01*
X261477034Y-55947733D01*
X261549606Y-56141257D01*
X261549606Y-57205638D01*
X262275320Y-57205638D02*
X262275320Y-55850971D01*
X262275320Y-55173638D02*
X262202748Y-55270400D01*
X262275320Y-55367161D01*
X262347891Y-55270400D01*
X262275320Y-55173638D01*
X262275320Y-55367161D01*
X263218748Y-57205638D02*
X263073606Y-57108876D01*
X263001034Y-56915352D01*
X263001034Y-55173638D01*
X264742748Y-55850971D02*
X265323320Y-55850971D01*
X264960463Y-55173638D02*
X264960463Y-56915352D01*
X265033034Y-57108876D01*
X265178177Y-57205638D01*
X265323320Y-57205638D01*
X265831320Y-57205638D02*
X265831320Y-55850971D01*
X265831320Y-56238019D02*
X265903891Y-56044495D01*
X265976463Y-55947733D01*
X266121606Y-55850971D01*
X266266748Y-55850971D01*
X267427891Y-57205638D02*
X267427891Y-56141257D01*
X267355320Y-55947733D01*
X267210177Y-55850971D01*
X266919891Y-55850971D01*
X266774748Y-55947733D01*
X267427891Y-57108876D02*
X267282748Y-57205638D01*
X266919891Y-57205638D01*
X266774748Y-57108876D01*
X266702177Y-56915352D01*
X266702177Y-56721828D01*
X266774748Y-56528304D01*
X266919891Y-56431542D01*
X267282748Y-56431542D01*
X267427891Y-56334780D01*
X268806748Y-57108876D02*
X268661606Y-57205638D01*
X268371320Y-57205638D01*
X268226177Y-57108876D01*
X268153606Y-57012114D01*
X268081034Y-56818590D01*
X268081034Y-56238019D01*
X268153606Y-56044495D01*
X268226177Y-55947733D01*
X268371320Y-55850971D01*
X268661606Y-55850971D01*
X268806748Y-55947733D01*
X270040463Y-57108876D02*
X269895320Y-57205638D01*
X269605034Y-57205638D01*
X269459891Y-57108876D01*
X269387320Y-56915352D01*
X269387320Y-56141257D01*
X269459891Y-55947733D01*
X269605034Y-55850971D01*
X269895320Y-55850971D01*
X270040463Y-55947733D01*
X270113034Y-56141257D01*
X270113034Y-56334780D01*
X269387320Y-56528304D01*
X270693606Y-57108876D02*
X270838748Y-57205638D01*
X271129034Y-57205638D01*
X271274177Y-57108876D01*
X271346748Y-56915352D01*
X271346748Y-56818590D01*
X271274177Y-56625066D01*
X271129034Y-56528304D01*
X270911320Y-56528304D01*
X270766177Y-56431542D01*
X270693606Y-56238019D01*
X270693606Y-56141257D01*
X270766177Y-55947733D01*
X270911320Y-55850971D01*
X271129034Y-55850971D01*
X271274177Y-55947733D01*
X273378748Y-57205638D02*
X273233606Y-57108876D01*
X273161034Y-57012114D01*
X273088463Y-56818590D01*
X273088463Y-56238019D01*
X273161034Y-56044495D01*
X273233606Y-55947733D01*
X273378748Y-55850971D01*
X273596463Y-55850971D01*
X273741606Y-55947733D01*
X273814177Y-56044495D01*
X273886748Y-56238019D01*
X273886748Y-56818590D01*
X273814177Y-57012114D01*
X273741606Y-57108876D01*
X273596463Y-57205638D01*
X273378748Y-57205638D01*
X274539891Y-55850971D02*
X274539891Y-57205638D01*
X274539891Y-56044495D02*
X274612463Y-55947733D01*
X274757606Y-55850971D01*
X274975320Y-55850971D01*
X275120463Y-55947733D01*
X275193034Y-56141257D01*
X275193034Y-57205638D01*
X277878177Y-57205638D02*
X277007320Y-57205638D01*
X277442748Y-57205638D02*
X277442748Y-55173638D01*
X277297606Y-55463923D01*
X277152463Y-55657447D01*
X277007320Y-55754209D01*
X278749034Y-57205638D02*
X278603891Y-57108876D01*
X278531320Y-57012114D01*
X278458748Y-56818590D01*
X278458748Y-56238019D01*
X278531320Y-56044495D01*
X278603891Y-55947733D01*
X278749034Y-55850971D01*
X278966748Y-55850971D01*
X279111891Y-55947733D01*
X279184463Y-56044495D01*
X279257034Y-56238019D01*
X279257034Y-56818590D01*
X279184463Y-57012114D01*
X279111891Y-57108876D01*
X278966748Y-57205638D01*
X278749034Y-57205638D01*
X279765034Y-55850971D02*
X280563320Y-55850971D01*
X279765034Y-57205638D01*
X280563320Y-57205638D01*
X282958177Y-57108876D02*
X282813034Y-57205638D01*
X282522748Y-57205638D01*
X282377606Y-57108876D01*
X282305034Y-57012114D01*
X282232463Y-56818590D01*
X282232463Y-56238019D01*
X282305034Y-56044495D01*
X282377606Y-55947733D01*
X282522748Y-55850971D01*
X282813034Y-55850971D01*
X282958177Y-55947733D01*
X283829034Y-57205638D02*
X283683891Y-57108876D01*
X283611320Y-57012114D01*
X283538748Y-56818590D01*
X283538748Y-56238019D01*
X283611320Y-56044495D01*
X283683891Y-55947733D01*
X283829034Y-55850971D01*
X284046748Y-55850971D01*
X284191891Y-55947733D01*
X284264463Y-56044495D01*
X284337034Y-56238019D01*
X284337034Y-56818590D01*
X284264463Y-57012114D01*
X284191891Y-57108876D01*
X284046748Y-57205638D01*
X283829034Y-57205638D01*
X284990177Y-55850971D02*
X284990177Y-57882971D01*
X284990177Y-55947733D02*
X285135320Y-55850971D01*
X285425606Y-55850971D01*
X285570748Y-55947733D01*
X285643320Y-56044495D01*
X285715891Y-56238019D01*
X285715891Y-56818590D01*
X285643320Y-57012114D01*
X285570748Y-57108876D01*
X285425606Y-57205638D01*
X285135320Y-57205638D01*
X284990177Y-57108876D01*
X286369034Y-55850971D02*
X286369034Y-57882971D01*
X286369034Y-55947733D02*
X286514177Y-55850971D01*
X286804463Y-55850971D01*
X286949606Y-55947733D01*
X287022177Y-56044495D01*
X287094748Y-56238019D01*
X287094748Y-56818590D01*
X287022177Y-57012114D01*
X286949606Y-57108876D01*
X286804463Y-57205638D01*
X286514177Y-57205638D01*
X286369034Y-57108876D01*
X288328463Y-57108876D02*
X288183320Y-57205638D01*
X287893034Y-57205638D01*
X287747891Y-57108876D01*
X287675320Y-56915352D01*
X287675320Y-56141257D01*
X287747891Y-55947733D01*
X287893034Y-55850971D01*
X288183320Y-55850971D01*
X288328463Y-55947733D01*
X288401034Y-56141257D01*
X288401034Y-56334780D01*
X287675320Y-56528304D01*
X289054177Y-57205638D02*
X289054177Y-55850971D01*
X289054177Y-56238019D02*
X289126748Y-56044495D01*
X289199320Y-55947733D01*
X289344463Y-55850971D01*
X289489606Y-55850971D01*
X331948685Y-130649238D02*
X331948685Y-128617238D01*
X332529257Y-128617238D01*
X332674400Y-128714000D01*
X332746971Y-128810761D01*
X332819542Y-129004285D01*
X332819542Y-129294571D01*
X332746971Y-129488095D01*
X332674400Y-129584857D01*
X332529257Y-129681619D01*
X331948685Y-129681619D01*
X333472685Y-130649238D02*
X333472685Y-129294571D01*
X333472685Y-129681619D02*
X333545257Y-129488095D01*
X333617828Y-129391333D01*
X333762971Y-129294571D01*
X333908114Y-129294571D01*
X334633828Y-130649238D02*
X334488685Y-130552476D01*
X334416114Y-130455714D01*
X334343542Y-130262190D01*
X334343542Y-129681619D01*
X334416114Y-129488095D01*
X334488685Y-129391333D01*
X334633828Y-129294571D01*
X334851542Y-129294571D01*
X334996685Y-129391333D01*
X335069257Y-129488095D01*
X335141828Y-129681619D01*
X335141828Y-130262190D01*
X335069257Y-130455714D01*
X334996685Y-130552476D01*
X334851542Y-130649238D01*
X334633828Y-130649238D01*
X335577257Y-129294571D02*
X336157828Y-129294571D01*
X335794971Y-130649238D02*
X335794971Y-128907523D01*
X335867542Y-128714000D01*
X336012685Y-128617238D01*
X336157828Y-128617238D01*
X337246400Y-130552476D02*
X337101257Y-130649238D01*
X336810971Y-130649238D01*
X336665828Y-130552476D01*
X336593257Y-130358952D01*
X336593257Y-129584857D01*
X336665828Y-129391333D01*
X336810971Y-129294571D01*
X337101257Y-129294571D01*
X337246400Y-129391333D01*
X337318971Y-129584857D01*
X337318971Y-129778380D01*
X336593257Y-129971904D01*
X337754400Y-129294571D02*
X338334971Y-129294571D01*
X337972114Y-128617238D02*
X337972114Y-130358952D01*
X338044685Y-130552476D01*
X338189828Y-130649238D01*
X338334971Y-130649238D01*
X338842971Y-130649238D02*
X338842971Y-128617238D01*
X339713828Y-130649238D02*
X339060685Y-129488095D01*
X339713828Y-128617238D02*
X338842971Y-129778380D01*
X340947542Y-130552476D02*
X340802400Y-130649238D01*
X340512114Y-130649238D01*
X340366971Y-130552476D01*
X340294400Y-130358952D01*
X340294400Y-129584857D01*
X340366971Y-129391333D01*
X340512114Y-129294571D01*
X340802400Y-129294571D01*
X340947542Y-129391333D01*
X341020114Y-129584857D01*
X341020114Y-129778380D01*
X340294400Y-129971904D01*
X341528114Y-129294571D02*
X341890971Y-130649238D01*
X342253828Y-129294571D02*
X341890971Y-130649238D01*
X341745828Y-131133047D01*
X341673257Y-131229809D01*
X341528114Y-131326571D01*
X342834400Y-130649238D02*
X342834400Y-128617238D01*
X342834400Y-129391333D02*
X342979542Y-129294571D01*
X343269828Y-129294571D01*
X343414971Y-129391333D01*
X343487542Y-129488095D01*
X343560114Y-129681619D01*
X343560114Y-130262190D01*
X343487542Y-130455714D01*
X343414971Y-130552476D01*
X343269828Y-130649238D01*
X342979542Y-130649238D01*
X342834400Y-130552476D01*
X344430971Y-130649238D02*
X344285828Y-130552476D01*
X344213257Y-130455714D01*
X344140685Y-130262190D01*
X344140685Y-129681619D01*
X344213257Y-129488095D01*
X344285828Y-129391333D01*
X344430971Y-129294571D01*
X344648685Y-129294571D01*
X344793828Y-129391333D01*
X344866400Y-129488095D01*
X344938971Y-129681619D01*
X344938971Y-130262190D01*
X344866400Y-130455714D01*
X344793828Y-130552476D01*
X344648685Y-130649238D01*
X344430971Y-130649238D01*
X346245257Y-130649238D02*
X346245257Y-129584857D01*
X346172685Y-129391333D01*
X346027542Y-129294571D01*
X345737257Y-129294571D01*
X345592114Y-129391333D01*
X346245257Y-130552476D02*
X346100114Y-130649238D01*
X345737257Y-130649238D01*
X345592114Y-130552476D01*
X345519542Y-130358952D01*
X345519542Y-130165428D01*
X345592114Y-129971904D01*
X345737257Y-129875142D01*
X346100114Y-129875142D01*
X346245257Y-129778380D01*
X346970971Y-130649238D02*
X346970971Y-129294571D01*
X346970971Y-129681619D02*
X347043542Y-129488095D01*
X347116114Y-129391333D01*
X347261257Y-129294571D01*
X347406400Y-129294571D01*
X348567542Y-130649238D02*
X348567542Y-128617238D01*
X348567542Y-130552476D02*
X348422400Y-130649238D01*
X348132114Y-130649238D01*
X347986971Y-130552476D01*
X347914400Y-130455714D01*
X347841828Y-130262190D01*
X347841828Y-129681619D01*
X347914400Y-129488095D01*
X347986971Y-129391333D01*
X348132114Y-129294571D01*
X348422400Y-129294571D01*
X348567542Y-129391333D01*
X349220685Y-130552476D02*
X349365828Y-130649238D01*
X349656114Y-130649238D01*
X349801257Y-130552476D01*
X349873828Y-130358952D01*
X349873828Y-130262190D01*
X349801257Y-130068666D01*
X349656114Y-129971904D01*
X349438400Y-129971904D01*
X349293257Y-129875142D01*
X349220685Y-129681619D01*
X349220685Y-129584857D01*
X349293257Y-129391333D01*
X349438400Y-129294571D01*
X349656114Y-129294571D01*
X349801257Y-129391333D01*
X350526971Y-130455714D02*
X350599542Y-130552476D01*
X350526971Y-130649238D01*
X350454400Y-130552476D01*
X350526971Y-130455714D01*
X350526971Y-130649238D01*
X351905828Y-130552476D02*
X351760685Y-130649238D01*
X351470400Y-130649238D01*
X351325257Y-130552476D01*
X351252685Y-130455714D01*
X351180114Y-130262190D01*
X351180114Y-129681619D01*
X351252685Y-129488095D01*
X351325257Y-129391333D01*
X351470400Y-129294571D01*
X351760685Y-129294571D01*
X351905828Y-129391333D01*
X352776685Y-130649238D02*
X352631542Y-130552476D01*
X352558971Y-130455714D01*
X352486400Y-130262190D01*
X352486400Y-129681619D01*
X352558971Y-129488095D01*
X352631542Y-129391333D01*
X352776685Y-129294571D01*
X352994400Y-129294571D01*
X353139542Y-129391333D01*
X353212114Y-129488095D01*
X353284685Y-129681619D01*
X353284685Y-130262190D01*
X353212114Y-130455714D01*
X353139542Y-130552476D01*
X352994400Y-130649238D01*
X352776685Y-130649238D01*
X353937828Y-130649238D02*
X353937828Y-129294571D01*
X353937828Y-129488095D02*
X354010400Y-129391333D01*
X354155542Y-129294571D01*
X354373257Y-129294571D01*
X354518400Y-129391333D01*
X354590971Y-129584857D01*
X354590971Y-130649238D01*
X354590971Y-129584857D02*
X354663542Y-129391333D01*
X354808685Y-129294571D01*
X355026400Y-129294571D01*
X355171542Y-129391333D01*
X355244114Y-129584857D01*
X355244114Y-130649238D01*
D12*
X349012933Y-99803857D02*
X347803409Y-99803857D01*
X347803409Y-96755857D01*
X349859600Y-98207285D02*
X350706267Y-98207285D01*
X351069124Y-99803857D02*
X349859600Y-99803857D01*
X349859600Y-96755857D01*
X351069124Y-96755857D01*
X353004362Y-98207285D02*
X352157695Y-98207285D01*
X352157695Y-99803857D02*
X352157695Y-96755857D01*
X353367219Y-96755857D01*
X353971981Y-96755857D02*
X355423409Y-96755857D01*
X354697695Y-99803857D02*
X354697695Y-96755857D01*
X347803409Y-104883857D02*
X347803409Y-101835857D01*
X347803409Y-103287285D02*
X349254838Y-103287285D01*
X349254838Y-104883857D02*
X349254838Y-101835857D01*
X350343409Y-104013000D02*
X351552933Y-104013000D01*
X350101505Y-104883857D02*
X350948171Y-101835857D01*
X351794838Y-104883857D01*
X352641505Y-104883857D02*
X352641505Y-101835857D01*
X354092933Y-104883857D01*
X354092933Y-101835857D01*
X355302457Y-104883857D02*
X355302457Y-101835857D01*
X355907219Y-101835857D01*
X356270076Y-101981000D01*
X356511981Y-102271285D01*
X356632933Y-102561571D01*
X356753886Y-103142142D01*
X356753886Y-103577571D01*
X356632933Y-104158142D01*
X356511981Y-104448428D01*
X356270076Y-104738714D01*
X355907219Y-104883857D01*
X355302457Y-104883857D01*
D11*
X213415638Y-132841999D02*
X211383638Y-132841999D01*
X211383638Y-132479142D01*
X211480400Y-132261428D01*
X211673923Y-132116285D01*
X211867447Y-132043714D01*
X212254495Y-131971142D01*
X212544780Y-131971142D01*
X212931828Y-132043714D01*
X213125352Y-132116285D01*
X213318876Y-132261428D01*
X213415638Y-132479142D01*
X213415638Y-132841999D01*
X213318876Y-130737428D02*
X213415638Y-130882571D01*
X213415638Y-131172857D01*
X213318876Y-131317999D01*
X213125352Y-131390571D01*
X212351257Y-131390571D01*
X212157733Y-131317999D01*
X212060971Y-131172857D01*
X212060971Y-130882571D01*
X212157733Y-130737428D01*
X212351257Y-130664857D01*
X212544780Y-130664857D01*
X212738304Y-131390571D01*
X213318876Y-130084285D02*
X213415638Y-129939142D01*
X213415638Y-129648857D01*
X213318876Y-129503714D01*
X213125352Y-129431142D01*
X213028590Y-129431142D01*
X212835066Y-129503714D01*
X212738304Y-129648857D01*
X212738304Y-129866571D01*
X212641542Y-130011714D01*
X212448019Y-130084285D01*
X212351257Y-130084285D01*
X212157733Y-130011714D01*
X212060971Y-129866571D01*
X212060971Y-129648857D01*
X212157733Y-129503714D01*
X213415638Y-128777999D02*
X212060971Y-128777999D01*
X211383638Y-128777999D02*
X211480400Y-128850571D01*
X211577161Y-128777999D01*
X211480400Y-128705428D01*
X211383638Y-128777999D01*
X211577161Y-128777999D01*
X212060971Y-127399142D02*
X213705923Y-127399142D01*
X213899447Y-127471714D01*
X213996209Y-127544285D01*
X214092971Y-127689428D01*
X214092971Y-127907142D01*
X213996209Y-128052285D01*
X213318876Y-127399142D02*
X213415638Y-127544285D01*
X213415638Y-127834571D01*
X213318876Y-127979714D01*
X213222114Y-128052285D01*
X213028590Y-128124857D01*
X212448019Y-128124857D01*
X212254495Y-128052285D01*
X212157733Y-127979714D01*
X212060971Y-127834571D01*
X212060971Y-127544285D01*
X212157733Y-127399142D01*
X212060971Y-126673428D02*
X213415638Y-126673428D01*
X212254495Y-126673428D02*
X212157733Y-126600857D01*
X212060971Y-126455714D01*
X212060971Y-126237999D01*
X212157733Y-126092857D01*
X212351257Y-126020285D01*
X213415638Y-126020285D01*
X213415638Y-124133428D02*
X211383638Y-124133428D01*
X212157733Y-124133428D02*
X212060971Y-123988285D01*
X212060971Y-123697999D01*
X212157733Y-123552857D01*
X212254495Y-123480285D01*
X212448019Y-123407714D01*
X213028590Y-123407714D01*
X213222114Y-123480285D01*
X213318876Y-123552857D01*
X213415638Y-123697999D01*
X213415638Y-123988285D01*
X213318876Y-124133428D01*
X212060971Y-122899714D02*
X213415638Y-122536857D01*
X212060971Y-122173999D02*
X213415638Y-122536857D01*
X213899447Y-122681999D01*
X213996209Y-122754571D01*
X214092971Y-122899714D01*
X213415638Y-120432285D02*
X211383638Y-120432285D01*
X211383638Y-120069428D01*
X211480400Y-119851714D01*
X211673923Y-119706571D01*
X211867447Y-119633999D01*
X212254495Y-119561428D01*
X212544780Y-119561428D01*
X212931828Y-119633999D01*
X213125352Y-119706571D01*
X213318876Y-119851714D01*
X213415638Y-120069428D01*
X213415638Y-120432285D01*
X213415638Y-118690571D02*
X213318876Y-118835714D01*
X213222114Y-118908285D01*
X213028590Y-118980857D01*
X212448019Y-118980857D01*
X212254495Y-118908285D01*
X212157733Y-118835714D01*
X212060971Y-118690571D01*
X212060971Y-118472857D01*
X212157733Y-118327714D01*
X212254495Y-118255142D01*
X212448019Y-118182571D01*
X213028590Y-118182571D01*
X213222114Y-118255142D01*
X213318876Y-118327714D01*
X213415638Y-118472857D01*
X213415638Y-118690571D01*
X213415638Y-117529428D02*
X212060971Y-117529428D01*
X212254495Y-117529428D02*
X212157733Y-117456857D01*
X212060971Y-117311714D01*
X212060971Y-117093999D01*
X212157733Y-116948857D01*
X212351257Y-116876285D01*
X213415638Y-116876285D01*
X212351257Y-116876285D02*
X212157733Y-116803714D01*
X212060971Y-116658571D01*
X212060971Y-116440857D01*
X212157733Y-116295714D01*
X212351257Y-116223142D01*
X213415638Y-116223142D01*
X213415638Y-115497428D02*
X212060971Y-115497428D01*
X211383638Y-115497428D02*
X211480400Y-115569999D01*
X211577161Y-115497428D01*
X211480400Y-115424857D01*
X211383638Y-115497428D01*
X211577161Y-115497428D01*
X212060971Y-114771714D02*
X213415638Y-114771714D01*
X212254495Y-114771714D02*
X212157733Y-114699142D01*
X212060971Y-114553999D01*
X212060971Y-114336285D01*
X212157733Y-114191142D01*
X212351257Y-114118571D01*
X213415638Y-114118571D01*
X213415638Y-113392857D02*
X212060971Y-113392857D01*
X211383638Y-113392857D02*
X211480400Y-113465428D01*
X211577161Y-113392857D01*
X211480400Y-113320285D01*
X211383638Y-113392857D01*
X211577161Y-113392857D01*
X213318876Y-112013999D02*
X213415638Y-112159142D01*
X213415638Y-112449428D01*
X213318876Y-112594571D01*
X213222114Y-112667142D01*
X213028590Y-112739714D01*
X212448019Y-112739714D01*
X212254495Y-112667142D01*
X212157733Y-112594571D01*
X212060971Y-112449428D01*
X212060971Y-112159142D01*
X212157733Y-112013999D01*
X212351257Y-109691714D02*
X212448019Y-109473999D01*
X212544780Y-109401428D01*
X212738304Y-109328857D01*
X213028590Y-109328857D01*
X213222114Y-109401428D01*
X213318876Y-109473999D01*
X213415638Y-109619142D01*
X213415638Y-110199714D01*
X211383638Y-110199714D01*
X211383638Y-109691714D01*
X211480400Y-109546571D01*
X211577161Y-109473999D01*
X211770685Y-109401428D01*
X211964209Y-109401428D01*
X212157733Y-109473999D01*
X212254495Y-109546571D01*
X212351257Y-109691714D01*
X212351257Y-110199714D01*
X213318876Y-108095142D02*
X213415638Y-108240285D01*
X213415638Y-108530571D01*
X213318876Y-108675714D01*
X213125352Y-108748285D01*
X212351257Y-108748285D01*
X212157733Y-108675714D01*
X212060971Y-108530571D01*
X212060971Y-108240285D01*
X212157733Y-108095142D01*
X212351257Y-108022571D01*
X212544780Y-108022571D01*
X212738304Y-108748285D01*
X213415638Y-106716285D02*
X212351257Y-106716285D01*
X212157733Y-106788857D01*
X212060971Y-106933999D01*
X212060971Y-107224285D01*
X212157733Y-107369428D01*
X213318876Y-106716285D02*
X213415638Y-106861428D01*
X213415638Y-107224285D01*
X213318876Y-107369428D01*
X213125352Y-107441999D01*
X212931828Y-107441999D01*
X212738304Y-107369428D01*
X212641542Y-107224285D01*
X212641542Y-106861428D01*
X212544780Y-106716285D01*
X212060971Y-105337428D02*
X213415638Y-105337428D01*
X212060971Y-105990571D02*
X213125352Y-105990571D01*
X213318876Y-105917999D01*
X213415638Y-105772857D01*
X213415638Y-105555142D01*
X213318876Y-105409999D01*
X213222114Y-105337428D01*
X213318876Y-103958571D02*
X213415638Y-104103714D01*
X213415638Y-104393999D01*
X213318876Y-104539142D01*
X213222114Y-104611714D01*
X213028590Y-104684285D01*
X212448019Y-104684285D01*
X212254495Y-104611714D01*
X212157733Y-104539142D01*
X212060971Y-104393999D01*
X212060971Y-104103714D01*
X212157733Y-103958571D01*
X213415638Y-103305428D02*
X211383638Y-103305428D01*
X213415638Y-102652285D02*
X212351257Y-102652285D01*
X212157733Y-102724857D01*
X212060971Y-102869999D01*
X212060971Y-103087714D01*
X212157733Y-103232857D01*
X212254495Y-103305428D01*
X213415638Y-101273428D02*
X212351257Y-101273428D01*
X212157733Y-101345999D01*
X212060971Y-101491142D01*
X212060971Y-101781428D01*
X212157733Y-101926571D01*
X213318876Y-101273428D02*
X213415638Y-101418571D01*
X213415638Y-101781428D01*
X213318876Y-101926571D01*
X213125352Y-101999142D01*
X212931828Y-101999142D01*
X212738304Y-101926571D01*
X212641542Y-101781428D01*
X212641542Y-101418571D01*
X212544780Y-101273428D01*
X213415638Y-100547714D02*
X212060971Y-100547714D01*
X212254495Y-100547714D02*
X212157733Y-100475142D01*
X212060971Y-100329999D01*
X212060971Y-100112285D01*
X212157733Y-99967142D01*
X212351257Y-99894571D01*
X213415638Y-99894571D01*
X212351257Y-99894571D02*
X212157733Y-99821999D01*
X212060971Y-99676857D01*
X212060971Y-99459142D01*
X212157733Y-99313999D01*
X212351257Y-99241428D01*
X213415638Y-99241428D01*
X212060971Y-98515714D02*
X214092971Y-98515714D01*
X212157733Y-98515714D02*
X212060971Y-98370571D01*
X212060971Y-98080285D01*
X212157733Y-97935142D01*
X212254495Y-97862571D01*
X212448019Y-97789999D01*
X213028590Y-97789999D01*
X213222114Y-97862571D01*
X213318876Y-97935142D01*
X213415638Y-98080285D01*
X213415638Y-98370571D01*
X213318876Y-98515714D01*
X213318876Y-97064285D02*
X213415638Y-97064285D01*
X213609161Y-97136857D01*
X213705923Y-97209428D01*
X213415638Y-95249999D02*
X211383638Y-95249999D01*
X212157733Y-95249999D02*
X212060971Y-95104857D01*
X212060971Y-94814571D01*
X212157733Y-94669428D01*
X212254495Y-94596857D01*
X212448019Y-94524285D01*
X213028590Y-94524285D01*
X213222114Y-94596857D01*
X213318876Y-94669428D01*
X213415638Y-94814571D01*
X213415638Y-95104857D01*
X213318876Y-95249999D01*
X213415638Y-93217999D02*
X212351257Y-93217999D01*
X212157733Y-93290571D01*
X212060971Y-93435714D01*
X212060971Y-93725999D01*
X212157733Y-93871142D01*
X213318876Y-93217999D02*
X213415638Y-93363142D01*
X213415638Y-93725999D01*
X213318876Y-93871142D01*
X213125352Y-93943714D01*
X212931828Y-93943714D01*
X212738304Y-93871142D01*
X212641542Y-93725999D01*
X212641542Y-93363142D01*
X212544780Y-93217999D01*
X213318876Y-92564857D02*
X213415638Y-92419714D01*
X213415638Y-92129428D01*
X213318876Y-91984285D01*
X213125352Y-91911714D01*
X213028590Y-91911714D01*
X212835066Y-91984285D01*
X212738304Y-92129428D01*
X212738304Y-92347142D01*
X212641542Y-92492285D01*
X212448019Y-92564857D01*
X212351257Y-92564857D01*
X212157733Y-92492285D01*
X212060971Y-92347142D01*
X212060971Y-92129428D01*
X212157733Y-91984285D01*
X213318876Y-90677999D02*
X213415638Y-90823142D01*
X213415638Y-91113428D01*
X213318876Y-91258571D01*
X213125352Y-91331142D01*
X212351257Y-91331142D01*
X212157733Y-91258571D01*
X212060971Y-91113428D01*
X212060971Y-90823142D01*
X212157733Y-90677999D01*
X212351257Y-90605428D01*
X212544780Y-90605428D01*
X212738304Y-91331142D01*
X213415638Y-89299142D02*
X211383638Y-89299142D01*
X213318876Y-89299142D02*
X213415638Y-89444285D01*
X213415638Y-89734571D01*
X213318876Y-89879714D01*
X213222114Y-89952285D01*
X213028590Y-90024857D01*
X212448019Y-90024857D01*
X212254495Y-89952285D01*
X212157733Y-89879714D01*
X212060971Y-89734571D01*
X212060971Y-89444285D01*
X212157733Y-89299142D01*
X213415638Y-87194571D02*
X213318876Y-87339714D01*
X213222114Y-87412285D01*
X213028590Y-87484857D01*
X212448019Y-87484857D01*
X212254495Y-87412285D01*
X212157733Y-87339714D01*
X212060971Y-87194571D01*
X212060971Y-86976857D01*
X212157733Y-86831714D01*
X212254495Y-86759142D01*
X212448019Y-86686571D01*
X213028590Y-86686571D01*
X213222114Y-86759142D01*
X213318876Y-86831714D01*
X213415638Y-86976857D01*
X213415638Y-87194571D01*
X212060971Y-86033428D02*
X213415638Y-86033428D01*
X212254495Y-86033428D02*
X212157733Y-85960857D01*
X212060971Y-85815714D01*
X212060971Y-85597999D01*
X212157733Y-85452857D01*
X212351257Y-85380285D01*
X213415638Y-85380285D01*
X212060971Y-83711142D02*
X212060971Y-83130571D01*
X211383638Y-83493428D02*
X213125352Y-83493428D01*
X213318876Y-83420857D01*
X213415638Y-83275714D01*
X213415638Y-83130571D01*
X213415638Y-82622571D02*
X211383638Y-82622571D01*
X213415638Y-81969428D02*
X212351257Y-81969428D01*
X212157733Y-82041999D01*
X212060971Y-82187142D01*
X212060971Y-82404857D01*
X212157733Y-82549999D01*
X212254495Y-82622571D01*
X213318876Y-80663142D02*
X213415638Y-80808285D01*
X213415638Y-81098571D01*
X213318876Y-81243714D01*
X213125352Y-81316285D01*
X212351257Y-81316285D01*
X212157733Y-81243714D01*
X212060971Y-81098571D01*
X212060971Y-80808285D01*
X212157733Y-80663142D01*
X212351257Y-80590571D01*
X212544780Y-80590571D01*
X212738304Y-81316285D01*
X213415638Y-78776285D02*
X211383638Y-78776285D01*
X213415638Y-77905428D02*
X212254495Y-78558571D01*
X211383638Y-77905428D02*
X212544780Y-78776285D01*
X213318876Y-76671714D02*
X213415638Y-76816857D01*
X213415638Y-77107142D01*
X213318876Y-77252285D01*
X213125352Y-77324857D01*
X212351257Y-77324857D01*
X212157733Y-77252285D01*
X212060971Y-77107142D01*
X212060971Y-76816857D01*
X212157733Y-76671714D01*
X212351257Y-76599142D01*
X212544780Y-76599142D01*
X212738304Y-77324857D01*
X212060971Y-76091142D02*
X213415638Y-75728285D01*
X212060971Y-75365428D02*
X213415638Y-75728285D01*
X213899447Y-75873428D01*
X213996209Y-75945999D01*
X214092971Y-76091142D01*
X211383638Y-74131714D02*
X211383638Y-74421999D01*
X211480400Y-74567142D01*
X211577161Y-74639714D01*
X211867447Y-74784857D01*
X212254495Y-74857428D01*
X213028590Y-74857428D01*
X213222114Y-74784857D01*
X213318876Y-74712285D01*
X213415638Y-74567142D01*
X213415638Y-74276857D01*
X213318876Y-74131714D01*
X213222114Y-74059142D01*
X213028590Y-73986571D01*
X212544780Y-73986571D01*
X212351257Y-74059142D01*
X212254495Y-74131714D01*
X212157733Y-74276857D01*
X212157733Y-74567142D01*
X212254495Y-74712285D01*
X212351257Y-74784857D01*
X212544780Y-74857428D01*
X212060971Y-72680285D02*
X213415638Y-72680285D01*
X211286876Y-73043142D02*
X212738304Y-73405999D01*
X212738304Y-72462571D01*
X213415638Y-70720857D02*
X211383638Y-70720857D01*
X212157733Y-70720857D02*
X212060971Y-70575714D01*
X212060971Y-70285428D01*
X212157733Y-70140285D01*
X212254495Y-70067714D01*
X212448019Y-69995142D01*
X213028590Y-69995142D01*
X213222114Y-70067714D01*
X213318876Y-70140285D01*
X213415638Y-70285428D01*
X213415638Y-70575714D01*
X213318876Y-70720857D01*
X212060971Y-69487142D02*
X213415638Y-69124285D01*
X212060971Y-68761428D02*
X213415638Y-69124285D01*
X213899447Y-69269428D01*
X213996209Y-69341999D01*
X214092971Y-69487142D01*
X213415638Y-65858571D02*
X211383638Y-65858571D01*
X213415638Y-64987714D01*
X211383638Y-64987714D01*
X213318876Y-63681428D02*
X213415638Y-63826571D01*
X213415638Y-64116857D01*
X213318876Y-64261999D01*
X213125352Y-64334571D01*
X212351257Y-64334571D01*
X212157733Y-64261999D01*
X212060971Y-64116857D01*
X212060971Y-63826571D01*
X212157733Y-63681428D01*
X212351257Y-63608857D01*
X212544780Y-63608857D01*
X212738304Y-64334571D01*
X213318876Y-63028285D02*
X213415638Y-62883142D01*
X213415638Y-62592857D01*
X213318876Y-62447714D01*
X213125352Y-62375142D01*
X213028590Y-62375142D01*
X212835066Y-62447714D01*
X212738304Y-62592857D01*
X212738304Y-62810571D01*
X212641542Y-62955714D01*
X212448019Y-63028285D01*
X212351257Y-63028285D01*
X212157733Y-62955714D01*
X212060971Y-62810571D01*
X212060971Y-62592857D01*
X212157733Y-62447714D01*
X212060971Y-61939714D02*
X212060971Y-61359142D01*
X211383638Y-61721999D02*
X213125352Y-61721999D01*
X213318876Y-61649428D01*
X213415638Y-61504285D01*
X213415638Y-61359142D01*
X213415638Y-60633428D02*
X213318876Y-60778571D01*
X213222114Y-60851142D01*
X213028590Y-60923714D01*
X212448019Y-60923714D01*
X212254495Y-60851142D01*
X212157733Y-60778571D01*
X212060971Y-60633428D01*
X212060971Y-60415714D01*
X212157733Y-60270571D01*
X212254495Y-60197999D01*
X212448019Y-60125428D01*
X213028590Y-60125428D01*
X213222114Y-60197999D01*
X213318876Y-60270571D01*
X213415638Y-60415714D01*
X213415638Y-60633428D01*
X213415638Y-59472285D02*
X212060971Y-59472285D01*
X212448019Y-59472285D02*
X212254495Y-59399714D01*
X212157733Y-59327142D01*
X212060971Y-59181999D01*
X212060971Y-59036857D01*
X212835066Y-57440285D02*
X212835066Y-56714571D01*
X213415638Y-57585428D02*
X211383638Y-57077428D01*
X213415638Y-56569428D01*
X213222114Y-56061428D02*
X213318876Y-55988857D01*
X213415638Y-56061428D01*
X213318876Y-56133999D01*
X213222114Y-56061428D01*
X213415638Y-56061428D01*
X213415638Y-54174571D02*
X211383638Y-54174571D01*
X211383638Y-53811714D01*
X211480400Y-53593999D01*
X211673923Y-53448857D01*
X211867447Y-53376285D01*
X212254495Y-53303714D01*
X212544780Y-53303714D01*
X212931828Y-53376285D01*
X213125352Y-53448857D01*
X213318876Y-53593999D01*
X213415638Y-53811714D01*
X213415638Y-54174571D01*
X213415638Y-52650571D02*
X212060971Y-52650571D01*
X211383638Y-52650571D02*
X211480400Y-52723142D01*
X211577161Y-52650571D01*
X211480400Y-52577999D01*
X211383638Y-52650571D01*
X211577161Y-52650571D01*
X213415638Y-51271714D02*
X212351257Y-51271714D01*
X212157733Y-51344285D01*
X212060971Y-51489428D01*
X212060971Y-51779714D01*
X212157733Y-51924857D01*
X213318876Y-51271714D02*
X213415638Y-51416857D01*
X213415638Y-51779714D01*
X213318876Y-51924857D01*
X213125352Y-51997428D01*
X212931828Y-51997428D01*
X212738304Y-51924857D01*
X212641542Y-51779714D01*
X212641542Y-51416857D01*
X212544780Y-51271714D01*
X212060971Y-50691142D02*
X212060971Y-49892857D01*
X213415638Y-50691142D01*
X213415638Y-49892857D01*
X58355035Y-130873238D02*
X58355035Y-128841238D01*
X58935607Y-128841238D01*
X59080749Y-128938000D01*
X59153321Y-129034761D01*
X59225892Y-129228285D01*
X59225892Y-129518571D01*
X59153321Y-129712095D01*
X59080749Y-129808857D01*
X58935607Y-129905619D01*
X58355035Y-129905619D01*
X59879035Y-130873238D02*
X59879035Y-129518571D01*
X59879035Y-129905619D02*
X59951607Y-129712095D01*
X60024178Y-129615333D01*
X60169321Y-129518571D01*
X60314464Y-129518571D01*
X61040178Y-130873238D02*
X60895035Y-130776476D01*
X60822464Y-130679714D01*
X60749892Y-130486190D01*
X60749892Y-129905619D01*
X60822464Y-129712095D01*
X60895035Y-129615333D01*
X61040178Y-129518571D01*
X61257892Y-129518571D01*
X61403035Y-129615333D01*
X61475607Y-129712095D01*
X61548178Y-129905619D01*
X61548178Y-130486190D01*
X61475607Y-130679714D01*
X61403035Y-130776476D01*
X61257892Y-130873238D01*
X61040178Y-130873238D01*
X61983607Y-129518571D02*
X62564178Y-129518571D01*
X62201321Y-130873238D02*
X62201321Y-129131523D01*
X62273892Y-128938000D01*
X62419035Y-128841238D01*
X62564178Y-128841238D01*
X63652750Y-130776476D02*
X63507607Y-130873238D01*
X63217321Y-130873238D01*
X63072178Y-130776476D01*
X62999607Y-130582952D01*
X62999607Y-129808857D01*
X63072178Y-129615333D01*
X63217321Y-129518571D01*
X63507607Y-129518571D01*
X63652750Y-129615333D01*
X63725321Y-129808857D01*
X63725321Y-130002380D01*
X62999607Y-130195904D01*
X64160750Y-129518571D02*
X64741321Y-129518571D01*
X64378464Y-128841238D02*
X64378464Y-130582952D01*
X64451035Y-130776476D01*
X64596178Y-130873238D01*
X64741321Y-130873238D01*
X65249321Y-130873238D02*
X65249321Y-128841238D01*
X66120178Y-130873238D02*
X65467035Y-129712095D01*
X66120178Y-128841238D02*
X65249321Y-130002380D01*
X67353892Y-130776476D02*
X67208750Y-130873238D01*
X66918464Y-130873238D01*
X66773321Y-130776476D01*
X66700750Y-130582952D01*
X66700750Y-129808857D01*
X66773321Y-129615333D01*
X66918464Y-129518571D01*
X67208750Y-129518571D01*
X67353892Y-129615333D01*
X67426464Y-129808857D01*
X67426464Y-130002380D01*
X66700750Y-130195904D01*
X67934464Y-129518571D02*
X68297321Y-130873238D01*
X68660178Y-129518571D02*
X68297321Y-130873238D01*
X68152178Y-131357047D01*
X68079607Y-131453809D01*
X67934464Y-131550571D01*
X69240750Y-130873238D02*
X69240750Y-128841238D01*
X69240750Y-129615333D02*
X69385892Y-129518571D01*
X69676178Y-129518571D01*
X69821321Y-129615333D01*
X69893892Y-129712095D01*
X69966464Y-129905619D01*
X69966464Y-130486190D01*
X69893892Y-130679714D01*
X69821321Y-130776476D01*
X69676178Y-130873238D01*
X69385892Y-130873238D01*
X69240750Y-130776476D01*
X70837321Y-130873238D02*
X70692178Y-130776476D01*
X70619607Y-130679714D01*
X70547035Y-130486190D01*
X70547035Y-129905619D01*
X70619607Y-129712095D01*
X70692178Y-129615333D01*
X70837321Y-129518571D01*
X71055035Y-129518571D01*
X71200178Y-129615333D01*
X71272750Y-129712095D01*
X71345321Y-129905619D01*
X71345321Y-130486190D01*
X71272750Y-130679714D01*
X71200178Y-130776476D01*
X71055035Y-130873238D01*
X70837321Y-130873238D01*
X72651607Y-130873238D02*
X72651607Y-129808857D01*
X72579035Y-129615333D01*
X72433892Y-129518571D01*
X72143607Y-129518571D01*
X71998464Y-129615333D01*
X72651607Y-130776476D02*
X72506464Y-130873238D01*
X72143607Y-130873238D01*
X71998464Y-130776476D01*
X71925892Y-130582952D01*
X71925892Y-130389428D01*
X71998464Y-130195904D01*
X72143607Y-130099142D01*
X72506464Y-130099142D01*
X72651607Y-130002380D01*
X73377321Y-130873238D02*
X73377321Y-129518571D01*
X73377321Y-129905619D02*
X73449892Y-129712095D01*
X73522464Y-129615333D01*
X73667607Y-129518571D01*
X73812750Y-129518571D01*
X74973892Y-130873238D02*
X74973892Y-128841238D01*
X74973892Y-130776476D02*
X74828750Y-130873238D01*
X74538464Y-130873238D01*
X74393321Y-130776476D01*
X74320750Y-130679714D01*
X74248178Y-130486190D01*
X74248178Y-129905619D01*
X74320750Y-129712095D01*
X74393321Y-129615333D01*
X74538464Y-129518571D01*
X74828750Y-129518571D01*
X74973892Y-129615333D01*
X75627035Y-130776476D02*
X75772178Y-130873238D01*
X76062464Y-130873238D01*
X76207607Y-130776476D01*
X76280178Y-130582952D01*
X76280178Y-130486190D01*
X76207607Y-130292666D01*
X76062464Y-130195904D01*
X75844750Y-130195904D01*
X75699607Y-130099142D01*
X75627035Y-129905619D01*
X75627035Y-129808857D01*
X75699607Y-129615333D01*
X75844750Y-129518571D01*
X76062464Y-129518571D01*
X76207607Y-129615333D01*
X76933321Y-130679714D02*
X77005892Y-130776476D01*
X76933321Y-130873238D01*
X76860750Y-130776476D01*
X76933321Y-130679714D01*
X76933321Y-130873238D01*
X78312178Y-130776476D02*
X78167035Y-130873238D01*
X77876750Y-130873238D01*
X77731607Y-130776476D01*
X77659035Y-130679714D01*
X77586464Y-130486190D01*
X77586464Y-129905619D01*
X77659035Y-129712095D01*
X77731607Y-129615333D01*
X77876750Y-129518571D01*
X78167035Y-129518571D01*
X78312178Y-129615333D01*
X79183035Y-130873238D02*
X79037892Y-130776476D01*
X78965321Y-130679714D01*
X78892750Y-130486190D01*
X78892750Y-129905619D01*
X78965321Y-129712095D01*
X79037892Y-129615333D01*
X79183035Y-129518571D01*
X79400750Y-129518571D01*
X79545892Y-129615333D01*
X79618464Y-129712095D01*
X79691035Y-129905619D01*
X79691035Y-130486190D01*
X79618464Y-130679714D01*
X79545892Y-130776476D01*
X79400750Y-130873238D01*
X79183035Y-130873238D01*
X80344178Y-130873238D02*
X80344178Y-129518571D01*
X80344178Y-129712095D02*
X80416750Y-129615333D01*
X80561892Y-129518571D01*
X80779607Y-129518571D01*
X80924750Y-129615333D01*
X80997321Y-129808857D01*
X80997321Y-130873238D01*
X80997321Y-129808857D02*
X81069892Y-129615333D01*
X81215035Y-129518571D01*
X81432750Y-129518571D01*
X81577892Y-129615333D01*
X81650464Y-129808857D01*
X81650464Y-130873238D01*
X177421988Y-125682165D02*
X176454369Y-126190165D01*
X177421988Y-126553022D02*
X175389988Y-126553022D01*
X175389988Y-125972451D01*
X175486750Y-125827308D01*
X175583511Y-125754737D01*
X175777035Y-125682165D01*
X176067321Y-125682165D01*
X176260845Y-125754737D01*
X176357607Y-125827308D01*
X176454369Y-125972451D01*
X176454369Y-126553022D01*
X177325226Y-124448451D02*
X177421988Y-124593594D01*
X177421988Y-124883880D01*
X177325226Y-125029022D01*
X177131702Y-125101594D01*
X176357607Y-125101594D01*
X176164083Y-125029022D01*
X176067321Y-124883880D01*
X176067321Y-124593594D01*
X176164083Y-124448451D01*
X176357607Y-124375880D01*
X176551130Y-124375880D01*
X176744654Y-125101594D01*
X176067321Y-123867880D02*
X177421988Y-123505022D01*
X176067321Y-123142165D01*
X177421988Y-122561594D02*
X176067321Y-122561594D01*
X175389988Y-122561594D02*
X175486750Y-122634165D01*
X175583511Y-122561594D01*
X175486750Y-122489022D01*
X175389988Y-122561594D01*
X175583511Y-122561594D01*
X177325226Y-121908451D02*
X177421988Y-121763308D01*
X177421988Y-121473022D01*
X177325226Y-121327880D01*
X177131702Y-121255308D01*
X177034940Y-121255308D01*
X176841416Y-121327880D01*
X176744654Y-121473022D01*
X176744654Y-121690737D01*
X176647892Y-121835880D01*
X176454369Y-121908451D01*
X176357607Y-121908451D01*
X176164083Y-121835880D01*
X176067321Y-121690737D01*
X176067321Y-121473022D01*
X176164083Y-121327880D01*
X177421988Y-120602165D02*
X176067321Y-120602165D01*
X175389988Y-120602165D02*
X175486750Y-120674737D01*
X175583511Y-120602165D01*
X175486750Y-120529594D01*
X175389988Y-120602165D01*
X175583511Y-120602165D01*
X177421988Y-119658737D02*
X177325226Y-119803880D01*
X177228464Y-119876451D01*
X177034940Y-119949022D01*
X176454369Y-119949022D01*
X176260845Y-119876451D01*
X176164083Y-119803880D01*
X176067321Y-119658737D01*
X176067321Y-119441022D01*
X176164083Y-119295880D01*
X176260845Y-119223308D01*
X176454369Y-119150737D01*
X177034940Y-119150737D01*
X177228464Y-119223308D01*
X177325226Y-119295880D01*
X177421988Y-119441022D01*
X177421988Y-119658737D01*
X176067321Y-118497594D02*
X177421988Y-118497594D01*
X176260845Y-118497594D02*
X176164083Y-118425022D01*
X176067321Y-118279880D01*
X176067321Y-118062165D01*
X176164083Y-117917022D01*
X176357607Y-117844451D01*
X177421988Y-117844451D01*
X175389988Y-115667308D02*
X175389988Y-115522165D01*
X175486750Y-115377022D01*
X175583511Y-115304451D01*
X175777035Y-115231880D01*
X176164083Y-115159308D01*
X176647892Y-115159308D01*
X177034940Y-115231880D01*
X177228464Y-115304451D01*
X177325226Y-115377022D01*
X177421988Y-115522165D01*
X177421988Y-115667308D01*
X177325226Y-115812451D01*
X177228464Y-115885022D01*
X177034940Y-115957594D01*
X176647892Y-116030165D01*
X176164083Y-116030165D01*
X175777035Y-115957594D01*
X175583511Y-115885022D01*
X175486750Y-115812451D01*
X175389988Y-115667308D01*
X177421988Y-113707880D02*
X177421988Y-114578737D01*
X177421988Y-114143308D02*
X175389988Y-114143308D01*
X175680273Y-114288451D01*
X175873797Y-114433594D01*
X175970559Y-114578737D01*
X176647892Y-113054737D02*
X176647892Y-111893594D01*
X175389988Y-110877594D02*
X175389988Y-110732451D01*
X175486750Y-110587308D01*
X175583511Y-110514737D01*
X175777035Y-110442165D01*
X176164083Y-110369594D01*
X176647892Y-110369594D01*
X177034940Y-110442165D01*
X177228464Y-110514737D01*
X177325226Y-110587308D01*
X177421988Y-110732451D01*
X177421988Y-110877594D01*
X177325226Y-111022737D01*
X177228464Y-111095308D01*
X177034940Y-111167880D01*
X176647892Y-111240451D01*
X176164083Y-111240451D01*
X175777035Y-111167880D01*
X175583511Y-111095308D01*
X175486750Y-111022737D01*
X175389988Y-110877594D01*
X175389988Y-108990737D02*
X175389988Y-109716451D01*
X176357607Y-109789022D01*
X176260845Y-109716451D01*
X176164083Y-109571308D01*
X176164083Y-109208451D01*
X176260845Y-109063308D01*
X176357607Y-108990737D01*
X176551130Y-108918165D01*
X177034940Y-108918165D01*
X177228464Y-108990737D01*
X177325226Y-109063308D01*
X177421988Y-109208451D01*
X177421988Y-109571308D01*
X177325226Y-109716451D01*
X177228464Y-109789022D01*
X176647892Y-108265022D02*
X176647892Y-107103880D01*
X175583511Y-106450737D02*
X175486750Y-106378165D01*
X175389988Y-106233022D01*
X175389988Y-105870165D01*
X175486750Y-105725022D01*
X175583511Y-105652451D01*
X175777035Y-105579880D01*
X175970559Y-105579880D01*
X176260845Y-105652451D01*
X177421988Y-106523308D01*
X177421988Y-105579880D01*
X175389988Y-104636451D02*
X175389988Y-104491308D01*
X175486750Y-104346165D01*
X175583511Y-104273594D01*
X175777035Y-104201022D01*
X176164083Y-104128451D01*
X176647892Y-104128451D01*
X177034940Y-104201022D01*
X177228464Y-104273594D01*
X177325226Y-104346165D01*
X177421988Y-104491308D01*
X177421988Y-104636451D01*
X177325226Y-104781594D01*
X177228464Y-104854165D01*
X177034940Y-104926737D01*
X176647892Y-104999308D01*
X176164083Y-104999308D01*
X175777035Y-104926737D01*
X175583511Y-104854165D01*
X175486750Y-104781594D01*
X175389988Y-104636451D01*
X177421988Y-102677022D02*
X177421988Y-103547880D01*
X177421988Y-103112451D02*
X175389988Y-103112451D01*
X175680273Y-103257594D01*
X175873797Y-103402737D01*
X175970559Y-103547880D01*
X175389988Y-102169022D02*
X175389988Y-101153022D01*
X177421988Y-101806165D01*
X177421988Y-99411308D02*
X175389988Y-99411308D01*
X175389988Y-98830737D01*
X175486750Y-98685594D01*
X175583511Y-98613022D01*
X175777035Y-98540451D01*
X176067321Y-98540451D01*
X176260845Y-98613022D01*
X176357607Y-98685594D01*
X176454369Y-98830737D01*
X176454369Y-99411308D01*
X177421988Y-97887308D02*
X176067321Y-97887308D01*
X176454369Y-97887308D02*
X176260845Y-97814737D01*
X176164083Y-97742165D01*
X176067321Y-97597022D01*
X176067321Y-97451880D01*
X177421988Y-96726165D02*
X177325226Y-96871308D01*
X177228464Y-96943880D01*
X177034940Y-97016451D01*
X176454369Y-97016451D01*
X176260845Y-96943880D01*
X176164083Y-96871308D01*
X176067321Y-96726165D01*
X176067321Y-96508451D01*
X176164083Y-96363308D01*
X176260845Y-96290737D01*
X176454369Y-96218165D01*
X177034940Y-96218165D01*
X177228464Y-96290737D01*
X177325226Y-96363308D01*
X177421988Y-96508451D01*
X177421988Y-96726165D01*
X176067321Y-95782737D02*
X176067321Y-95202165D01*
X177421988Y-95565022D02*
X175680273Y-95565022D01*
X175486750Y-95492451D01*
X175389988Y-95347308D01*
X175389988Y-95202165D01*
X177325226Y-94113594D02*
X177421988Y-94258737D01*
X177421988Y-94549022D01*
X177325226Y-94694165D01*
X177131702Y-94766737D01*
X176357607Y-94766737D01*
X176164083Y-94694165D01*
X176067321Y-94549022D01*
X176067321Y-94258737D01*
X176164083Y-94113594D01*
X176357607Y-94041022D01*
X176551130Y-94041022D01*
X176744654Y-94766737D01*
X176067321Y-93605594D02*
X176067321Y-93025022D01*
X175389988Y-93387880D02*
X177131702Y-93387880D01*
X177325226Y-93315308D01*
X177421988Y-93170165D01*
X177421988Y-93025022D01*
X177421988Y-92517022D02*
X175389988Y-92517022D01*
X177421988Y-91646165D02*
X176260845Y-92299308D01*
X175389988Y-91646165D02*
X176551130Y-92517022D01*
X177325226Y-90412451D02*
X177421988Y-90557594D01*
X177421988Y-90847880D01*
X177325226Y-90993022D01*
X177131702Y-91065594D01*
X176357607Y-91065594D01*
X176164083Y-90993022D01*
X176067321Y-90847880D01*
X176067321Y-90557594D01*
X176164083Y-90412451D01*
X176357607Y-90339880D01*
X176551130Y-90339880D01*
X176744654Y-91065594D01*
X176067321Y-89831880D02*
X177421988Y-89469022D01*
X176067321Y-89106165D02*
X177421988Y-89469022D01*
X177905797Y-89614165D01*
X178002559Y-89686737D01*
X178099321Y-89831880D01*
X177421988Y-88525594D02*
X175389988Y-88525594D01*
X176164083Y-88525594D02*
X176067321Y-88380451D01*
X176067321Y-88090165D01*
X176164083Y-87945022D01*
X176260845Y-87872451D01*
X176454369Y-87799880D01*
X177034940Y-87799880D01*
X177228464Y-87872451D01*
X177325226Y-87945022D01*
X177421988Y-88090165D01*
X177421988Y-88380451D01*
X177325226Y-88525594D01*
X177421988Y-86929022D02*
X177325226Y-87074165D01*
X177228464Y-87146737D01*
X177034940Y-87219308D01*
X176454369Y-87219308D01*
X176260845Y-87146737D01*
X176164083Y-87074165D01*
X176067321Y-86929022D01*
X176067321Y-86711308D01*
X176164083Y-86566165D01*
X176260845Y-86493594D01*
X176454369Y-86421022D01*
X177034940Y-86421022D01*
X177228464Y-86493594D01*
X177325226Y-86566165D01*
X177421988Y-86711308D01*
X177421988Y-86929022D01*
X177421988Y-85114737D02*
X176357607Y-85114737D01*
X176164083Y-85187308D01*
X176067321Y-85332451D01*
X176067321Y-85622737D01*
X176164083Y-85767880D01*
X177325226Y-85114737D02*
X177421988Y-85259880D01*
X177421988Y-85622737D01*
X177325226Y-85767880D01*
X177131702Y-85840451D01*
X176938178Y-85840451D01*
X176744654Y-85767880D01*
X176647892Y-85622737D01*
X176647892Y-85259880D01*
X176551130Y-85114737D01*
X177421988Y-84389022D02*
X176067321Y-84389022D01*
X176454369Y-84389022D02*
X176260845Y-84316451D01*
X176164083Y-84243880D01*
X176067321Y-84098737D01*
X176067321Y-83953594D01*
X177421988Y-82792451D02*
X175389988Y-82792451D01*
X177325226Y-82792451D02*
X177421988Y-82937594D01*
X177421988Y-83227880D01*
X177325226Y-83373022D01*
X177228464Y-83445594D01*
X177034940Y-83518165D01*
X176454369Y-83518165D01*
X176260845Y-83445594D01*
X176164083Y-83373022D01*
X176067321Y-83227880D01*
X176067321Y-82937594D01*
X176164083Y-82792451D01*
X177325226Y-82139308D02*
X177421988Y-81994165D01*
X177421988Y-81703880D01*
X177325226Y-81558737D01*
X177131702Y-81486165D01*
X177034940Y-81486165D01*
X176841416Y-81558737D01*
X176744654Y-81703880D01*
X176744654Y-81921594D01*
X176647892Y-82066737D01*
X176454369Y-82139308D01*
X176357607Y-82139308D01*
X176164083Y-82066737D01*
X176067321Y-81921594D01*
X176067321Y-81703880D01*
X176164083Y-81558737D01*
D10*
X128301750Y-35257619D02*
X128301750Y-34241619D01*
X128906511Y-35257619D02*
X128906511Y-34241619D01*
X129208892Y-34241619D01*
X129390321Y-34290000D01*
X129511273Y-34386761D01*
X129571750Y-34483523D01*
X129632226Y-34677047D01*
X129632226Y-34822190D01*
X129571750Y-35015714D01*
X129511273Y-35112476D01*
X129390321Y-35209238D01*
X129208892Y-35257619D01*
X128906511Y-35257619D01*
X135691940Y-42877619D02*
X135691940Y-41861619D01*
X135994321Y-41861619D01*
X136175750Y-41910000D01*
X136296702Y-42006761D01*
X136357178Y-42103523D01*
X136417654Y-42297047D01*
X136417654Y-42442190D01*
X136357178Y-42635714D01*
X136296702Y-42732476D01*
X136175750Y-42829238D01*
X135994321Y-42877619D01*
X135691940Y-42877619D01*
X136961940Y-42490571D02*
X137929559Y-42490571D01*
X137445750Y-42877619D02*
X137445750Y-42103523D01*
X130382130Y-40132000D02*
X130261178Y-40083619D01*
X130079750Y-40083619D01*
X129898321Y-40132000D01*
X129777369Y-40228761D01*
X129716892Y-40325523D01*
X129656416Y-40519047D01*
X129656416Y-40664190D01*
X129716892Y-40857714D01*
X129777369Y-40954476D01*
X129898321Y-41051238D01*
X130079750Y-41099619D01*
X130200702Y-41099619D01*
X130382130Y-41051238D01*
X130442607Y-41002857D01*
X130442607Y-40664190D01*
X130200702Y-40664190D01*
X130986892Y-41099619D02*
X130986892Y-40083619D01*
X131712607Y-41099619D01*
X131712607Y-40083619D01*
X132317369Y-41099619D02*
X132317369Y-40083619D01*
X132619750Y-40083619D01*
X132801178Y-40132000D01*
X132922130Y-40228761D01*
X132982607Y-40325523D01*
X133043083Y-40519047D01*
X133043083Y-40664190D01*
X132982607Y-40857714D01*
X132922130Y-40954476D01*
X132801178Y-41051238D01*
X132619750Y-41099619D01*
X132317369Y-41099619D01*
X141394845Y-40083619D02*
X140790083Y-40083619D01*
X140729607Y-40567428D01*
X140790083Y-40519047D01*
X140911035Y-40470666D01*
X141213416Y-40470666D01*
X141334369Y-40519047D01*
X141394845Y-40567428D01*
X141455321Y-40664190D01*
X141455321Y-40906095D01*
X141394845Y-41002857D01*
X141334369Y-41051238D01*
X141213416Y-41099619D01*
X140911035Y-41099619D01*
X140790083Y-41051238D01*
X140729607Y-41002857D01*
X141818178Y-40083619D02*
X142241511Y-41099619D01*
X142664845Y-40083619D01*
X144325400Y-35257619D02*
X144325400Y-34241619D01*
X144627781Y-34241619D01*
X144809210Y-34290000D01*
X144930162Y-34386761D01*
X144990638Y-34483523D01*
X145051114Y-34677047D01*
X145051114Y-34822190D01*
X144990638Y-35015714D01*
X144930162Y-35112476D01*
X144809210Y-35209238D01*
X144627781Y-35257619D01*
X144325400Y-35257619D01*
X145595400Y-34870571D02*
X146563019Y-34870571D01*
D12*
X68839140Y-100057857D02*
X67992473Y-98606428D01*
X67387711Y-100057857D02*
X67387711Y-97009857D01*
X68355330Y-97009857D01*
X68597235Y-97155000D01*
X68718188Y-97300142D01*
X68839140Y-97590428D01*
X68839140Y-98025857D01*
X68718188Y-98316142D01*
X68597235Y-98461285D01*
X68355330Y-98606428D01*
X67387711Y-98606428D01*
X69927711Y-100057857D02*
X69927711Y-97009857D01*
X72467711Y-97155000D02*
X72225807Y-97009857D01*
X71862950Y-97009857D01*
X71500092Y-97155000D01*
X71258188Y-97445285D01*
X71137235Y-97735571D01*
X71016283Y-98316142D01*
X71016283Y-98751571D01*
X71137235Y-99332142D01*
X71258188Y-99622428D01*
X71500092Y-99912714D01*
X71862950Y-100057857D01*
X72104854Y-100057857D01*
X72467711Y-99912714D01*
X72588664Y-99767571D01*
X72588664Y-98751571D01*
X72104854Y-98751571D01*
X73677235Y-100057857D02*
X73677235Y-97009857D01*
X73677235Y-98461285D02*
X75128664Y-98461285D01*
X75128664Y-100057857D02*
X75128664Y-97009857D01*
X75975330Y-97009857D02*
X77426759Y-97009857D01*
X76701045Y-100057857D02*
X76701045Y-97009857D01*
X67387711Y-105137857D02*
X67387711Y-102089857D01*
X67387711Y-103541285D02*
X68839140Y-103541285D01*
X68839140Y-105137857D02*
X68839140Y-102089857D01*
X69927711Y-104267000D02*
X71137235Y-104267000D01*
X69685807Y-105137857D02*
X70532473Y-102089857D01*
X71379140Y-105137857D01*
X72225807Y-105137857D02*
X72225807Y-102089857D01*
X73677235Y-105137857D01*
X73677235Y-102089857D01*
X74886759Y-105137857D02*
X74886759Y-102089857D01*
X75491521Y-102089857D01*
X75854378Y-102235000D01*
X76096283Y-102525285D01*
X76217235Y-102815571D01*
X76338188Y-103396142D01*
X76338188Y-103831571D01*
X76217235Y-104412142D01*
X76096283Y-104702428D01*
X75854378Y-104992714D01*
X75491521Y-105137857D01*
X74886759Y-105137857D01*
D11*
X202849238Y-126439022D02*
X200817238Y-126439022D01*
X200817238Y-126076165D01*
X200914000Y-125858451D01*
X201107523Y-125713308D01*
X201301047Y-125640737D01*
X201688095Y-125568165D01*
X201978380Y-125568165D01*
X202365428Y-125640737D01*
X202558952Y-125713308D01*
X202752476Y-125858451D01*
X202849238Y-126076165D01*
X202849238Y-126439022D01*
X202849238Y-124915022D02*
X201494571Y-124915022D01*
X201881619Y-124915022D02*
X201688095Y-124842451D01*
X201591333Y-124769880D01*
X201494571Y-124624737D01*
X201494571Y-124479594D01*
X202849238Y-123318451D02*
X201784857Y-123318451D01*
X201591333Y-123391022D01*
X201494571Y-123536165D01*
X201494571Y-123826451D01*
X201591333Y-123971594D01*
X202752476Y-123318451D02*
X202849238Y-123463594D01*
X202849238Y-123826451D01*
X202752476Y-123971594D01*
X202558952Y-124044165D01*
X202365428Y-124044165D01*
X202171904Y-123971594D01*
X202075142Y-123826451D01*
X202075142Y-123463594D01*
X201978380Y-123318451D01*
X201494571Y-122737880D02*
X202849238Y-122447594D01*
X201881619Y-122157308D01*
X202849238Y-121867022D01*
X201494571Y-121576737D01*
X201494571Y-120996165D02*
X202849238Y-120996165D01*
X201688095Y-120996165D02*
X201591333Y-120923594D01*
X201494571Y-120778451D01*
X201494571Y-120560737D01*
X201591333Y-120415594D01*
X201784857Y-120343022D01*
X202849238Y-120343022D01*
X202849238Y-118456165D02*
X201494571Y-118456165D01*
X200817238Y-118456165D02*
X200914000Y-118528737D01*
X201010761Y-118456165D01*
X200914000Y-118383594D01*
X200817238Y-118456165D01*
X201010761Y-118456165D01*
X201494571Y-117730451D02*
X202849238Y-117730451D01*
X201688095Y-117730451D02*
X201591333Y-117657880D01*
X201494571Y-117512737D01*
X201494571Y-117295022D01*
X201591333Y-117149880D01*
X201784857Y-117077308D01*
X202849238Y-117077308D01*
X202849238Y-115190451D02*
X200817238Y-115190451D01*
X202849238Y-114319594D02*
X201688095Y-114972737D01*
X200817238Y-114319594D02*
X201978380Y-115190451D01*
X202849238Y-113666451D02*
X201494571Y-113666451D01*
X200817238Y-113666451D02*
X200914000Y-113739022D01*
X201010761Y-113666451D01*
X200914000Y-113593880D01*
X200817238Y-113666451D01*
X201010761Y-113666451D01*
X202655714Y-112069880D02*
X202752476Y-112142451D01*
X202849238Y-112360165D01*
X202849238Y-112505308D01*
X202752476Y-112723022D01*
X202558952Y-112868165D01*
X202365428Y-112940737D01*
X201978380Y-113013308D01*
X201688095Y-113013308D01*
X201301047Y-112940737D01*
X201107523Y-112868165D01*
X200914000Y-112723022D01*
X200817238Y-112505308D01*
X200817238Y-112360165D01*
X200914000Y-112142451D01*
X201010761Y-112069880D01*
X202268666Y-111489308D02*
X202268666Y-110763594D01*
X202849238Y-111634451D02*
X200817238Y-111126451D01*
X202849238Y-110618451D01*
X202849238Y-110110451D02*
X200817238Y-110110451D01*
X200817238Y-109747594D01*
X200914000Y-109529880D01*
X201107523Y-109384737D01*
X201301047Y-109312165D01*
X201688095Y-109239594D01*
X201978380Y-109239594D01*
X202365428Y-109312165D01*
X202558952Y-109384737D01*
X202752476Y-109529880D01*
X202849238Y-109747594D01*
X202849238Y-110110451D01*
X202849238Y-107425308D02*
X200817238Y-107425308D01*
X201591333Y-107425308D02*
X201494571Y-107280165D01*
X201494571Y-106989880D01*
X201591333Y-106844737D01*
X201688095Y-106772165D01*
X201881619Y-106699594D01*
X202462190Y-106699594D01*
X202655714Y-106772165D01*
X202752476Y-106844737D01*
X202849238Y-106989880D01*
X202849238Y-107280165D01*
X202752476Y-107425308D01*
X201494571Y-106191594D02*
X202849238Y-105828737D01*
X201494571Y-105465880D02*
X202849238Y-105828737D01*
X203333047Y-105973880D01*
X203429809Y-106046451D01*
X203526571Y-106191594D01*
X201784857Y-103216165D02*
X201784857Y-103724165D01*
X202849238Y-103724165D02*
X200817238Y-103724165D01*
X200817238Y-102998451D01*
X202849238Y-102417880D02*
X201494571Y-102417880D01*
X201881619Y-102417880D02*
X201688095Y-102345308D01*
X201591333Y-102272737D01*
X201494571Y-102127594D01*
X201494571Y-101982451D01*
X202752476Y-100893880D02*
X202849238Y-101039022D01*
X202849238Y-101329308D01*
X202752476Y-101474451D01*
X202558952Y-101547022D01*
X201784857Y-101547022D01*
X201591333Y-101474451D01*
X201494571Y-101329308D01*
X201494571Y-101039022D01*
X201591333Y-100893880D01*
X201784857Y-100821308D01*
X201978380Y-100821308D01*
X202171904Y-101547022D01*
X202849238Y-99515022D02*
X200817238Y-99515022D01*
X202752476Y-99515022D02*
X202849238Y-99660165D01*
X202849238Y-99950451D01*
X202752476Y-100095594D01*
X202655714Y-100168165D01*
X202462190Y-100240737D01*
X201881619Y-100240737D01*
X201688095Y-100168165D01*
X201591333Y-100095594D01*
X201494571Y-99950451D01*
X201494571Y-99660165D01*
X201591333Y-99515022D01*
X202849238Y-98789308D02*
X201494571Y-98789308D01*
X201881619Y-98789308D02*
X201688095Y-98716737D01*
X201591333Y-98644165D01*
X201494571Y-98499022D01*
X201494571Y-98353880D01*
X202849238Y-97845880D02*
X201494571Y-97845880D01*
X200817238Y-97845880D02*
X200914000Y-97918451D01*
X201010761Y-97845880D01*
X200914000Y-97773308D01*
X200817238Y-97845880D01*
X201010761Y-97845880D01*
X202849238Y-97120165D02*
X200817238Y-97120165D01*
X202075142Y-96975022D02*
X202849238Y-96539594D01*
X201494571Y-96539594D02*
X202268666Y-97120165D01*
X202268666Y-94797880D02*
X202268666Y-94072165D01*
X202849238Y-94943022D02*
X200817238Y-94435022D01*
X202849238Y-93927022D01*
X201494571Y-93636737D02*
X201494571Y-93056165D01*
X200817238Y-93419022D02*
X202558952Y-93419022D01*
X202752476Y-93346451D01*
X202849238Y-93201308D01*
X202849238Y-93056165D01*
X202849238Y-92548165D02*
X201494571Y-92548165D01*
X201688095Y-92548165D02*
X201591333Y-92475594D01*
X201494571Y-92330451D01*
X201494571Y-92112737D01*
X201591333Y-91967594D01*
X201784857Y-91895022D01*
X202849238Y-91895022D01*
X201784857Y-91895022D02*
X201591333Y-91822451D01*
X201494571Y-91677308D01*
X201494571Y-91459594D01*
X201591333Y-91314451D01*
X201784857Y-91241880D01*
X202849238Y-91241880D01*
X202752476Y-89935594D02*
X202849238Y-90080737D01*
X202849238Y-90371022D01*
X202752476Y-90516165D01*
X202558952Y-90588737D01*
X201784857Y-90588737D01*
X201591333Y-90516165D01*
X201494571Y-90371022D01*
X201494571Y-90080737D01*
X201591333Y-89935594D01*
X201784857Y-89863022D01*
X201978380Y-89863022D01*
X202171904Y-90588737D01*
X202849238Y-89209880D02*
X201494571Y-89209880D01*
X201881619Y-89209880D02*
X201688095Y-89137308D01*
X201591333Y-89064737D01*
X201494571Y-88919594D01*
X201494571Y-88774451D01*
X202752476Y-88193880D02*
X202849238Y-88193880D01*
X203042761Y-88266451D01*
X203139523Y-88339022D01*
X201784857Y-85871594D02*
X201881619Y-85653880D01*
X201978380Y-85581308D01*
X202171904Y-85508737D01*
X202462190Y-85508737D01*
X202655714Y-85581308D01*
X202752476Y-85653880D01*
X202849238Y-85799022D01*
X202849238Y-86379594D01*
X200817238Y-86379594D01*
X200817238Y-85871594D01*
X200914000Y-85726451D01*
X201010761Y-85653880D01*
X201204285Y-85581308D01*
X201397809Y-85581308D01*
X201591333Y-85653880D01*
X201688095Y-85726451D01*
X201784857Y-85871594D01*
X201784857Y-86379594D01*
X202849238Y-84202451D02*
X201784857Y-84202451D01*
X201591333Y-84275022D01*
X201494571Y-84420165D01*
X201494571Y-84710451D01*
X201591333Y-84855594D01*
X202752476Y-84202451D02*
X202849238Y-84347594D01*
X202849238Y-84710451D01*
X202752476Y-84855594D01*
X202558952Y-84928165D01*
X202365428Y-84928165D01*
X202171904Y-84855594D01*
X202075142Y-84710451D01*
X202075142Y-84347594D01*
X201978380Y-84202451D01*
X201494571Y-83694451D02*
X201494571Y-83113880D01*
X200817238Y-83476737D02*
X202558952Y-83476737D01*
X202752476Y-83404165D01*
X202849238Y-83259022D01*
X202849238Y-83113880D01*
X202849238Y-82605880D02*
X200817238Y-82605880D01*
X202849238Y-81952737D02*
X201784857Y-81952737D01*
X201591333Y-82025308D01*
X201494571Y-82170451D01*
X201494571Y-82388165D01*
X201591333Y-82533308D01*
X201688095Y-82605880D01*
X202849238Y-81227022D02*
X201494571Y-81227022D01*
X201881619Y-81227022D02*
X201688095Y-81154451D01*
X201591333Y-81081880D01*
X201494571Y-80936737D01*
X201494571Y-80791594D01*
X202849238Y-80065880D02*
X202752476Y-80211022D01*
X202655714Y-80283594D01*
X202462190Y-80356165D01*
X201881619Y-80356165D01*
X201688095Y-80283594D01*
X201591333Y-80211022D01*
X201494571Y-80065880D01*
X201494571Y-79848165D01*
X201591333Y-79703022D01*
X201688095Y-79630451D01*
X201881619Y-79557880D01*
X202462190Y-79557880D01*
X202655714Y-79630451D01*
X202752476Y-79703022D01*
X202849238Y-79848165D01*
X202849238Y-80065880D01*
X202849238Y-78687022D02*
X202752476Y-78832165D01*
X202655714Y-78904737D01*
X202462190Y-78977308D01*
X201881619Y-78977308D01*
X201688095Y-78904737D01*
X201591333Y-78832165D01*
X201494571Y-78687022D01*
X201494571Y-78469308D01*
X201591333Y-78324165D01*
X201688095Y-78251594D01*
X201881619Y-78179022D01*
X202462190Y-78179022D01*
X202655714Y-78251594D01*
X202752476Y-78324165D01*
X202849238Y-78469308D01*
X202849238Y-78687022D01*
X202849238Y-77525880D02*
X201494571Y-77525880D01*
X201688095Y-77525880D02*
X201591333Y-77453308D01*
X201494571Y-77308165D01*
X201494571Y-77090451D01*
X201591333Y-76945308D01*
X201784857Y-76872737D01*
X202849238Y-76872737D01*
X201784857Y-76872737D02*
X201591333Y-76800165D01*
X201494571Y-76655022D01*
X201494571Y-76437308D01*
X201591333Y-76292165D01*
X201784857Y-76219594D01*
X202849238Y-76219594D01*
X201784857Y-74332737D02*
X201784857Y-73824737D01*
X202849238Y-73607022D02*
X202849238Y-74332737D01*
X200817238Y-74332737D01*
X200817238Y-73607022D01*
X201494571Y-72953880D02*
X203526571Y-72953880D01*
X201591333Y-72953880D02*
X201494571Y-72808737D01*
X201494571Y-72518451D01*
X201591333Y-72373308D01*
X201688095Y-72300737D01*
X201881619Y-72228165D01*
X202462190Y-72228165D01*
X202655714Y-72300737D01*
X202752476Y-72373308D01*
X202849238Y-72518451D01*
X202849238Y-72808737D01*
X202752476Y-72953880D01*
X202849238Y-71575022D02*
X201494571Y-71575022D01*
X200817238Y-71575022D02*
X200914000Y-71647594D01*
X201010761Y-71575022D01*
X200914000Y-71502451D01*
X200817238Y-71575022D01*
X201010761Y-71575022D01*
X201494571Y-70849308D02*
X203526571Y-70849308D01*
X201591333Y-70849308D02*
X201494571Y-70704165D01*
X201494571Y-70413880D01*
X201591333Y-70268737D01*
X201688095Y-70196165D01*
X201881619Y-70123594D01*
X202462190Y-70123594D01*
X202655714Y-70196165D01*
X202752476Y-70268737D01*
X202849238Y-70413880D01*
X202849238Y-70704165D01*
X202752476Y-70849308D01*
X202849238Y-69470451D02*
X200817238Y-69470451D01*
X202849238Y-68817308D02*
X201784857Y-68817308D01*
X201591333Y-68889880D01*
X201494571Y-69035022D01*
X201494571Y-69252737D01*
X201591333Y-69397880D01*
X201688095Y-69470451D01*
X202849238Y-67438451D02*
X201784857Y-67438451D01*
X201591333Y-67511022D01*
X201494571Y-67656165D01*
X201494571Y-67946451D01*
X201591333Y-68091594D01*
X202752476Y-67438451D02*
X202849238Y-67583594D01*
X202849238Y-67946451D01*
X202752476Y-68091594D01*
X202558952Y-68164165D01*
X202365428Y-68164165D01*
X202171904Y-68091594D01*
X202075142Y-67946451D01*
X202075142Y-67583594D01*
X201978380Y-67438451D01*
X201494571Y-66712737D02*
X202849238Y-66712737D01*
X201688095Y-66712737D02*
X201591333Y-66640165D01*
X201494571Y-66495022D01*
X201494571Y-66277308D01*
X201591333Y-66132165D01*
X201784857Y-66059594D01*
X202849238Y-66059594D01*
X202849238Y-65333880D02*
X201494571Y-65333880D01*
X200817238Y-65333880D02*
X200914000Y-65406451D01*
X201010761Y-65333880D01*
X200914000Y-65261308D01*
X200817238Y-65333880D01*
X201010761Y-65333880D01*
X202752476Y-64027594D02*
X202849238Y-64172737D01*
X202849238Y-64463022D01*
X202752476Y-64608165D01*
X202558952Y-64680737D01*
X201784857Y-64680737D01*
X201591333Y-64608165D01*
X201494571Y-64463022D01*
X201494571Y-64172737D01*
X201591333Y-64027594D01*
X201784857Y-63955022D01*
X201978380Y-63955022D01*
X202171904Y-64680737D01*
X202752476Y-63374451D02*
X202849238Y-63229308D01*
X202849238Y-62939022D01*
X202752476Y-62793880D01*
X202558952Y-62721308D01*
X202462190Y-62721308D01*
X202268666Y-62793880D01*
X202171904Y-62939022D01*
X202171904Y-63156737D01*
X202075142Y-63301880D01*
X201881619Y-63374451D01*
X201784857Y-63374451D01*
X201591333Y-63301880D01*
X201494571Y-63156737D01*
X201494571Y-62939022D01*
X201591333Y-62793880D01*
D13*
%TO.C,J1*%
X132930900Y-28735020D02*
X140632180Y-28735020D01*
X132930900Y-37734240D02*
X132930900Y-28735020D01*
X140632180Y-37734240D02*
X132930900Y-37734240D01*
X140632180Y-28735020D02*
X140632180Y-37734240D01*
D14*
%TO.C,R3*%
X183290230Y-53287697D02*
X182954697Y-53623230D01*
X182551303Y-52548770D02*
X182215770Y-52884303D01*
D13*
%TO.C,RC1*%
X129635250Y-47244000D02*
X127730250Y-47244000D01*
X119475250Y-47244000D02*
X121380250Y-47244000D01*
X127730250Y-45974000D02*
X127730250Y-48514000D01*
X121380250Y-45974000D02*
X127730250Y-45974000D01*
X121380250Y-48514000D02*
X121380250Y-45974000D01*
X127730250Y-48514000D02*
X121380250Y-48514000D01*
%TO.C,RB1*%
X149733542Y-40159398D02*
X148386504Y-41506436D01*
X142549338Y-47343602D02*
X143896376Y-45996564D01*
X147488478Y-40608410D02*
X149284530Y-42404462D01*
X142998350Y-45098538D02*
X147488478Y-40608410D01*
X144794402Y-46894590D02*
X142998350Y-45098538D01*
X149284530Y-42404462D02*
X144794402Y-46894590D01*
%TO.C,RA1*%
X151638542Y-42064398D02*
X150291504Y-43411436D01*
X144454338Y-49248602D02*
X145801376Y-47901564D01*
X149393478Y-42513410D02*
X151189530Y-44309462D01*
X144903350Y-47003538D02*
X149393478Y-42513410D01*
X146699402Y-48799590D02*
X144903350Y-47003538D01*
X151189530Y-44309462D02*
X146699402Y-48799590D01*
%TO.C,J2*%
X80647540Y-42799000D02*
X80647540Y-30734000D01*
X90248740Y-42799000D02*
X80647540Y-42799000D01*
X90248740Y-30734000D02*
X90248740Y-42799000D01*
%TO.C,RB2*%
X264697396Y-40161396D02*
X266044434Y-41508434D01*
X271881600Y-47345600D02*
X270534562Y-45998562D01*
X265146408Y-42406460D02*
X266942460Y-40610408D01*
X269636536Y-46896588D02*
X265146408Y-42406460D01*
X271432588Y-45100536D02*
X269636536Y-46896588D01*
X266942460Y-40610408D02*
X271432588Y-45100536D01*
%TO.C,RA2*%
X260923498Y-40857898D02*
X262270536Y-42204936D01*
X268107702Y-48042102D02*
X266760664Y-46695064D01*
X261372510Y-43102962D02*
X263168562Y-41306910D01*
X265862638Y-47593090D02*
X261372510Y-43102962D01*
X267658690Y-45797038D02*
X265862638Y-47593090D01*
X263168562Y-41306910D02*
X267658690Y-45797038D01*
%TO.C,J3*%
X324180200Y-42799000D02*
X324180200Y-30734000D01*
X333781400Y-42799000D02*
X324180200Y-42799000D01*
X333781400Y-30734000D02*
X333781400Y-42799000D01*
D15*
%TO.C,U1*%
X231156200Y-36465200D02*
X223656200Y-36465200D01*
X231156200Y-54365200D02*
X223656200Y-54365200D01*
D16*
X234011200Y-54270200D02*
G75*
G03*
X234011200Y-54270200I-100000J0D01*
G01*
D14*
%TO.C,C5*%
X166688380Y-41734200D02*
X166407220Y-41734200D01*
X166688380Y-40714200D02*
X166407220Y-40714200D01*
%TO.C,C4*%
X174907820Y-34614580D02*
X174626660Y-34614580D01*
X174907820Y-33594580D02*
X174626660Y-33594580D01*
%TO.C,C3*%
X186316219Y-52219570D02*
X186515030Y-52418381D01*
X185594970Y-52940819D02*
X185793781Y-53139630D01*
%TO.C,C2*%
X187789419Y-39925970D02*
X187988230Y-40124781D01*
X187068170Y-40647219D02*
X187266981Y-40846030D01*
%TO.C,Y1*%
X189422200Y-49228600D02*
X189422200Y-49378600D01*
X191222200Y-49228600D02*
X191222200Y-49378600D01*
X191222200Y-52828600D02*
X191222200Y-52678600D01*
X189422200Y-52828600D02*
X189422200Y-52678600D01*
X191222200Y-52828600D02*
X189422200Y-52828600D01*
X189422200Y-49228600D02*
X191222200Y-49228600D01*
D10*
%TO.C,U4*%
X171245455Y-43980100D02*
X178033680Y-37191875D01*
X178033680Y-37191875D02*
X184821905Y-43980100D01*
X184821905Y-43980100D02*
X178033680Y-50768325D01*
X178033680Y-50768325D02*
X171245455Y-43980100D01*
D17*
X172659526Y-43980100D02*
G75*
G03*
X172659526Y-43980100I-282700J0D01*
G01*
D18*
%TO.C,SW1*%
X196854320Y-48501300D02*
G75*
G03*
X196854320Y-48501300I-1000000J0D01*
G01*
X198454320Y-51101300D02*
X193254320Y-51101300D01*
X198454320Y-45901300D02*
X198454320Y-51101300D01*
X193254320Y-45901300D02*
X198454320Y-45901300D01*
X193254320Y-51101300D02*
X193254320Y-45901300D01*
D14*
%TO.C,R6*%
X183015658Y-35930100D02*
X182541142Y-35930100D01*
X183015658Y-34885100D02*
X182541142Y-34885100D01*
%TO.C,R5*%
X167547058Y-47385500D02*
X167072542Y-47385500D01*
X167547058Y-46340500D02*
X167072542Y-46340500D01*
%TO.C,R4*%
X168563058Y-49011100D02*
X168088542Y-49011100D01*
X168563058Y-47966100D02*
X168088542Y-47966100D01*
%TO.C,R2*%
X101579447Y-41309270D02*
X101914980Y-41644803D01*
X100840520Y-42048197D02*
X101176053Y-42383730D01*
%TO.C,R1*%
X104754447Y-40039270D02*
X105089980Y-40374803D01*
X104015520Y-40778197D02*
X104351053Y-41113730D01*
%TO.C,C1*%
X170472980Y-50624200D02*
X170191820Y-50624200D01*
X170472980Y-49604200D02*
X170191820Y-49604200D01*
%TO.C,J1*%
D11*
X134537873Y-32300333D02*
X134537873Y-33739666D01*
X134622540Y-33909000D01*
X134707206Y-33993666D01*
X134876540Y-34078333D01*
X135215206Y-34078333D01*
X135384540Y-33993666D01*
X135469206Y-33909000D01*
X135553873Y-33739666D01*
X135553873Y-32300333D01*
X136315873Y-33993666D02*
X136569873Y-34078333D01*
X136993206Y-34078333D01*
X137162540Y-33993666D01*
X137247206Y-33909000D01*
X137331873Y-33739666D01*
X137331873Y-33570333D01*
X137247206Y-33401000D01*
X137162540Y-33316333D01*
X136993206Y-33231666D01*
X136654540Y-33147000D01*
X136485206Y-33062333D01*
X136400540Y-32977666D01*
X136315873Y-32808333D01*
X136315873Y-32639000D01*
X136400540Y-32469666D01*
X136485206Y-32385000D01*
X136654540Y-32300333D01*
X137077873Y-32300333D01*
X137331873Y-32385000D01*
X138686540Y-33147000D02*
X138940540Y-33231666D01*
X139025206Y-33316333D01*
X139109873Y-33485666D01*
X139109873Y-33739666D01*
X139025206Y-33909000D01*
X138940540Y-33993666D01*
X138771206Y-34078333D01*
X138093873Y-34078333D01*
X138093873Y-32300333D01*
X138686540Y-32300333D01*
X138855873Y-32385000D01*
X138940540Y-32469666D01*
X139025206Y-32639000D01*
X139025206Y-32808333D01*
X138940540Y-32977666D01*
X138855873Y-33062333D01*
X138686540Y-33147000D01*
X138093873Y-33147000D01*
%TO.C,R3*%
D18*
X183966193Y-54534895D02*
X183393773Y-54433880D01*
X183562132Y-54938956D02*
X182855025Y-54231850D01*
X183124399Y-53962475D01*
X183225414Y-53928804D01*
X183292758Y-53928804D01*
X183393773Y-53962475D01*
X183494788Y-54063491D01*
X183528460Y-54164506D01*
X183528460Y-54231850D01*
X183494788Y-54332865D01*
X183225414Y-54602239D01*
X183494788Y-53592086D02*
X183932521Y-53154353D01*
X183966193Y-53659430D01*
X184067208Y-53558414D01*
X184168224Y-53524743D01*
X184235567Y-53524743D01*
X184336582Y-53558414D01*
X184504941Y-53726773D01*
X184538613Y-53827788D01*
X184538613Y-53895132D01*
X184504941Y-53996147D01*
X184302911Y-54198178D01*
X184201895Y-54231850D01*
X184134552Y-54231850D01*
%TO.C,RC1*%
D10*
X123466678Y-47818523D02*
X122982869Y-47818523D01*
X122982869Y-46548523D01*
X123805345Y-47153285D02*
X124144011Y-47153285D01*
X124289154Y-47818523D02*
X123805345Y-47818523D01*
X123805345Y-46548523D01*
X124289154Y-46548523D01*
X124724583Y-47818523D02*
X124724583Y-46548523D01*
X124966488Y-46548523D01*
X125111630Y-46609000D01*
X125208392Y-46729952D01*
X125256773Y-46850904D01*
X125305154Y-47092809D01*
X125305154Y-47274238D01*
X125256773Y-47516142D01*
X125208392Y-47637095D01*
X125111630Y-47758047D01*
X124966488Y-47818523D01*
X124724583Y-47818523D01*
X126176011Y-47758047D02*
X126079250Y-47818523D01*
X125885726Y-47818523D01*
X125788964Y-47758047D01*
X125740583Y-47697571D01*
X125692202Y-47576619D01*
X125692202Y-47213761D01*
X125740583Y-47092809D01*
X125788964Y-47032333D01*
X125885726Y-46971857D01*
X126079250Y-46971857D01*
X126176011Y-47032333D01*
%TO.C,RB1*%
X145760848Y-44944591D02*
X145418743Y-45286696D01*
X144520717Y-44388670D01*
X145529927Y-44234723D02*
X145769400Y-43995249D01*
X146342426Y-44363012D02*
X146000321Y-44705117D01*
X145102296Y-43807092D01*
X145444401Y-43464987D01*
X146650321Y-44055118D02*
X145752295Y-43157092D01*
X145923348Y-42986040D01*
X146068742Y-42926171D01*
X146222689Y-42943276D01*
X146342426Y-42994592D01*
X146547689Y-43131434D01*
X146675979Y-43259724D01*
X146812821Y-43464987D01*
X146864136Y-43584723D01*
X146881242Y-43738671D01*
X146821373Y-43884065D01*
X146650321Y-44055118D01*
X147368741Y-43336697D02*
X146470716Y-42438672D01*
X146812821Y-42780777D02*
X146838478Y-42669592D01*
X146975320Y-42532750D01*
X147086505Y-42507093D01*
X147163478Y-42515645D01*
X147283215Y-42566961D01*
X147539794Y-42823540D01*
X147591109Y-42943276D01*
X147599662Y-43020250D01*
X147574004Y-43131434D01*
X147437162Y-43268276D01*
X147325978Y-43293934D01*
%TO.C,RA1*%
X147665848Y-46849591D02*
X147323743Y-47191696D01*
X146425717Y-46293670D01*
X147434927Y-46139723D02*
X147674400Y-45900249D01*
X148247426Y-46268012D02*
X147905321Y-46610117D01*
X147007296Y-45712092D01*
X147349401Y-45369987D01*
X148555321Y-45960118D02*
X147657295Y-45062092D01*
X147828348Y-44891040D01*
X147973742Y-44831171D01*
X148127689Y-44848276D01*
X148247426Y-44899592D01*
X148452689Y-45036434D01*
X148580979Y-45164724D01*
X148717821Y-45369987D01*
X148769136Y-45489723D01*
X148786242Y-45643671D01*
X148726373Y-45789065D01*
X148555321Y-45960118D01*
X149581636Y-44933803D02*
X149111241Y-44463408D01*
X148991505Y-44412093D01*
X148880320Y-44437750D01*
X148743478Y-44574592D01*
X148717821Y-44685777D01*
X149538873Y-44891040D02*
X149513215Y-45002224D01*
X149342162Y-45173276D01*
X149230978Y-45198934D01*
X149111241Y-45147618D01*
X149025715Y-45062092D01*
X148974399Y-44942355D01*
X149000057Y-44831171D01*
X149171110Y-44660119D01*
X149196768Y-44548935D01*
%TO.C,LED_C1*%
D17*
X82439630Y-119372017D02*
X82439630Y-120097731D01*
X80788630Y-120097731D01*
X81574821Y-118864017D02*
X81574821Y-118356017D01*
X82439630Y-118138302D02*
X82439630Y-118864017D01*
X80788630Y-118864017D01*
X80788630Y-118138302D01*
X82439630Y-117485160D02*
X80788630Y-117485160D01*
X80788630Y-117122302D01*
X80867250Y-116904588D01*
X81024488Y-116759445D01*
X81181726Y-116686874D01*
X81496202Y-116614302D01*
X81732059Y-116614302D01*
X82046535Y-116686874D01*
X82203773Y-116759445D01*
X82361011Y-116904588D01*
X82439630Y-117122302D01*
X82439630Y-117485160D01*
X82361011Y-115308017D02*
X82439630Y-115453160D01*
X82439630Y-115743445D01*
X82361011Y-115888588D01*
X82282392Y-115961160D01*
X82125154Y-116033731D01*
X81653440Y-116033731D01*
X81496202Y-115961160D01*
X81417583Y-115888588D01*
X81338964Y-115743445D01*
X81338964Y-115453160D01*
X81417583Y-115308017D01*
%TO.C,LED_B1*%
X82439630Y-90833302D02*
X82439630Y-91559017D01*
X80788630Y-91559017D01*
X81574821Y-90325302D02*
X81574821Y-89817302D01*
X82439630Y-89599588D02*
X82439630Y-90325302D01*
X80788630Y-90325302D01*
X80788630Y-89599588D01*
X82439630Y-88946445D02*
X80788630Y-88946445D01*
X80788630Y-88583588D01*
X80867250Y-88365874D01*
X81024488Y-88220731D01*
X81181726Y-88148160D01*
X81496202Y-88075588D01*
X81732059Y-88075588D01*
X82046535Y-88148160D01*
X82203773Y-88220731D01*
X82361011Y-88365874D01*
X82439630Y-88583588D01*
X82439630Y-88946445D01*
X82439630Y-87422445D02*
X80788630Y-87422445D01*
X81417583Y-87422445D02*
X81338964Y-87277302D01*
X81338964Y-86987017D01*
X81417583Y-86841874D01*
X81496202Y-86769302D01*
X81653440Y-86696731D01*
X82125154Y-86696731D01*
X82282392Y-86769302D01*
X82361011Y-86841874D01*
X82439630Y-86987017D01*
X82439630Y-87277302D01*
X82361011Y-87422445D01*
%TO.C,LED_A1*%
X69863607Y-76261080D02*
X69137892Y-76261080D01*
X69137892Y-74610080D01*
X70371607Y-75396271D02*
X70879607Y-75396271D01*
X71097321Y-76261080D02*
X70371607Y-76261080D01*
X70371607Y-74610080D01*
X71097321Y-74610080D01*
X71750464Y-76261080D02*
X71750464Y-74610080D01*
X72113321Y-74610080D01*
X72331035Y-74688700D01*
X72476178Y-74845938D01*
X72548750Y-75003176D01*
X72621321Y-75317652D01*
X72621321Y-75553509D01*
X72548750Y-75867985D01*
X72476178Y-76025223D01*
X72331035Y-76182461D01*
X72113321Y-76261080D01*
X71750464Y-76261080D01*
X73927607Y-76261080D02*
X73927607Y-75396271D01*
X73855035Y-75239033D01*
X73709892Y-75160414D01*
X73419607Y-75160414D01*
X73274464Y-75239033D01*
X73927607Y-76182461D02*
X73782464Y-76261080D01*
X73419607Y-76261080D01*
X73274464Y-76182461D01*
X73201892Y-76025223D01*
X73201892Y-75867985D01*
X73274464Y-75710747D01*
X73419607Y-75632128D01*
X73782464Y-75632128D01*
X73927607Y-75553509D01*
%TO.C,J2*%
D11*
X81214806Y-35614428D02*
X82315473Y-35614428D01*
X81722806Y-36195000D01*
X81976806Y-36195000D01*
X82146140Y-36267571D01*
X82230806Y-36340142D01*
X82315473Y-36485285D01*
X82315473Y-36848142D01*
X82230806Y-36993285D01*
X82146140Y-37065857D01*
X81976806Y-37138428D01*
X81468806Y-37138428D01*
X81299473Y-37065857D01*
X81214806Y-36993285D01*
X83077473Y-36993285D02*
X83162140Y-37065857D01*
X83077473Y-37138428D01*
X82992806Y-37065857D01*
X83077473Y-36993285D01*
X83077473Y-37138428D01*
X84770806Y-35614428D02*
X83924140Y-35614428D01*
X83839473Y-36340142D01*
X83924140Y-36267571D01*
X84093473Y-36195000D01*
X84516806Y-36195000D01*
X84686140Y-36267571D01*
X84770806Y-36340142D01*
X84855473Y-36485285D01*
X84855473Y-36848142D01*
X84770806Y-36993285D01*
X84686140Y-37065857D01*
X84516806Y-37138428D01*
X84093473Y-37138428D01*
X83924140Y-37065857D01*
X83839473Y-36993285D01*
X85617473Y-37138428D02*
X85617473Y-36122428D01*
X85617473Y-36267571D02*
X85702140Y-36195000D01*
X85871473Y-36122428D01*
X86125473Y-36122428D01*
X86294806Y-36195000D01*
X86379473Y-36340142D01*
X86379473Y-37138428D01*
X86379473Y-36340142D02*
X86464140Y-36195000D01*
X86633473Y-36122428D01*
X86887473Y-36122428D01*
X87056806Y-36195000D01*
X87141473Y-36340142D01*
X87141473Y-37138428D01*
X87988140Y-37138428D02*
X87988140Y-36122428D01*
X87988140Y-36267571D02*
X88072806Y-36195000D01*
X88242140Y-36122428D01*
X88496140Y-36122428D01*
X88665473Y-36195000D01*
X88750140Y-36340142D01*
X88750140Y-37138428D01*
X88750140Y-36340142D02*
X88834806Y-36195000D01*
X89004140Y-36122428D01*
X89258140Y-36122428D01*
X89427473Y-36195000D01*
X89512140Y-36340142D01*
X89512140Y-37138428D01*
%TO.C,LED_B2*%
D17*
X343646880Y-90823142D02*
X343646880Y-91548857D01*
X341995880Y-91548857D01*
X342782071Y-90315142D02*
X342782071Y-89807142D01*
X343646880Y-89589428D02*
X343646880Y-90315142D01*
X341995880Y-90315142D01*
X341995880Y-89589428D01*
X343646880Y-88936285D02*
X341995880Y-88936285D01*
X341995880Y-88573428D01*
X342074500Y-88355714D01*
X342231738Y-88210571D01*
X342388976Y-88138000D01*
X342703452Y-88065428D01*
X342939309Y-88065428D01*
X343253785Y-88138000D01*
X343411023Y-88210571D01*
X343568261Y-88355714D01*
X343646880Y-88573428D01*
X343646880Y-88936285D01*
X343646880Y-87412285D02*
X341995880Y-87412285D01*
X342624833Y-87412285D02*
X342546214Y-87267142D01*
X342546214Y-86976857D01*
X342624833Y-86831714D01*
X342703452Y-86759142D01*
X342860690Y-86686571D01*
X343332404Y-86686571D01*
X343489642Y-86759142D01*
X343568261Y-86831714D01*
X343646880Y-86976857D01*
X343646880Y-87267142D01*
X343568261Y-87412285D01*
%TO.C,LED_A2*%
X341230857Y-66101080D02*
X340505142Y-66101080D01*
X340505142Y-64450080D01*
X341738857Y-65236271D02*
X342246857Y-65236271D01*
X342464571Y-66101080D02*
X341738857Y-66101080D01*
X341738857Y-64450080D01*
X342464571Y-64450080D01*
X343117714Y-66101080D02*
X343117714Y-64450080D01*
X343480571Y-64450080D01*
X343698285Y-64528700D01*
X343843428Y-64685938D01*
X343916000Y-64843176D01*
X343988571Y-65157652D01*
X343988571Y-65393509D01*
X343916000Y-65707985D01*
X343843428Y-65865223D01*
X343698285Y-66022461D01*
X343480571Y-66101080D01*
X343117714Y-66101080D01*
X345294857Y-66101080D02*
X345294857Y-65236271D01*
X345222285Y-65079033D01*
X345077142Y-65000414D01*
X344786857Y-65000414D01*
X344641714Y-65079033D01*
X345294857Y-66022461D02*
X345149714Y-66101080D01*
X344786857Y-66101080D01*
X344641714Y-66022461D01*
X344569142Y-65865223D01*
X344569142Y-65707985D01*
X344641714Y-65550747D01*
X344786857Y-65472128D01*
X345149714Y-65472128D01*
X345294857Y-65393509D01*
%TO.C,RB2*%
D10*
X267096406Y-43372906D02*
X266754301Y-43030801D01*
X267652327Y-42132775D01*
X267806274Y-43141985D02*
X268045748Y-43381458D01*
X267677985Y-43954484D02*
X267335880Y-43612379D01*
X268233905Y-42714354D01*
X268576010Y-43056459D01*
X267985879Y-44262379D02*
X268883905Y-43364353D01*
X269054957Y-43535406D01*
X269114826Y-43680800D01*
X269097721Y-43834747D01*
X269046405Y-43954484D01*
X268909563Y-44159747D01*
X268781273Y-44288037D01*
X268576010Y-44424879D01*
X268456274Y-44476194D01*
X268302326Y-44493300D01*
X268156932Y-44433431D01*
X267985879Y-44262379D01*
X268704300Y-44980799D02*
X269602325Y-44082774D01*
X269260220Y-44424879D02*
X269371405Y-44450536D01*
X269508247Y-44587378D01*
X269533904Y-44698563D01*
X269525352Y-44775536D01*
X269474036Y-44895273D01*
X269217457Y-45151852D01*
X269097721Y-45203167D01*
X269020747Y-45211720D01*
X268909563Y-45186062D01*
X268772721Y-45049220D01*
X268747063Y-44938036D01*
%TO.C,RA2*%
X263322508Y-44069408D02*
X262980403Y-43727303D01*
X263878429Y-42829277D01*
X264032376Y-43838487D02*
X264271850Y-44077960D01*
X263904087Y-44650986D02*
X263561982Y-44308881D01*
X264460007Y-43410856D01*
X264802112Y-43752961D01*
X264211981Y-44958881D02*
X265110007Y-44060855D01*
X265281059Y-44231908D01*
X265340928Y-44377302D01*
X265323823Y-44531249D01*
X265272507Y-44650986D01*
X265135665Y-44856249D01*
X265007375Y-44984539D01*
X264802112Y-45121381D01*
X264682376Y-45172696D01*
X264528428Y-45189802D01*
X264383034Y-45129933D01*
X264211981Y-44958881D01*
X265238296Y-45985196D02*
X265708691Y-45514801D01*
X265760006Y-45395065D01*
X265734349Y-45283880D01*
X265597507Y-45147038D01*
X265486322Y-45121381D01*
X265281059Y-45942433D02*
X265169875Y-45916775D01*
X264998823Y-45745722D01*
X264973165Y-45634538D01*
X265024481Y-45514801D01*
X265110007Y-45429275D01*
X265229744Y-45377959D01*
X265340928Y-45403617D01*
X265511980Y-45574670D01*
X265623164Y-45600328D01*
%TO.C,J3*%
D11*
X324747466Y-35614428D02*
X325848133Y-35614428D01*
X325255466Y-36195000D01*
X325509466Y-36195000D01*
X325678800Y-36267571D01*
X325763466Y-36340142D01*
X325848133Y-36485285D01*
X325848133Y-36848142D01*
X325763466Y-36993285D01*
X325678800Y-37065857D01*
X325509466Y-37138428D01*
X325001466Y-37138428D01*
X324832133Y-37065857D01*
X324747466Y-36993285D01*
X326610133Y-36993285D02*
X326694800Y-37065857D01*
X326610133Y-37138428D01*
X326525466Y-37065857D01*
X326610133Y-36993285D01*
X326610133Y-37138428D01*
X328303466Y-35614428D02*
X327456800Y-35614428D01*
X327372133Y-36340142D01*
X327456800Y-36267571D01*
X327626133Y-36195000D01*
X328049466Y-36195000D01*
X328218800Y-36267571D01*
X328303466Y-36340142D01*
X328388133Y-36485285D01*
X328388133Y-36848142D01*
X328303466Y-36993285D01*
X328218800Y-37065857D01*
X328049466Y-37138428D01*
X327626133Y-37138428D01*
X327456800Y-37065857D01*
X327372133Y-36993285D01*
X329150133Y-37138428D02*
X329150133Y-36122428D01*
X329150133Y-36267571D02*
X329234800Y-36195000D01*
X329404133Y-36122428D01*
X329658133Y-36122428D01*
X329827466Y-36195000D01*
X329912133Y-36340142D01*
X329912133Y-37138428D01*
X329912133Y-36340142D02*
X329996800Y-36195000D01*
X330166133Y-36122428D01*
X330420133Y-36122428D01*
X330589466Y-36195000D01*
X330674133Y-36340142D01*
X330674133Y-37138428D01*
X331520800Y-37138428D02*
X331520800Y-36122428D01*
X331520800Y-36267571D02*
X331605466Y-36195000D01*
X331774800Y-36122428D01*
X332028800Y-36122428D01*
X332198133Y-36195000D01*
X332282800Y-36340142D01*
X332282800Y-37138428D01*
X332282800Y-36340142D02*
X332367466Y-36195000D01*
X332536800Y-36122428D01*
X332790800Y-36122428D01*
X332960133Y-36195000D01*
X333044800Y-36340142D01*
X333044800Y-37138428D01*
%TO.C,U1*%
D19*
X229119295Y-54629580D02*
X229119295Y-55439104D01*
X229166914Y-55534342D01*
X229214533Y-55581961D01*
X229309771Y-55629580D01*
X229500247Y-55629580D01*
X229595485Y-55581961D01*
X229643104Y-55534342D01*
X229690723Y-55439104D01*
X229690723Y-54629580D01*
X230690723Y-55629580D02*
X230119295Y-55629580D01*
X230405009Y-55629580D02*
X230405009Y-54629580D01*
X230309771Y-54772438D01*
X230214533Y-54867676D01*
X230119295Y-54915295D01*
%TO.C,C5*%
D18*
X166381133Y-43011342D02*
X166333514Y-43058961D01*
X166190657Y-43106580D01*
X166095419Y-43106580D01*
X165952561Y-43058961D01*
X165857323Y-42963723D01*
X165809704Y-42868485D01*
X165762085Y-42678009D01*
X165762085Y-42535152D01*
X165809704Y-42344676D01*
X165857323Y-42249438D01*
X165952561Y-42154200D01*
X166095419Y-42106580D01*
X166190657Y-42106580D01*
X166333514Y-42154200D01*
X166381133Y-42201819D01*
X167285895Y-42106580D02*
X166809704Y-42106580D01*
X166762085Y-42582771D01*
X166809704Y-42535152D01*
X166904942Y-42487533D01*
X167143038Y-42487533D01*
X167238276Y-42535152D01*
X167285895Y-42582771D01*
X167333514Y-42678009D01*
X167333514Y-42916104D01*
X167285895Y-43011342D01*
X167238276Y-43058961D01*
X167143038Y-43106580D01*
X166904942Y-43106580D01*
X166809704Y-43058961D01*
X166762085Y-43011342D01*
%TO.C,C4*%
X174600573Y-35891722D02*
X174552954Y-35939341D01*
X174410097Y-35986960D01*
X174314859Y-35986960D01*
X174172001Y-35939341D01*
X174076763Y-35844103D01*
X174029144Y-35748865D01*
X173981525Y-35558389D01*
X173981525Y-35415532D01*
X174029144Y-35225056D01*
X174076763Y-35129818D01*
X174172001Y-35034580D01*
X174314859Y-34986960D01*
X174410097Y-34986960D01*
X174552954Y-35034580D01*
X174600573Y-35082199D01*
X175457716Y-35320294D02*
X175457716Y-35986960D01*
X175219620Y-34939341D02*
X174981525Y-35653627D01*
X175600573Y-35653627D01*
%TO.C,C3*%
X186695773Y-51803124D02*
X186628430Y-51803124D01*
X186493743Y-51735780D01*
X186426399Y-51668437D01*
X186359056Y-51533749D01*
X186359056Y-51399062D01*
X186392727Y-51298047D01*
X186493743Y-51129688D01*
X186594758Y-51028673D01*
X186763117Y-50927658D01*
X186864132Y-50893986D01*
X186998819Y-50893986D01*
X187133506Y-50961330D01*
X187200850Y-51028673D01*
X187268193Y-51163360D01*
X187268193Y-51230704D01*
X187571239Y-51399062D02*
X188008972Y-51836795D01*
X187503895Y-51870467D01*
X187604911Y-51971482D01*
X187638582Y-52072498D01*
X187638582Y-52139841D01*
X187604911Y-52240856D01*
X187436552Y-52409215D01*
X187335537Y-52442887D01*
X187268193Y-52442887D01*
X187167178Y-52409215D01*
X186965147Y-52207185D01*
X186931475Y-52106169D01*
X186931475Y-52038826D01*
%TO.C,C2*%
X188168973Y-39509524D02*
X188101630Y-39509524D01*
X187966943Y-39442180D01*
X187899599Y-39374837D01*
X187832256Y-39240149D01*
X187832256Y-39105462D01*
X187865927Y-39004447D01*
X187966943Y-38836088D01*
X188067958Y-38735073D01*
X188236317Y-38634058D01*
X188337332Y-38600386D01*
X188472019Y-38600386D01*
X188606706Y-38667730D01*
X188674050Y-38735073D01*
X188741393Y-38869760D01*
X188741393Y-38937104D01*
X189010767Y-39206478D02*
X189078111Y-39206478D01*
X189179126Y-39240149D01*
X189347485Y-39408508D01*
X189381156Y-39509524D01*
X189381156Y-39576867D01*
X189347485Y-39677882D01*
X189280141Y-39745226D01*
X189145454Y-39812569D01*
X188337332Y-39812569D01*
X188775065Y-40250302D01*
%TO.C,U4*%
D20*
X168614074Y-40981967D02*
X169415462Y-41783354D01*
X169556883Y-41830495D01*
X169651164Y-41830495D01*
X169792585Y-41783354D01*
X169981147Y-41594792D01*
X170028288Y-41453371D01*
X170028288Y-41359090D01*
X169981147Y-41217669D01*
X169179759Y-40416281D01*
X170405411Y-39850596D02*
X171065378Y-40510562D01*
X169792585Y-39709174D02*
X170263990Y-40651983D01*
X170876816Y-40039157D01*
X176107591Y-57728212D02*
X176578996Y-57256807D01*
X176296153Y-58105336D02*
X175636187Y-56785403D01*
X176956119Y-57445369D01*
X176154732Y-56266858D02*
X176720417Y-55701173D01*
X177427524Y-56973965D02*
X176437574Y-55984015D01*
X178040350Y-56361139D02*
X177050400Y-55371189D01*
X178087490Y-55748313D01*
X177710367Y-54711223D01*
X178700316Y-55701173D01*
X178653176Y-54711223D02*
X178983159Y-54381240D01*
X179643125Y-54758363D02*
X179171721Y-55229768D01*
X178181771Y-54239818D01*
X178653176Y-53768414D01*
X179643125Y-52872745D02*
X179501704Y-52919886D01*
X179360282Y-53061307D01*
X179266002Y-53249869D01*
X179266002Y-53438431D01*
X179313142Y-53579852D01*
X179454563Y-53815554D01*
X179595985Y-53956976D01*
X179831687Y-54098397D01*
X179973108Y-54145538D01*
X180161670Y-54145538D01*
X180350232Y-54051257D01*
X180444513Y-53956976D01*
X180538794Y-53768414D01*
X180538794Y-53674133D01*
X180208811Y-53344150D01*
X180020249Y-53532712D01*
X180727356Y-53108448D02*
X181198760Y-52637043D01*
X180915917Y-53485571D02*
X180255951Y-52165639D01*
X181575884Y-52825605D01*
X180821636Y-51599953D02*
X181434462Y-50987127D01*
X181481603Y-51694234D01*
X181623024Y-51552813D01*
X181764445Y-51505672D01*
X181858726Y-51505672D01*
X182000148Y-51552813D01*
X182235850Y-51788515D01*
X182282990Y-51929936D01*
X182282990Y-52024217D01*
X182235850Y-52165639D01*
X181953007Y-52448481D01*
X181811586Y-52495622D01*
X181717305Y-52495622D01*
X181905867Y-50704285D02*
X181905867Y-50610004D01*
X181953007Y-50468582D01*
X182188710Y-50232880D01*
X182330131Y-50185740D01*
X182424412Y-50185740D01*
X182565833Y-50232880D01*
X182660114Y-50327161D01*
X182754395Y-50515723D01*
X182754395Y-51647094D01*
X183367221Y-51034268D01*
X182801535Y-49620054D02*
X183602923Y-50421442D01*
X183744344Y-50468582D01*
X183838625Y-50468582D01*
X183980047Y-50421442D01*
X184168609Y-50232880D01*
X184215749Y-50091459D01*
X184215749Y-49997178D01*
X184168609Y-49855756D01*
X183367221Y-49054369D01*
X184592873Y-48488683D02*
X185252839Y-49148650D01*
X183980047Y-48347262D02*
X184451451Y-49290071D01*
X185064277Y-48677245D01*
X185394260Y-48252981D02*
X186148508Y-47498734D01*
X186667052Y-47168751D02*
X187138457Y-46697346D01*
X186855614Y-47545874D02*
X186195648Y-46225942D01*
X187515581Y-46885908D01*
X186855614Y-45565975D02*
X187657002Y-46367363D01*
X187798423Y-46414503D01*
X187892704Y-46414503D01*
X188034126Y-46367363D01*
X188222687Y-46178801D01*
X188269828Y-46037380D01*
X188269828Y-45943099D01*
X188222687Y-45801678D01*
X187421300Y-45000290D01*
%TO.C,SW1*%
D18*
X200323081Y-49834633D02*
X200370700Y-49691776D01*
X200370700Y-49453680D01*
X200323081Y-49358442D01*
X200275462Y-49310823D01*
X200180224Y-49263204D01*
X200084986Y-49263204D01*
X199989748Y-49310823D01*
X199942129Y-49358442D01*
X199894510Y-49453680D01*
X199846891Y-49644157D01*
X199799272Y-49739395D01*
X199751653Y-49787014D01*
X199656415Y-49834633D01*
X199561177Y-49834633D01*
X199465939Y-49787014D01*
X199418320Y-49739395D01*
X199370700Y-49644157D01*
X199370700Y-49406061D01*
X199418320Y-49263204D01*
X199370700Y-48929871D02*
X200370700Y-48691776D01*
X199656415Y-48501300D01*
X200370700Y-48310823D01*
X199370700Y-48072728D01*
X200370700Y-47167966D02*
X200370700Y-47739395D01*
X200370700Y-47453680D02*
X199370700Y-47453680D01*
X199513558Y-47548919D01*
X199608796Y-47644157D01*
X199656415Y-47739395D01*
%TO.C,R6*%
X182611733Y-37289980D02*
X182278400Y-36813790D01*
X182040304Y-37289980D02*
X182040304Y-36289980D01*
X182421257Y-36289980D01*
X182516495Y-36337600D01*
X182564114Y-36385219D01*
X182611733Y-36480457D01*
X182611733Y-36623314D01*
X182564114Y-36718552D01*
X182516495Y-36766171D01*
X182421257Y-36813790D01*
X182040304Y-36813790D01*
X183468876Y-36289980D02*
X183278400Y-36289980D01*
X183183161Y-36337600D01*
X183135542Y-36385219D01*
X183040304Y-36528076D01*
X182992685Y-36718552D01*
X182992685Y-37099504D01*
X183040304Y-37194742D01*
X183087923Y-37242361D01*
X183183161Y-37289980D01*
X183373638Y-37289980D01*
X183468876Y-37242361D01*
X183516495Y-37194742D01*
X183564114Y-37099504D01*
X183564114Y-36861409D01*
X183516495Y-36766171D01*
X183468876Y-36718552D01*
X183373638Y-36670933D01*
X183183161Y-36670933D01*
X183087923Y-36718552D01*
X183040304Y-36766171D01*
X182992685Y-36861409D01*
%TO.C,R5*%
X167143133Y-48745380D02*
X166809800Y-48269190D01*
X166571704Y-48745380D02*
X166571704Y-47745380D01*
X166952657Y-47745380D01*
X167047895Y-47793000D01*
X167095514Y-47840619D01*
X167143133Y-47935857D01*
X167143133Y-48078714D01*
X167095514Y-48173952D01*
X167047895Y-48221571D01*
X166952657Y-48269190D01*
X166571704Y-48269190D01*
X168047895Y-47745380D02*
X167571704Y-47745380D01*
X167524085Y-48221571D01*
X167571704Y-48173952D01*
X167666942Y-48126333D01*
X167905038Y-48126333D01*
X168000276Y-48173952D01*
X168047895Y-48221571D01*
X168095514Y-48316809D01*
X168095514Y-48554904D01*
X168047895Y-48650142D01*
X168000276Y-48697761D01*
X167905038Y-48745380D01*
X167666942Y-48745380D01*
X167571704Y-48697761D01*
X167524085Y-48650142D01*
%TO.C,R4*%
X168159133Y-50370980D02*
X167825800Y-49894790D01*
X167587704Y-50370980D02*
X167587704Y-49370980D01*
X167968657Y-49370980D01*
X168063895Y-49418600D01*
X168111514Y-49466219D01*
X168159133Y-49561457D01*
X168159133Y-49704314D01*
X168111514Y-49799552D01*
X168063895Y-49847171D01*
X167968657Y-49894790D01*
X167587704Y-49894790D01*
X169016276Y-49704314D02*
X169016276Y-50370980D01*
X168778180Y-49323361D02*
X168540085Y-50037647D01*
X169159133Y-50037647D01*
%TO.C,R2*%
X101951180Y-41037367D02*
X102052195Y-40464947D01*
X101547119Y-40633306D02*
X102254225Y-39926199D01*
X102523600Y-40195573D01*
X102557271Y-40296588D01*
X102557271Y-40363932D01*
X102523600Y-40464947D01*
X102422584Y-40565962D01*
X102321569Y-40599634D01*
X102254225Y-40599634D01*
X102153210Y-40565962D01*
X101883836Y-40296588D01*
X102860317Y-40666978D02*
X102927661Y-40666978D01*
X103028676Y-40700649D01*
X103197035Y-40869008D01*
X103230706Y-40970024D01*
X103230706Y-41037367D01*
X103197035Y-41138382D01*
X103129691Y-41205726D01*
X102995004Y-41273069D01*
X102186882Y-41273069D01*
X102624615Y-41710802D01*
%TO.C,R1*%
X105126180Y-39767367D02*
X105227195Y-39194947D01*
X104722119Y-39363306D02*
X105429225Y-38656199D01*
X105698600Y-38925573D01*
X105732271Y-39026588D01*
X105732271Y-39093932D01*
X105698600Y-39194947D01*
X105597584Y-39295962D01*
X105496569Y-39329634D01*
X105429225Y-39329634D01*
X105328210Y-39295962D01*
X105058836Y-39026588D01*
X105799615Y-40440802D02*
X105395554Y-40036741D01*
X105597584Y-40238772D02*
X106304691Y-39531665D01*
X106136332Y-39565337D01*
X106001645Y-39565337D01*
X105900630Y-39531665D01*
%TO.C,C1*%
X170165733Y-51901342D02*
X170118114Y-51948961D01*
X169975257Y-51996580D01*
X169880019Y-51996580D01*
X169737161Y-51948961D01*
X169641923Y-51853723D01*
X169594304Y-51758485D01*
X169546685Y-51568009D01*
X169546685Y-51425152D01*
X169594304Y-51234676D01*
X169641923Y-51139438D01*
X169737161Y-51044200D01*
X169880019Y-50996580D01*
X169975257Y-50996580D01*
X170118114Y-51044200D01*
X170165733Y-51091819D01*
X171118114Y-51996580D02*
X170546685Y-51996580D01*
X170832400Y-51996580D02*
X170832400Y-50996580D01*
X170737161Y-51139438D01*
X170641923Y-51234676D01*
X170546685Y-51282295D01*
%TD*%
M02*
