%TF.GenerationSoftware,KiCad,Pcbnew,(5.1.9)-1*%
%TF.CreationDate,2021-02-19T15:09:25+09:00*%
%TF.ProjectId,ErgoDOX,4572676f-444f-4582-9e6b-696361645f70,rev?*%
%TF.SameCoordinates,Original*%
%TF.FileFunction,Paste,Bot*%
%TF.FilePolarity,Positive*%
%FSLAX46Y46*%
G04 Gerber Fmt 4.6, Leading zero omitted, Abs format (unit mm)*
G04 Created by KiCad (PCBNEW (5.1.9)-1) date 2021-02-19 15:09:25*
%MOMM*%
%LPD*%
G01*
G04 APERTURE LIST*
%ADD10R,2.550000X2.500000*%
%ADD11C,0.150000*%
%ADD12R,2.500000X2.550000*%
%ADD13R,1.000000X1.400000*%
%ADD14R,1.400000X1.000000*%
G04 APERTURE END LIST*
D10*
%TO.C,SW2:11*%
X153574750Y-116151660D03*
X140647750Y-118691660D03*
%TD*%
%TO.C,SW5:7*%
X77374750Y-60274200D03*
X64447750Y-62814200D03*
%TD*%
%TO.C,SW1:13*%
X191674750Y-138376660D03*
X178747750Y-140916660D03*
%TD*%
D11*
%TO.C,D0:9*%
G36*
X46530217Y-161936168D02*
G01*
X45623909Y-162358787D01*
X45032243Y-161089956D01*
X45938551Y-160667337D01*
X46530217Y-161936168D01*
G37*
G36*
X48033202Y-165153321D02*
G01*
X47126894Y-165575940D01*
X46535228Y-164307109D01*
X47441536Y-163884490D01*
X48033202Y-165153321D01*
G37*
%TD*%
D12*
%TO.C,SW3:132*%
X180746400Y-99517200D03*
X183286400Y-112444200D03*
%TD*%
D10*
%TO.C,SW3:10*%
X134524750Y-95504000D03*
X121597750Y-98044000D03*
%TD*%
%TO.C,SW3:8*%
X96424750Y-98371660D03*
X83497750Y-100911660D03*
%TD*%
%TO.C,SW4:12*%
X172624750Y-81226660D03*
X159697750Y-83766660D03*
%TD*%
D11*
%TO.C,SX0:2*%
G36*
X345676938Y-164244464D02*
G01*
X343411169Y-163187919D01*
X344488846Y-160876834D01*
X346754615Y-161933379D01*
X345676938Y-164244464D01*
G37*
G36*
X342515774Y-177033755D02*
G01*
X340250005Y-175977210D01*
X341327682Y-173666125D01*
X343593451Y-174722670D01*
X342515774Y-177033755D01*
G37*
%TD*%
D12*
%TO.C,SW4:6*%
X347980000Y-95021400D03*
X345440000Y-82094400D03*
%TD*%
D10*
%TO.C,SW5:4*%
X310642000Y-59004200D03*
X297715000Y-61544200D03*
%TD*%
%TO.C,SW2:2*%
X272542000Y-116154200D03*
X259615000Y-118694200D03*
%TD*%
%TO.C,SW5:2*%
X272542000Y-59004200D03*
X259615000Y-61544200D03*
%TD*%
%TO.C,SW1:1*%
X253492000Y-138379200D03*
X240565000Y-140919200D03*
%TD*%
D11*
%TO.C,SX0:3*%
G36*
X328404938Y-156192664D02*
G01*
X326139169Y-155136119D01*
X327216846Y-152825034D01*
X329482615Y-153881579D01*
X328404938Y-156192664D01*
G37*
G36*
X325243774Y-168981955D02*
G01*
X322978005Y-167925410D01*
X324055682Y-165614325D01*
X326321451Y-166670870D01*
X325243774Y-168981955D01*
G37*
%TD*%
%TO.C,SX1:5*%
G36*
X336456738Y-138920664D02*
G01*
X334190969Y-137864119D01*
X335268646Y-135553034D01*
X337534415Y-136609579D01*
X336456738Y-138920664D01*
G37*
G36*
X333295574Y-151709955D02*
G01*
X331029805Y-150653410D01*
X332107482Y-148342325D01*
X334373251Y-149398870D01*
X333295574Y-151709955D01*
G37*
%TD*%
%TO.C,SW0:3*%
G36*
X335525662Y-159072136D02*
G01*
X337791431Y-160128681D01*
X336713754Y-162439766D01*
X334447985Y-161383221D01*
X335525662Y-159072136D01*
G37*
G36*
X338686826Y-146282845D02*
G01*
X340952595Y-147339390D01*
X339874918Y-149650475D01*
X337609149Y-148593930D01*
X338686826Y-146282845D01*
G37*
%TD*%
%TO.C,SX1:6*%
G36*
X353728738Y-146972464D02*
G01*
X351462969Y-145915919D01*
X352540646Y-143604834D01*
X354806415Y-144661379D01*
X353728738Y-146972464D01*
G37*
G36*
X350567574Y-159761755D02*
G01*
X348301805Y-158705210D01*
X349379482Y-156394125D01*
X351645251Y-157450670D01*
X350567574Y-159761755D01*
G37*
%TD*%
%TO.C,SW0:2*%
G36*
X352772262Y-167123936D02*
G01*
X355038031Y-168180481D01*
X353960354Y-170491566D01*
X351694585Y-169435021D01*
X352772262Y-167123936D01*
G37*
G36*
X355933426Y-154334645D02*
G01*
X358199195Y-155391190D01*
X357121518Y-157702275D01*
X354855749Y-156645730D01*
X355933426Y-154334645D01*
G37*
%TD*%
%TO.C,SW0:1*%
G36*
X370222336Y-176512938D02*
G01*
X371278881Y-174247169D01*
X373589966Y-175324846D01*
X372533421Y-177590615D01*
X370222336Y-176512938D01*
G37*
G36*
X357433045Y-173351774D02*
G01*
X358489590Y-171086005D01*
X360800675Y-172163682D01*
X359744130Y-174429451D01*
X357433045Y-173351774D01*
G37*
%TD*%
%TO.C,SW0:4*%
G36*
X378299536Y-159240938D02*
G01*
X379356081Y-156975169D01*
X381667166Y-158052846D01*
X380610621Y-160318615D01*
X378299536Y-159240938D01*
G37*
G36*
X365510245Y-156079774D02*
G01*
X366566790Y-153814005D01*
X368877875Y-154891682D01*
X367821330Y-157157451D01*
X365510245Y-156079774D01*
G37*
%TD*%
%TO.C,SW0:6*%
G36*
X386351336Y-141968938D02*
G01*
X387407881Y-139703169D01*
X389718966Y-140780846D01*
X388662421Y-143046615D01*
X386351336Y-141968938D01*
G37*
G36*
X373562045Y-138807774D02*
G01*
X374618590Y-136542005D01*
X376929675Y-137619682D01*
X375873130Y-139885451D01*
X373562045Y-138807774D01*
G37*
%TD*%
%TO.C,SW0:5*%
G36*
X369079336Y-133917138D02*
G01*
X370135881Y-131651369D01*
X372446966Y-132729046D01*
X371390421Y-134994815D01*
X369079336Y-133917138D01*
G37*
G36*
X356290045Y-130755974D02*
G01*
X357346590Y-128490205D01*
X359657675Y-129567882D01*
X358601130Y-131833651D01*
X356290045Y-130755974D01*
G37*
%TD*%
D10*
%TO.C,SW1:0*%
X234442000Y-138379200D03*
X221515000Y-140919200D03*
%TD*%
%TO.C,SW3:5*%
X329692000Y-98374200D03*
X316765000Y-100914200D03*
%TD*%
%TO.C,SW3:4*%
X310642000Y-97104200D03*
X297715000Y-99644200D03*
%TD*%
%TO.C,SW3:3*%
X291592000Y-95504000D03*
X278665000Y-98044000D03*
%TD*%
%TO.C,SW3:14*%
X222758000Y-110439200D03*
X235685000Y-107899200D03*
%TD*%
%TO.C,SW3:2*%
X272542000Y-97104200D03*
X259615000Y-99644200D03*
%TD*%
%TO.C,SW3:1*%
X253492000Y-100279200D03*
X240565000Y-102819200D03*
%TD*%
%TO.C,SW3:0*%
X229666800Y-100279200D03*
X216739800Y-102819200D03*
%TD*%
%TO.C,SW1:4*%
X310642000Y-135204200D03*
X297715000Y-137744200D03*
%TD*%
%TO.C,SW1:3*%
X291592000Y-133604000D03*
X278665000Y-136144000D03*
%TD*%
%TO.C,SW1:2*%
X272542000Y-135204200D03*
X259615000Y-137744200D03*
%TD*%
%TO.C,SW2:14*%
X222758000Y-129489200D03*
X235685000Y-126949200D03*
%TD*%
D12*
%TO.C,SW2:6*%
X347980000Y-123571000D03*
X345440000Y-110644000D03*
%TD*%
D10*
%TO.C,SW2:5*%
X329692000Y-117424200D03*
X316765000Y-119964200D03*
%TD*%
%TO.C,SW2:4*%
X310642000Y-116154200D03*
X297715000Y-118694200D03*
%TD*%
%TO.C,SW2:3*%
X291592000Y-114554000D03*
X278665000Y-117094000D03*
%TD*%
%TO.C,SW2:1*%
X253492000Y-119329200D03*
X240565000Y-121869200D03*
%TD*%
%TO.C,SW2:0*%
X229666800Y-119329200D03*
X216739800Y-121869200D03*
%TD*%
%TO.C,SW4:14*%
X222758000Y-91389200D03*
X235685000Y-88849200D03*
%TD*%
%TO.C,SW4:0*%
X229692200Y-81229200D03*
X216765200Y-83769200D03*
%TD*%
%TO.C,SW4:3*%
X291592000Y-76454000D03*
X278665000Y-78994000D03*
%TD*%
%TO.C,SW4:5*%
X329692000Y-79324200D03*
X316765000Y-81864200D03*
%TD*%
%TO.C,SW4:4*%
X310642000Y-78054200D03*
X297715000Y-80594200D03*
%TD*%
%TO.C,SW4:2*%
X272542000Y-78054200D03*
X259615000Y-80594200D03*
%TD*%
%TO.C,SW4:1*%
X253492000Y-81229200D03*
X240565000Y-83769200D03*
%TD*%
%TO.C,SW5:14*%
X222732600Y-72339200D03*
X235659600Y-69799200D03*
%TD*%
%TO.C,SW5:0*%
X229692200Y-62179200D03*
X216765200Y-64719200D03*
%TD*%
D13*
%TO.C,D5:0*%
X215103710Y-72839580D03*
X215106250Y-76390500D03*
%TD*%
D10*
%TO.C,SW5:6*%
X348742000Y-60274200D03*
X335815000Y-62814200D03*
%TD*%
%TO.C,SW5:5*%
X329692000Y-60274200D03*
X316765000Y-62814200D03*
%TD*%
%TO.C,SW5:3*%
X291592000Y-57404000D03*
X278665000Y-59944000D03*
%TD*%
%TO.C,SW5:1*%
X253492000Y-62179200D03*
X240565000Y-64719200D03*
%TD*%
D11*
%TO.C,SX0:10*%
G36*
X89875306Y-164473419D02*
G01*
X92141075Y-163416874D01*
X93218752Y-165727959D01*
X90952983Y-166784504D01*
X89875306Y-164473419D01*
G37*
G36*
X82110098Y-153831029D02*
G01*
X84375867Y-152774484D01*
X85453544Y-155085569D01*
X83187775Y-156142114D01*
X82110098Y-153831029D01*
G37*
%TD*%
%TO.C,SX1:8*%
G36*
X81823506Y-147206499D02*
G01*
X84089275Y-146149954D01*
X85166952Y-148461039D01*
X82901183Y-149517584D01*
X81823506Y-147206499D01*
G37*
G36*
X74058298Y-136564109D02*
G01*
X76324067Y-135507564D01*
X77401744Y-137818649D01*
X75135975Y-138875194D01*
X74058298Y-136564109D01*
G37*
%TD*%
%TO.C,SW0:10*%
G36*
X75044354Y-150799001D02*
G01*
X72778585Y-151855546D01*
X71700908Y-149544461D01*
X73966677Y-148487916D01*
X75044354Y-150799001D01*
G37*
G36*
X82809562Y-161441391D02*
G01*
X80543793Y-162497936D01*
X79466116Y-160186851D01*
X81731885Y-159130306D01*
X82809562Y-161441391D01*
G37*
%TD*%
%TO.C,SX0:11*%
G36*
X72608386Y-172522679D02*
G01*
X74874155Y-171466134D01*
X75951832Y-173777219D01*
X73686063Y-174833764D01*
X72608386Y-172522679D01*
G37*
G36*
X64843178Y-161880289D02*
G01*
X67108947Y-160823744D01*
X68186624Y-163134829D01*
X65920855Y-164191374D01*
X64843178Y-161880289D01*
G37*
%TD*%
%TO.C,SX1:7*%
G36*
X64559126Y-155258299D02*
G01*
X66824895Y-154201754D01*
X67902572Y-156512839D01*
X65636803Y-157569384D01*
X64559126Y-155258299D01*
G37*
G36*
X56793918Y-144615909D02*
G01*
X59059687Y-143559364D01*
X60137364Y-145870449D01*
X57871595Y-146926994D01*
X56793918Y-144615909D01*
G37*
%TD*%
%TO.C,SW0:11*%
G36*
X57779974Y-158850801D02*
G01*
X55514205Y-159907346D01*
X54436528Y-157596261D01*
X56702297Y-156539716D01*
X57779974Y-158850801D01*
G37*
G36*
X65545182Y-169493191D02*
G01*
X63279413Y-170549736D01*
X62201736Y-168238651D01*
X64467505Y-167182106D01*
X65545182Y-169493191D01*
G37*
%TD*%
%TO.C,SW0:12*%
G36*
X52463229Y-172652744D02*
G01*
X51406684Y-170386975D01*
X53717769Y-169309298D01*
X54774314Y-171575067D01*
X52463229Y-172652744D01*
G37*
G36*
X41820839Y-180417952D02*
G01*
X40764294Y-178152183D01*
X43075379Y-177074506D01*
X44131924Y-179340275D01*
X41820839Y-180417952D01*
G37*
%TD*%
%TO.C,SW0:9*%
G36*
X44411429Y-155385824D02*
G01*
X43354884Y-153120055D01*
X45665969Y-152042378D01*
X46722514Y-154308147D01*
X44411429Y-155385824D01*
G37*
G36*
X33769039Y-163151032D02*
G01*
X32712494Y-160885263D01*
X35023579Y-159807586D01*
X36080124Y-162073355D01*
X33769039Y-163151032D01*
G37*
%TD*%
%TO.C,SW0:7*%
G36*
X36362169Y-138121444D02*
G01*
X35305624Y-135855675D01*
X37616709Y-134777998D01*
X38673254Y-137043767D01*
X36362169Y-138121444D01*
G37*
G36*
X25719779Y-145886652D02*
G01*
X24663234Y-143620883D01*
X26974319Y-142543206D01*
X28030864Y-144808975D01*
X25719779Y-145886652D01*
G37*
%TD*%
%TO.C,SW0:8*%
G36*
X53626549Y-130072184D02*
G01*
X52570004Y-127806415D01*
X54881089Y-126728738D01*
X55937634Y-128994507D01*
X53626549Y-130072184D01*
G37*
G36*
X42984159Y-137837392D02*
G01*
X41927614Y-135571623D01*
X44238699Y-134493946D01*
X45295244Y-136759715D01*
X42984159Y-137837392D01*
G37*
%TD*%
D10*
%TO.C,SW1:12*%
X172624750Y-138376660D03*
X159697750Y-140916660D03*
%TD*%
%TO.C,SW1:11*%
X153574750Y-135201660D03*
X140647750Y-137741660D03*
%TD*%
%TO.C,SW1:10*%
X134524750Y-133604000D03*
X121597750Y-136144000D03*
%TD*%
%TO.C,SW1:9*%
X115474750Y-135201660D03*
X102547750Y-137741660D03*
%TD*%
D12*
%TO.C,SW2:132*%
X180746400Y-118567200D03*
X183286400Y-131494200D03*
%TD*%
D10*
%TO.C,SW2:13*%
X196437250Y-119326660D03*
X183510250Y-121866660D03*
%TD*%
%TO.C,SW2:9*%
X115474750Y-116151660D03*
X102547750Y-118691660D03*
%TD*%
%TO.C,SW2:12*%
X172624750Y-119326660D03*
X159697750Y-121866660D03*
%TD*%
%TO.C,SW2:10*%
X134524750Y-114554000D03*
X121597750Y-117094000D03*
%TD*%
%TO.C,SW2:8*%
X96424750Y-117421660D03*
X83497750Y-119961660D03*
%TD*%
D12*
%TO.C,SW2:7*%
X66452750Y-111897160D03*
X68992750Y-124824160D03*
%TD*%
D10*
%TO.C,SW3:13*%
X196437250Y-100276660D03*
X183510250Y-102816660D03*
%TD*%
%TO.C,SW3:12*%
X172624750Y-100276660D03*
X159697750Y-102816660D03*
%TD*%
%TO.C,SW3:11*%
X153574750Y-97101660D03*
X140647750Y-99641660D03*
%TD*%
%TO.C,SW3:9*%
X115474750Y-97101660D03*
X102547750Y-99641660D03*
%TD*%
%TO.C,SW4:11*%
X153574750Y-78051660D03*
X140647750Y-80591660D03*
%TD*%
D12*
%TO.C,SW4:132*%
X180746400Y-80464660D03*
X183286400Y-93391660D03*
%TD*%
D10*
%TO.C,SW4:13*%
X196437250Y-81226660D03*
X183510250Y-83766660D03*
%TD*%
%TO.C,SW4:10*%
X134524750Y-76454000D03*
X121597750Y-78994000D03*
%TD*%
%TO.C,SW4:9*%
X115474750Y-78051660D03*
X102547750Y-80591660D03*
%TD*%
%TO.C,SW4:8*%
X96424750Y-79321660D03*
X83497750Y-81861660D03*
%TD*%
D12*
%TO.C,SW4:7*%
X66452750Y-83322160D03*
X68992750Y-96249160D03*
%TD*%
D10*
%TO.C,SW5:13*%
X196437250Y-62179200D03*
X183510250Y-64719200D03*
%TD*%
D12*
%TO.C,SW5:132*%
X180746400Y-61417200D03*
X183286400Y-74344200D03*
%TD*%
D13*
%TO.C,D5:13*%
X193672460Y-69664580D03*
X193675000Y-73215500D03*
%TD*%
D10*
%TO.C,SW5:12*%
X172624750Y-62179200D03*
X159697750Y-64719200D03*
%TD*%
%TO.C,SW5:11*%
X153574750Y-59001660D03*
X140647750Y-61541660D03*
%TD*%
%TO.C,SW5:10*%
X134524750Y-57404000D03*
X121597750Y-59944000D03*
%TD*%
D13*
%TO.C,D5:12*%
X169859960Y-69664580D03*
X169862500Y-73215500D03*
%TD*%
%TO.C,D5:11*%
X150809960Y-66489580D03*
X150812500Y-70040500D03*
%TD*%
%TO.C,D5:10*%
X131759960Y-64902080D03*
X131762500Y-68453000D03*
%TD*%
%TO.C,D5:9*%
X112709960Y-66489580D03*
X112712500Y-70040500D03*
%TD*%
%TO.C,D5:8*%
X93659960Y-68077080D03*
X93662500Y-71628000D03*
%TD*%
%TO.C,D5:7*%
X75740260Y-68483480D03*
X75742800Y-72034400D03*
%TD*%
%TO.C,D5:1*%
X250822460Y-69664580D03*
X250825000Y-73215500D03*
%TD*%
%TO.C,D5:2*%
X269872460Y-66489580D03*
X269875000Y-70040500D03*
%TD*%
%TO.C,D5:3*%
X288922460Y-65695830D03*
X288925000Y-69246750D03*
%TD*%
%TO.C,D5:4*%
X307972460Y-66489580D03*
X307975000Y-70040500D03*
%TD*%
%TO.C,D5:5*%
X327022460Y-68077080D03*
X327025000Y-71628000D03*
%TD*%
%TO.C,D5:6*%
X346866210Y-68077080D03*
X346868750Y-71628000D03*
%TD*%
%TO.C,D4:0*%
X215103710Y-91095830D03*
X215106250Y-94646750D03*
%TD*%
%TO.C,D4:13*%
X193672460Y-88714580D03*
X193675000Y-92265500D03*
%TD*%
%TO.C,D4:12*%
X169859960Y-88714580D03*
X169862500Y-92265500D03*
%TD*%
%TO.C,D4:11*%
X150809960Y-85539580D03*
X150812500Y-89090500D03*
%TD*%
%TO.C,D4:10*%
X131759960Y-83952080D03*
X131762500Y-87503000D03*
%TD*%
%TO.C,D4:9*%
X112709960Y-85539580D03*
X112712500Y-89090500D03*
%TD*%
%TO.C,D4:8*%
X93659960Y-87127080D03*
X93662500Y-90678000D03*
%TD*%
D14*
%TO.C,D4:7*%
X74427080Y-84933790D03*
X77978000Y-84931250D03*
%TD*%
D13*
%TO.C,D4:1*%
X250822460Y-88714580D03*
X250825000Y-92265500D03*
%TD*%
%TO.C,D4:2*%
X269872460Y-85539580D03*
X269875000Y-89090500D03*
%TD*%
%TO.C,D4:3*%
X288922460Y-83952080D03*
X288925000Y-87503000D03*
%TD*%
%TO.C,D4:4*%
X307972460Y-85539580D03*
X307975000Y-89090500D03*
%TD*%
%TO.C,D4:5*%
X327022460Y-86936580D03*
X327025000Y-90487500D03*
%TD*%
D14*
%TO.C,D4:6*%
X339440520Y-93418660D03*
X335889600Y-93421200D03*
%TD*%
D13*
%TO.C,D3:13*%
X193672460Y-107764580D03*
X193675000Y-111315500D03*
%TD*%
%TO.C,D3:12*%
X169859960Y-107764580D03*
X169862500Y-111315500D03*
%TD*%
%TO.C,D3:11*%
X150809960Y-104589580D03*
X150812500Y-108140500D03*
%TD*%
%TO.C,D3:10*%
X131759960Y-102925880D03*
X131762500Y-106476800D03*
%TD*%
%TO.C,D3:9*%
X112709960Y-104589580D03*
X112712500Y-108140500D03*
%TD*%
%TO.C,D3:8*%
X93659960Y-106177080D03*
X93662500Y-109728000D03*
%TD*%
%TO.C,D3:0*%
X215103710Y-110939580D03*
X215106250Y-114490500D03*
%TD*%
%TO.C,D3:1*%
X250822460Y-107764580D03*
X250825000Y-111315500D03*
%TD*%
%TO.C,D3:2*%
X269872460Y-104589580D03*
X269875000Y-108140500D03*
%TD*%
%TO.C,D3:3*%
X288922460Y-103002080D03*
X288925000Y-106553000D03*
%TD*%
%TO.C,D3:4*%
X307972460Y-104589580D03*
X307975000Y-108140500D03*
%TD*%
%TO.C,D3:5*%
X327022460Y-106177080D03*
X327025000Y-109728000D03*
%TD*%
%TO.C,D2:0*%
X215103710Y-129989580D03*
X215106250Y-133540500D03*
%TD*%
%TO.C,D2:13*%
X193672460Y-126814580D03*
X193675000Y-130365500D03*
%TD*%
%TO.C,D2:12*%
X169859960Y-126814580D03*
X169862500Y-130365500D03*
%TD*%
%TO.C,D2:11*%
X150812500Y-123825000D03*
X150815040Y-127375920D03*
%TD*%
%TO.C,D2:10*%
X131759960Y-122052080D03*
X131762500Y-125603000D03*
%TD*%
%TO.C,D2:9*%
X112709960Y-123639580D03*
X112712500Y-127190500D03*
%TD*%
%TO.C,D2:8*%
X93571060Y-125227080D03*
X93573600Y-128778000D03*
%TD*%
D14*
%TO.C,D2:7*%
X74427080Y-113508790D03*
X77978000Y-113506250D03*
%TD*%
D13*
%TO.C,D2:1*%
X250822460Y-126814580D03*
X250825000Y-130365500D03*
%TD*%
%TO.C,D2:2*%
X269872460Y-123639580D03*
X269875000Y-127190500D03*
%TD*%
%TO.C,D2:3*%
X288922460Y-122052080D03*
X288925000Y-125603000D03*
%TD*%
%TO.C,D2:4*%
X307972460Y-123639580D03*
X307975000Y-127190500D03*
%TD*%
%TO.C,D2:5*%
X327022460Y-125227080D03*
X327025000Y-128778000D03*
%TD*%
D14*
%TO.C,D2:6*%
X339910420Y-121441210D03*
X336359500Y-121443750D03*
%TD*%
D13*
%TO.C,D1:0*%
X231772460Y-145864580D03*
X231775000Y-149415500D03*
%TD*%
%TO.C,D1:13*%
X188909960Y-145864580D03*
X188912500Y-149415500D03*
%TD*%
%TO.C,D1:12*%
X169859960Y-145864580D03*
X169862500Y-149415500D03*
%TD*%
%TO.C,D1:11*%
X150809960Y-142689580D03*
X150812500Y-146240500D03*
%TD*%
%TO.C,D1:10*%
X131759960Y-141102080D03*
X131762500Y-144653000D03*
%TD*%
%TO.C,D1:9*%
X112709960Y-142689580D03*
X112712500Y-146240500D03*
%TD*%
D11*
%TO.C,D1:8*%
G36*
X81485783Y-133364232D02*
G01*
X82392091Y-132941613D01*
X82983757Y-134210444D01*
X82077449Y-134633063D01*
X81485783Y-133364232D01*
G37*
G36*
X79982798Y-130147079D02*
G01*
X80889106Y-129724460D01*
X81480772Y-130993291D01*
X80574464Y-131415910D01*
X79982798Y-130147079D01*
G37*
%TD*%
%TO.C,D1:7*%
G36*
X64823383Y-140527032D02*
G01*
X65729691Y-140104413D01*
X66321357Y-141373244D01*
X65415049Y-141795863D01*
X64823383Y-140527032D01*
G37*
G36*
X63320398Y-137309879D02*
G01*
X64226706Y-136887260D01*
X64818372Y-138156091D01*
X63912064Y-138578710D01*
X63320398Y-137309879D01*
G37*
%TD*%
D13*
%TO.C,D1:1*%
X250822460Y-145864580D03*
X250825000Y-149415500D03*
%TD*%
%TO.C,D1:2*%
X269872460Y-142689580D03*
X269875000Y-146240500D03*
%TD*%
%TO.C,D1:3*%
X288922460Y-141102080D03*
X288925000Y-144653000D03*
%TD*%
%TO.C,D1:4*%
X307975000Y-142875000D03*
X307977540Y-146425920D03*
%TD*%
D11*
%TO.C,D1:5*%
G36*
X339614463Y-135699660D02*
G01*
X340520771Y-136122279D01*
X339929105Y-137391110D01*
X339022797Y-136968491D01*
X339614463Y-135699660D01*
G37*
G36*
X341112844Y-132480360D02*
G01*
X342019152Y-132902979D01*
X341427486Y-134171810D01*
X340521178Y-133749191D01*
X341112844Y-132480360D01*
G37*
%TD*%
%TO.C,D1:6*%
G36*
X349139463Y-140462160D02*
G01*
X350045771Y-140884779D01*
X349454105Y-142153610D01*
X348547797Y-141730991D01*
X349139463Y-140462160D01*
G37*
G36*
X350637844Y-137242860D02*
G01*
X351544152Y-137665479D01*
X350952486Y-138934310D01*
X350046178Y-138511691D01*
X350637844Y-137242860D01*
G37*
%TD*%
%TO.C,D0:12*%
G36*
X54607417Y-179411368D02*
G01*
X53701109Y-179833987D01*
X53109443Y-178565156D01*
X54015751Y-178142537D01*
X54607417Y-179411368D01*
G37*
G36*
X56110402Y-182628521D02*
G01*
X55204094Y-183051140D01*
X54612428Y-181782309D01*
X55518736Y-181359690D01*
X56110402Y-182628521D01*
G37*
%TD*%
%TO.C,D0:11*%
G36*
X77862168Y-171096983D02*
G01*
X78284787Y-172003291D01*
X77015956Y-172594957D01*
X76593337Y-171688649D01*
X77862168Y-171096983D01*
G37*
G36*
X81079321Y-169593998D02*
G01*
X81501940Y-170500306D01*
X80233109Y-171091972D01*
X79810490Y-170185664D01*
X81079321Y-169593998D01*
G37*
%TD*%
%TO.C,D0:10*%
G36*
X94033383Y-155259032D02*
G01*
X94939691Y-154836413D01*
X95531357Y-156105244D01*
X94625049Y-156527863D01*
X94033383Y-155259032D01*
G37*
G36*
X92530398Y-152041879D02*
G01*
X93436706Y-151619260D01*
X94028372Y-152888091D01*
X93122064Y-153310710D01*
X92530398Y-152041879D01*
G37*
%TD*%
%TO.C,D0:8*%
G36*
X56353667Y-136929868D02*
G01*
X55447359Y-137352487D01*
X54855693Y-136083656D01*
X55762001Y-135661037D01*
X56353667Y-136929868D01*
G37*
G36*
X57856652Y-140147021D02*
G01*
X56950344Y-140569640D01*
X56358678Y-139300809D01*
X57264986Y-138878190D01*
X57856652Y-140147021D01*
G37*
%TD*%
%TO.C,D0:7*%
G36*
X38891167Y-144867368D02*
G01*
X37984859Y-145289987D01*
X37393193Y-144021156D01*
X38299501Y-143598537D01*
X38891167Y-144867368D01*
G37*
G36*
X40394152Y-148084521D02*
G01*
X39487844Y-148507140D01*
X38896178Y-147238309D01*
X39802486Y-146815690D01*
X40394152Y-148084521D01*
G37*
%TD*%
%TO.C,D0:1*%
G36*
X366029287Y-182594090D02*
G01*
X365122979Y-182171471D01*
X365714645Y-180902640D01*
X366620953Y-181325259D01*
X366029287Y-182594090D01*
G37*
G36*
X364530906Y-185813390D02*
G01*
X363624598Y-185390771D01*
X364216264Y-184121940D01*
X365122572Y-184544559D01*
X364530906Y-185813390D01*
G37*
%TD*%
%TO.C,D0:2*%
G36*
X336518410Y-172354287D02*
G01*
X336941029Y-171447979D01*
X338209860Y-172039645D01*
X337787241Y-172945953D01*
X336518410Y-172354287D01*
G37*
G36*
X333299110Y-170855906D02*
G01*
X333721729Y-169949598D01*
X334990560Y-170541264D01*
X334567941Y-171447572D01*
X333299110Y-170855906D01*
G37*
%TD*%
%TO.C,D0:3*%
G36*
X322373037Y-154019090D02*
G01*
X321466729Y-153596471D01*
X322058395Y-152327640D01*
X322964703Y-152750259D01*
X322373037Y-154019090D01*
G37*
G36*
X320874656Y-157238390D02*
G01*
X319968348Y-156815771D01*
X320560014Y-155546940D01*
X321466322Y-155969559D01*
X320874656Y-157238390D01*
G37*
%TD*%
%TO.C,D0:4*%
G36*
X380542960Y-155793487D02*
G01*
X380965579Y-154887179D01*
X382234410Y-155478845D01*
X381811791Y-156385153D01*
X380542960Y-155793487D01*
G37*
G36*
X377323660Y-154295106D02*
G01*
X377746279Y-153388798D01*
X379015110Y-153980464D01*
X378592491Y-154886772D01*
X377323660Y-154295106D01*
G37*
%TD*%
%TO.C,D0:5*%
G36*
X365235537Y-139731590D02*
G01*
X364329229Y-139308971D01*
X364920895Y-138040140D01*
X365827203Y-138462759D01*
X365235537Y-139731590D01*
G37*
G36*
X363737156Y-142950890D02*
G01*
X362830848Y-142528271D01*
X363422514Y-141259440D01*
X364328822Y-141682059D01*
X363737156Y-142950890D01*
G37*
%TD*%
%TO.C,D0:6*%
G36*
X382698037Y-147669090D02*
G01*
X381791729Y-147246471D01*
X382383395Y-145977640D01*
X383289703Y-146400259D01*
X382698037Y-147669090D01*
G37*
G36*
X381199656Y-150888390D02*
G01*
X380293348Y-150465771D01*
X380885014Y-149196940D01*
X381791322Y-149619559D01*
X381199656Y-150888390D01*
G37*
%TD*%
D10*
%TO.C,SW5:9*%
X115474750Y-59001660D03*
X102547750Y-61541660D03*
%TD*%
%TO.C,SW5:8*%
X96424750Y-60274200D03*
X83497750Y-62814200D03*
%TD*%
M02*
