%TF.GenerationSoftware,KiCad,Pcbnew,(5.1.9)-1*%
%TF.CreationDate,2021-02-19T15:09:25+09:00*%
%TF.ProjectId,ErgoDOX,4572676f-444f-4582-9e6b-696361645f70,rev?*%
%TF.SameCoordinates,Original*%
%TF.FileFunction,Other,Comment*%
%FSLAX46Y46*%
G04 Gerber Fmt 4.6, Leading zero omitted, Abs format (unit mm)*
G04 Created by KiCad (PCBNEW (5.1.9)-1) date 2021-02-19 15:09:25*
%MOMM*%
%LPD*%
G01*
G04 APERTURE LIST*
%ADD10C,0.381000*%
G04 APERTURE END LIST*
D10*
%TO.C,J1*%
X132930900Y-28735020D02*
X140632180Y-28735020D01*
X132930900Y-37734240D02*
X132930900Y-28735020D01*
X140632180Y-37734240D02*
X132930900Y-37734240D01*
X140632180Y-28735020D02*
X140632180Y-37734240D01*
%TO.C,RC1*%
X127730250Y-45974000D02*
X127730250Y-48514000D01*
X121380250Y-45974000D02*
X127730250Y-45974000D01*
X121380250Y-48514000D02*
X121380250Y-45974000D01*
X127730250Y-48514000D02*
X121380250Y-48514000D01*
%TO.C,RB1*%
X147488478Y-40608410D02*
X149284530Y-42404462D01*
X142998350Y-45098538D02*
X147488478Y-40608410D01*
X144794402Y-46894590D02*
X142998350Y-45098538D01*
X149284530Y-42404462D02*
X144794402Y-46894590D01*
%TO.C,RA1*%
X149393478Y-42513410D02*
X151189530Y-44309462D01*
X144903350Y-47003538D02*
X149393478Y-42513410D01*
X146699402Y-48799590D02*
X144903350Y-47003538D01*
X151189530Y-44309462D02*
X146699402Y-48799590D01*
%TO.C,J2*%
X87696040Y-30734000D02*
X90248740Y-30734000D01*
X80647540Y-30734000D02*
X83200240Y-30734000D01*
X83200240Y-32029400D02*
X83200240Y-30734000D01*
X87696040Y-32029400D02*
X83200240Y-32029400D01*
X87696040Y-30734000D02*
X87696040Y-32029400D01*
%TO.C,J1*%
X281491690Y-28735020D02*
X273790410Y-28735020D01*
X281491690Y-37734240D02*
X281491690Y-28735020D01*
X273790410Y-37734240D02*
X281491690Y-37734240D01*
X273790410Y-28735020D02*
X273790410Y-37734240D01*
%TO.C,RB2*%
X265146408Y-42406460D02*
X266942460Y-40610408D01*
X269636536Y-46896588D02*
X265146408Y-42406460D01*
X271432588Y-45100536D02*
X269636536Y-46896588D01*
X266942460Y-40610408D02*
X271432588Y-45100536D01*
%TO.C,RA2*%
X261372510Y-43102962D02*
X263168562Y-41306910D01*
X265862638Y-47593090D02*
X261372510Y-43102962D01*
X267658690Y-45797038D02*
X265862638Y-47593090D01*
X263168562Y-41306910D02*
X267658690Y-45797038D01*
%TO.C,J3*%
X331228700Y-30734000D02*
X333781400Y-30734000D01*
X324180200Y-30734000D02*
X326732900Y-30734000D01*
X326732900Y-32029400D02*
X326732900Y-30734000D01*
X331228700Y-32029400D02*
X326732900Y-32029400D01*
X331228700Y-30734000D02*
X331228700Y-32029400D01*
%TD*%
M02*
