%TF.GenerationSoftware,KiCad,Pcbnew,(5.1.9)-1*%
%TF.CreationDate,2021-02-19T15:09:25+09:00*%
%TF.ProjectId,ErgoDOX,4572676f-444f-4582-9e6b-696361645f70,rev?*%
%TF.SameCoordinates,Original*%
%TF.FileFunction,Profile,NP*%
%FSLAX46Y46*%
G04 Gerber Fmt 4.6, Leading zero omitted, Abs format (unit mm)*
G04 Created by KiCad (PCBNEW (5.1.9)-1) date 2021-02-19 15:09:25*
%MOMM*%
%LPD*%
G01*
G04 APERTURE LIST*
%TA.AperFunction,Profile*%
%ADD10C,0.381000*%
%TD*%
G04 APERTURE END LIST*
D10*
X142551150Y-30734000D02*
X131044950Y-30734000D01*
X61753750Y-35687000D02*
X61753750Y-121920000D01*
X48122840Y-189605920D02*
X126291340Y-153162000D01*
X22223730Y-141569440D02*
X43907710Y-188071760D01*
X23760430Y-137350500D02*
X22223730Y-141569440D01*
X209365850Y-143637000D02*
X209365850Y-35687000D01*
X390665970Y-137350500D02*
X392202670Y-141569440D01*
X352672650Y-121920000D02*
X357574850Y-121920000D01*
X326574150Y-30734000D02*
X326574150Y-32004000D01*
X337407250Y-30734000D02*
X337407250Y-32512000D01*
X212540850Y-32512000D02*
X271875250Y-32512000D01*
X331069950Y-30734000D02*
X337407250Y-30734000D01*
X283381450Y-30734000D02*
X283381450Y-32512000D01*
X349472250Y-32512000D02*
X352672650Y-35687000D01*
X320236850Y-32512000D02*
X320236850Y-30734000D01*
X271875250Y-32512000D02*
X271875250Y-30734000D01*
X352672650Y-35687000D02*
X352672650Y-121920000D01*
X271875250Y-30734000D02*
X283381450Y-30734000D01*
X366299750Y-189605920D02*
X288131250Y-153162000D01*
X288131250Y-153162000D02*
X218890850Y-153162000D01*
X357574850Y-121920000D02*
X390665970Y-137350500D01*
X370518690Y-188071760D02*
X366299750Y-189605920D01*
X337407250Y-32512000D02*
X349472250Y-32512000D01*
X209365850Y-35687000D02*
X212540850Y-32512000D01*
X326574150Y-32004000D02*
X331069950Y-32004000D01*
X320236850Y-30734000D02*
X326574150Y-30734000D01*
X283381450Y-32512000D02*
X320236850Y-32512000D01*
X218890850Y-153162000D02*
X209365850Y-143637000D01*
X331069950Y-32004000D02*
X331069950Y-30734000D01*
X392202670Y-141569440D02*
X370518690Y-188071760D01*
X126295150Y-153162000D02*
X195535550Y-153162000D01*
X195535550Y-153162000D02*
X205060550Y-143637000D01*
X205060550Y-143637000D02*
X205060550Y-35687000D01*
X205060550Y-35687000D02*
X201885550Y-32512000D01*
X201885550Y-32512000D02*
X142551150Y-32512000D01*
X142551150Y-32512000D02*
X142551150Y-30734000D01*
X131044950Y-30734000D02*
X131044950Y-32512000D01*
X131044950Y-32512000D02*
X94189550Y-32512000D01*
X94189550Y-32512000D02*
X94189550Y-30734000D01*
X94189550Y-30734000D02*
X87852250Y-30734000D01*
X87852250Y-30734000D02*
X87852250Y-32004000D01*
X87852250Y-32004000D02*
X83356450Y-32004000D01*
X83356450Y-32004000D02*
X83356450Y-30734000D01*
X83356450Y-30734000D02*
X77019150Y-30734000D01*
X77019150Y-30734000D02*
X77019150Y-32512000D01*
X77019150Y-32512000D02*
X64954150Y-32512000D01*
X64954150Y-32512000D02*
X61753750Y-35687000D01*
X61753750Y-121920000D02*
X56851550Y-121920000D01*
X56851550Y-121920000D02*
X23760430Y-137350500D01*
X43907710Y-188071760D02*
X48126650Y-189605920D01*
M02*
