M48
; DRILL file {KiCad (5.1.9)-1} date 02/19/21 15:09:28
; FORMAT={-:-/ absolute / inch / decimal}
; #@! TF.CreationDate,2021-02-19T15:09:28+09:00
; #@! TF.GenerationSoftware,Kicad,Pcbnew,(5.1.9)-1
; #@! TF.FileFunction,NonPlated,1,2,NPTH
FMAT,2
INCH
T1C0.0390
T2C0.0689
T3C0.1181
T4C0.1200
T5C0.1570
T6C0.2510
%
G90
G05
T1
X3.3641Y-1.324
X3.3641Y-1.521
X12.952Y-1.324
X12.952Y-1.521
T2
X1.1511Y-5.735
X1.468Y-6.4147
X1.5136Y-5.566
X1.785Y-7.0945
X1.8305Y-6.2457
X1.8308Y-5.4181
X2.1475Y-6.9255
X2.1933Y-5.2491
X2.2445Y-5.832
X2.4029Y-6.1719
X2.4136Y-6.1946
X2.5614Y-6.5117
X2.572Y-6.5345
X2.6162Y-2.573
X2.7305Y-6.8743
X2.8163Y-3.3104
X2.8163Y-3.7104
X2.8163Y-4.4354
X2.8163Y-4.8354
X2.9242Y-5.515
X3.0162Y-2.573
X3.0826Y-5.8549
X3.0933Y-5.8776
X3.2412Y-6.1948
X3.2517Y-6.2175
X3.3662Y-2.573
X3.3662Y-3.3229
X3.3662Y-4.0729
X3.3662Y-4.8229
X3.4103Y-6.5574
X3.7662Y-2.573
X3.7662Y-3.3229
X3.7662Y-4.0729
X3.7662Y-4.8229
X4.1162Y-2.5229
X4.1162Y-3.2729
X4.1162Y-4.0229
X4.1162Y-4.7729
X4.1162Y-5.5229
X4.5163Y-2.5229
X4.5163Y-3.2729
X4.5163Y-4.0229
X4.5163Y-4.7729
X4.5163Y-5.5229
X4.8662Y-2.46
X4.8662Y-3.21
X4.8662Y-3.96
X4.8662Y-4.71
X4.8662Y-5.46
X5.2663Y-2.46
X5.2663Y-3.21
X5.2663Y-3.96
X5.2663Y-4.71
X5.2663Y-5.46
X5.6162Y-2.5229
X5.6162Y-3.2729
X5.6162Y-4.0229
X5.6162Y-4.7729
X5.6162Y-5.5229
X6.0162Y-2.5229
X6.0162Y-3.2729
X6.0162Y-4.0229
X6.0162Y-4.7729
X6.0162Y-5.5229
X6.3662Y-2.648
X6.3662Y-3.3979
X6.3662Y-4.1479
X6.3662Y-4.8979
X6.3662Y-5.6479
X6.7662Y-2.648
X6.7662Y-3.3979
X6.7662Y-4.1479
X6.7662Y-4.8979
X6.7662Y-5.6479
X7.1162Y-5.6479
X7.3037Y-2.648
X7.3037Y-3.3979
X7.3037Y-4.1479
X7.3037Y-4.8979
X7.316Y-2.448
X7.316Y-2.848
X7.316Y-3.1979
X7.316Y-3.5979
X7.316Y-3.948
X7.316Y-4.348
X7.316Y-4.698
X7.316Y-5.098
X7.5162Y-5.6479
X7.7037Y-2.648
X7.7037Y-3.3979
X7.7037Y-4.1479
X7.7037Y-4.8979
X8.612Y-4.148
X8.612Y-4.898
X8.613Y-2.648
X8.613Y-3.398
X8.799Y-2.648
X8.8Y-3.398
X8.8Y-4.148
X8.8Y-4.898
X8.8Y-5.648
X9.012Y-4.148
X9.012Y-4.898
X9.013Y-2.648
X9.013Y-3.398
X9.199Y-2.648
X9.2Y-3.398
X9.2Y-4.148
X9.2Y-4.898
X9.2Y-5.648
X9.55Y-2.648
X9.55Y-3.398
X9.55Y-4.148
X9.55Y-4.898
X9.55Y-5.648
X9.95Y-2.648
X9.95Y-3.398
X9.95Y-4.148
X9.95Y-4.898
X9.95Y-5.648
X10.3Y-2.523
X10.3Y-3.273
X10.3Y-4.023
X10.3Y-4.773
X10.3Y-5.523
X10.7Y-2.523
X10.7Y-3.273
X10.7Y-4.023
X10.7Y-4.773
X10.7Y-5.523
X11.05Y-2.46
X11.05Y-3.21
X11.05Y-3.96
X11.05Y-4.71
X11.05Y-5.46
X11.45Y-2.46
X11.45Y-3.21
X11.45Y-3.96
X11.45Y-4.71
X11.45Y-5.46
X11.8Y-2.523
X11.8Y-3.273
X11.8Y-4.023
X11.8Y-4.773
X11.8Y-5.523
X12.2Y-2.523
X12.2Y-3.273
X12.2Y-4.023
X12.2Y-4.773
X12.2Y-5.523
X12.55Y-2.573
X12.55Y-3.323
X12.55Y-4.073
X12.55Y-4.823
X12.9055Y-6.5573
X12.95Y-2.573
X12.95Y-3.323
X12.95Y-4.073
X12.95Y-4.823
X13.0645Y-6.2173
X13.0745Y-6.1947
X13.2225Y-5.8773
X13.2335Y-5.8547
X13.3Y-2.573
X13.3915Y-5.5147
X13.5Y-3.311
X13.5Y-3.711
X13.5Y-4.435
X13.5Y-4.835
X13.5855Y-6.8743
X13.7Y-2.573
X13.7435Y-6.5343
X13.7545Y-6.5117
X13.9025Y-6.1943
X13.9125Y-6.1717
X14.0715Y-5.8317
X14.1227Y-5.2485
X14.1677Y-6.9255
X14.4853Y-5.4175
X14.4857Y-6.2455
X14.5303Y-7.0945
X14.8027Y-5.5655
X14.8483Y-6.4145
X15.1653Y-5.7345
T3
X1.1541Y-5.6233
X1.3385Y-5.427
X1.471Y-6.303
X1.6554Y-6.1067
X1.788Y-6.9828
X1.8338Y-5.3064
X1.9724Y-6.7865
X2.0182Y-5.1101
X2.2639Y-6.3471
X2.3563Y-5.8351
X2.4602Y-6.5314
X2.5526Y-6.0194
X2.6162Y-3.4104
X2.6162Y-4.5354
X2.6662Y-2.473
X2.6732Y-6.5148
X2.7163Y-3.6604
X2.7163Y-4.7854
X2.8695Y-6.6991
X2.9162Y-2.373
X2.9436Y-6.0301
X3.036Y-5.5181
X3.1399Y-6.2144
X3.2323Y-5.7024
X3.353Y-6.1979
X3.4162Y-2.473
X3.4162Y-3.2229
X3.4162Y-3.9729
X3.4162Y-4.7229
X3.5493Y-6.3822
X3.6662Y-2.373
X3.6662Y-3.1229
X3.6662Y-3.8729
X3.6662Y-4.6229
X4.1662Y-2.4229
X4.1662Y-3.1729
X4.1662Y-3.9229
X4.1662Y-4.6729
X4.1662Y-5.4229
X4.4162Y-2.3229
X4.4162Y-3.0729
X4.4162Y-3.8229
X4.4162Y-4.5729
X4.4162Y-5.3229
X4.9162Y-2.36
X4.9162Y-3.11
X4.9162Y-3.86
X4.9162Y-4.61
X4.9162Y-5.36
X5.1662Y-2.26
X5.1662Y-3.01
X5.1662Y-3.76
X5.1662Y-4.51
X5.1662Y-5.26
X5.6662Y-2.4229
X5.6662Y-3.1729
X5.6662Y-3.9229
X5.6662Y-4.6729
X5.6662Y-5.4229
X5.9162Y-2.3229
X5.9162Y-3.0729
X5.9162Y-3.8229
X5.9162Y-4.5729
X5.9162Y-5.3229
X6.4162Y-2.548
X6.4162Y-3.2979
X6.4162Y-4.0479
X6.4162Y-4.7979
X6.4162Y-5.5479
X6.6662Y-2.448
X6.6662Y-3.1979
X6.6662Y-3.9479
X6.6662Y-4.6979
X6.6662Y-5.4479
X7.116Y-2.548
X7.116Y-3.2979
X7.116Y-4.048
X7.116Y-4.798
X7.1662Y-5.5479
X7.216Y-2.798
X7.216Y-3.5479
X7.216Y-4.298
X7.216Y-5.048
X7.3537Y-2.548
X7.3537Y-3.2979
X7.3537Y-4.0479
X7.3537Y-4.7979
X7.4162Y-5.4479
X7.6037Y-2.448
X7.6037Y-3.1979
X7.6037Y-3.9479
X7.6037Y-4.6979
X8.662Y-4.048
X8.662Y-4.798
X8.663Y-2.548
X8.663Y-3.298
X8.85Y-5.548
X8.899Y-2.848
X8.9Y-3.598
X8.9Y-4.348
X8.9Y-5.098
X8.912Y-3.948
X8.912Y-4.698
X8.913Y-2.448
X8.913Y-3.198
X9.1Y-5.448
X9.149Y-2.748
X9.15Y-3.498
X9.15Y-4.248
X9.15Y-4.998
X9.6Y-2.548
X9.6Y-3.298
X9.6Y-4.048
X9.6Y-4.798
X9.6Y-5.548
X9.85Y-2.448
X9.85Y-3.198
X9.85Y-3.948
X9.85Y-4.698
X9.85Y-5.448
X10.35Y-2.423
X10.35Y-3.173
X10.35Y-3.923
X10.35Y-4.673
X10.35Y-5.423
X10.6Y-2.323
X10.6Y-3.073
X10.6Y-3.823
X10.6Y-4.573
X10.6Y-5.323
X11.1Y-2.36
X11.1Y-3.11
X11.1Y-3.86
X11.1Y-4.61
X11.1Y-5.36
X11.35Y-2.26
X11.35Y-3.01
X11.35Y-3.76
X11.35Y-4.51
X11.35Y-5.26
X11.85Y-2.423
X11.85Y-3.173
X11.85Y-3.923
X11.85Y-4.673
X11.85Y-5.423
X12.1Y-2.323
X12.1Y-3.073
X12.1Y-3.823
X12.1Y-4.573
X12.1Y-5.323
X12.6Y-2.473
X12.6Y-3.223
X12.6Y-3.973
X12.6Y-4.723
X12.836Y-6.4697
X12.85Y-2.373
X12.85Y-3.123
X12.85Y-3.873
X12.85Y-4.623
X12.851Y-6.2008
X13.153Y-5.7897
X13.168Y-5.5208
X13.288Y-6.2112
X13.303Y-5.9423
X13.35Y-2.473
X13.516Y-6.7867
X13.531Y-6.5178
X13.6Y-2.373
X13.6Y-3.361
X13.6Y-4.485
X13.7Y-3.611
X13.7Y-4.735
X13.833Y-6.1067
X13.848Y-5.8378
X13.967Y-6.5282
X13.982Y-6.2593
X14.2103Y-5.179
X14.2553Y-6.856
X14.4792Y-5.194
X14.5242Y-6.871
X14.5733Y-6.176
X14.8422Y-6.191
X14.8903Y-5.496
X15.1592Y-5.511
T4
X2.5381Y-5.811
X2.7193Y-5.7265
X2.9353Y-6.6629
X3.1165Y-6.5784
X13.1996Y-6.5782
X13.3801Y-6.6627
X13.5969Y-5.7263
X13.7774Y-5.8108
T5
X1.3323Y-5.6505
X1.6492Y-6.3302
X1.9663Y-7.01
X1.9943Y-6.0646
X2.012Y-5.3336
X2.3291Y-6.0133
X2.3915Y-6.9165
X2.4874Y-6.3532
X2.646Y-6.693
X2.8163Y-2.573
X2.8163Y-3.5104
X2.8163Y-4.6354
X3.0088Y-5.6963
X3.1671Y-6.0362
X3.2631Y-5.4729
X3.3257Y-6.3761
X3.5662Y-2.573
X3.5662Y-3.3229
X3.5662Y-4.0729
X3.5662Y-4.8229
X3.6603Y-6.3248
X4.3163Y-2.5229
X4.3163Y-3.2729
X4.3163Y-4.0229
X4.3163Y-4.7729
X4.3163Y-5.5229
X5.0663Y-2.46
X5.0663Y-3.21
X5.0663Y-3.96
X5.0663Y-4.71
X5.0663Y-5.46
X5.8163Y-2.5229
X5.8163Y-3.2729
X5.8163Y-4.0229
X5.8163Y-4.7729
X5.8163Y-5.5229
X6.5663Y-2.648
X6.5663Y-3.3979
X6.5663Y-4.1479
X6.5663Y-4.8979
X6.5663Y-5.6479
X7.316Y-2.648
X7.316Y-3.3979
X7.316Y-4.148
X7.316Y-4.898
X7.3163Y-5.6479
X7.5038Y-2.648
X7.5038Y-3.3979
X7.5038Y-4.1479
X7.5038Y-4.8979
X8.812Y-4.148
X8.812Y-4.898
X8.813Y-2.648
X8.813Y-3.398
X8.999Y-2.648
X9.0Y-3.398
X9.0Y-4.148
X9.0Y-4.898
X9.0Y-5.648
X9.75Y-2.648
X9.75Y-3.398
X9.75Y-4.148
X9.75Y-4.898
X9.75Y-5.648
X10.5Y-2.523
X10.5Y-3.273
X10.5Y-4.023
X10.5Y-4.773
X10.5Y-5.523
X11.25Y-2.46
X11.25Y-3.21
X11.25Y-3.96
X11.25Y-4.71
X11.25Y-5.46
X12.0Y-2.523
X12.0Y-3.273
X12.0Y-4.023
X12.0Y-4.773
X12.0Y-5.523
X12.6558Y-6.3246
X12.75Y-2.573
X12.75Y-3.323
X12.75Y-4.073
X12.75Y-4.823
X12.99Y-6.376
X13.0531Y-5.4727
X13.149Y-6.036
X13.307Y-5.696
X13.5Y-2.573
X13.5Y-3.511
X13.5Y-4.635
X13.67Y-6.693
X13.828Y-6.353
X13.9239Y-6.9163
X13.987Y-6.013
X14.304Y-5.333
X14.3212Y-6.0644
X14.349Y-7.01
X14.667Y-6.33
X14.984Y-5.65
T6
X2.0882Y-6.5389
X2.3152Y-4.7999
X2.6202Y-1.4718
X4.1173Y-6.2208
X4.6202Y-1.4718
X5.4402Y-3.6159
X7.8853Y-1.4718
X7.9102Y-5.5238
X8.4057Y-5.524
X8.4307Y-1.472
X10.8758Y-3.616
X11.6958Y-1.472
X12.1988Y-6.221
X13.6958Y-1.472
X14.0008Y-4.8
X14.2278Y-6.539
T0
M30
